<?xml version="1.0" encoding="UTF-8"?>
<svg width="24px" height="24px" viewBox="0 0 24 24" version="1.1" xmlns="http://www.w3.org/2000/svg" xmlns:xlink="http://www.w3.org/1999/xlink">
    <!-- Generator: Sketch 53.2 (72643) - https://sketchapp.com -->
    <title>error</title>
    <desc>Created with Sketch.</desc>
    <g id="Conference" stroke="none" stroke-width="1" fill="none" fill-rule="evenodd">
        <g id="RPA-floating-banner" transform="translate(-347.000000, -112.000000)" fill="#FAB03A" fill-rule="nonzero">
            <g id="error" transform="translate(347.000000, 112.000000)">
                <path d="M20.4798462,3.50907692 C15.8012308,-1.16953846 8.18815385,-1.17 3.50907692,3.50907692 C-1.17,8.18815385 -1.16953846,15.8007692 3.50907692,20.4798462 C8.18769231,25.1589231 15.8007692,25.1589231 20.4798462,20.4798462 C25.1584615,15.8007692 25.1584615,8.18769231 20.4798462,3.50907692 Z M16.7266154,16.7266154 C16.3661538,17.0870769 15.7818462,17.0870769 15.4213846,16.7266154 L11.9944615,13.2996923 L8.40461538,16.8895385 C8.04415385,17.25 7.45984615,17.25 7.09938462,16.8895385 C6.73892308,16.5290769 6.73892308,15.9447692 7.09938462,15.5843077 L10.6892308,11.9944615 L7.26230769,8.56753846 C6.90184615,8.20707692 6.90184615,7.62230769 7.26230769,7.26230769 C7.62276923,6.90184615 8.20707692,6.90184615 8.56753846,7.26230769 L11.9944615,10.6892308 L15.258,7.42569231 C15.6184615,7.06523077 16.2027692,7.06523077 16.5632308,7.42569231 C16.9236923,7.78615385 16.9236923,8.37046154 16.5632308,8.73092308 L13.2996923,11.9944615 L16.7266154,15.4213846 C17.0870769,15.7818462 17.0870769,16.3661538 16.7266154,16.7266154 Z" id="Shape"></path>
            </g>
        </g>
    </g>
</svg>