<?xml version="1.0" encoding="utf-8"?>
<!-- Generator: Adobe Illustrator 22.0.1, SVG Export Plug-In . SVG Version: 6.00 Build 0)  -->
<svg version="1.1" id="Layer_1" xmlns="http://www.w3.org/2000/svg" xmlns:xlink="http://www.w3.org/1999/xlink" x="0px" y="0px"
	 viewBox="0 0 435 130" style="enable-background:new 0 0 435 130;" xml:space="preserve">
<style type="text/css">
	.st0{fill:#FFFFFF;}
</style>
<g id="Page-1_1_">
	<g id="Group-3">
		<g id="Group-6">
			<path id="Fill-143" class="st0" d="M18.6,41.3h5.6H37h7.7V49v12.8v5.6l10.2,10.2c1.9-2.4,3.2-5.5,3.2-8.8V42.2V28.1
				c0,0-10.3,0-14.1,0H17.3c-3.4,0-6.4,1.1-8.8,3L18.6,41.3z"/>
			<path id="Fill-145" class="st0" d="M42.3,69.5h-5.5H26.5l-10.3-0.2l0.2-12.6V49v-5.5L6.2,33.4c-1.9,2.4-3,5.5-3,8.6v26.5
				c0,7.7,6.4,14.1,14.1,14.1h26.5c3.4,0,6.4-1.1,8.8-3L42.3,69.5z"/>
		</g>
		<g id="Group-166" transform="translate(69.000000, 10.000000)">
			<polygon id="Fill-147" class="st0" points="41.4,27.5 27.4,64.2 16,64.2 2.1,27.5 11.7,27.5 21.1,54.6 21.6,56.7 22.4,54.6 
				31.8,27.5 			"/>
			<path id="Fill-149" class="st0" d="M72,57.6v6.6H44.9V58c3.8-2.6,7-4.9,9.2-6.8c2.4-1.9,4.3-3.4,5.8-4.7s2.4-2.4,2.8-3.4
				c0.6-0.9,0.8-1.9,0.8-3c0-1.5-0.6-2.6-1.9-3.4c-0.9-0.6-2.3-0.9-3.8-0.9c-2.1,0-4.1,0.4-5.6,1.1c-1.3,0.6-2.6,1.5-3.9,2.4
				L44,34.3c0.9-0.8,1.7-1.5,2.6-2.1c1.1-0.8,2.3-1.3,3.6-1.9c1.3-0.6,2.4-0.8,3.8-1.1c1.3-0.2,2.6-0.4,3.8-0.4
				c2.1,0.2,3.9,0.4,5.8,0.9c1.7,0.6,3.2,1.3,4.5,2.3c1.1,1.1,2.1,2.3,2.6,3.6c0.8,1.5,1.1,3,1.1,4.7c0,1.3-0.2,2.6-0.8,3.8
				s-1.3,2.4-2.3,3.8c-1.1,1.3-2.4,2.6-3.9,3.9c-1.7,1.3-3.6,2.8-5.8,4.3L57,57.4h15V57.6z"/>
			<path id="Fill-151" class="st0" d="M102.4,51.2c-0.6-1.1-1.3-2.1-2.4-2.8c-0.9-0.8-2.1-1.3-3.4-1.9c-1.3-0.6-2.6-0.9-3.9-1.3
				c-1.3-0.4-2.6-0.8-3.9-1.1c-1.3-0.4-2.4-0.8-3.6-1.3c-1.1-0.6-1.9-1.1-2.6-2.1c-0.8-0.8-0.9-1.9-0.9-3.2c0-0.9,0.2-2.1,0.8-2.8
				c0.4-0.9,1.1-1.7,1.9-2.3c0.8-0.6,1.7-1.1,2.8-1.5c1.1-0.4,2.3-0.6,3.4-0.6c2.1,0,4.1,0.4,6,1.1c1.7,0.8,3.2,1.9,4.5,3.2l1.5-1.3
				c-1.3-1.5-3-2.6-4.9-3.4c-2.1-0.9-4.3-1.3-7-1.3c-1.7,0-3.2,0.2-4.5,0.8c-1.3,0.4-2.6,1.1-3.8,1.9c-1.1,0.8-1.9,1.7-2.4,2.8
				c-0.6,1.1-0.9,2.4-0.9,3.8c0,2.1,0.6,3.6,1.5,4.7c0.9,1.1,2.3,2.1,3.9,2.8c1.5,0.8,3.4,1.3,5.3,1.7c1.9,0.4,3.8,0.9,5.3,1.7
				c1.7,0.6,3,1.5,4.1,2.4c1.1,1.1,1.7,2.4,1.7,4.3c0,0.8-0.2,1.7-0.4,2.4c-0.4,0.9-0.9,1.7-1.7,2.4c-0.8,0.8-1.9,1.3-3,1.9
				c-1.3,0.6-2.8,0.8-4.7,0.8c-1.3,0-2.6-0.2-3.8-0.4c-1.1-0.4-2.3-0.8-3.2-1.1c-0.9-0.6-1.9-1.1-2.6-1.7c-0.8-0.6-1.3-1.1-1.7-1.7
				l-1.5,1.7c1.3,1.5,3,2.8,5.1,3.8c2.3,1.1,4.7,1.5,7.7,1.5c2.4,0,4.3-0.4,6-0.9c1.7-0.6,2.8-1.3,3.9-2.4c0.9-0.9,1.7-2.1,2.1-3.2
				s0.6-2.3,0.6-3.4C103.4,53.7,103.2,52.4,102.4,51.2"/>
			<path id="Fill-153" class="st0" d="M141.4,53.3c-0.8,1.9-1.7,3.8-3,5.1c-1.3,1.5-2.8,2.6-4.7,3.4c-1.9,0.8-3.8,1.3-6,1.3
				c-2.3,0-4.3-0.4-6.2-1.3c-1.9-0.8-3.4-1.9-4.7-3.4s-2.3-3.2-3-5.1c-0.8-1.9-0.9-4.1-0.9-6.4s0.4-4.5,0.9-6.6
				c0.8-1.9,1.7-3.8,3-5.1c1.3-1.5,2.8-2.6,4.7-3.4c1.9-0.8,3.9-1.3,6.2-1.3c2.3,0,4.3,0.4,6,1.3c1.9,0.8,3.4,1.9,4.7,3.4
				c1.3,1.5,2.3,3.2,3,5.1c0.8,1.9,1.1,4.1,1.1,6.6C142.3,49.2,141.9,51.4,141.4,53.3 M143.6,39.6c-0.8-2.3-2.1-4.1-3.6-5.8
				c-1.3-1.5-3.2-2.8-5.3-3.8c-2.1-0.9-4.5-1.3-7.1-1.3c-2.6,0-5.1,0.4-7.1,1.3c-2.1,0.9-3.9,2.3-5.5,3.9s-2.6,3.6-3.6,5.8
				c-0.8,2.3-1.3,4.7-1.3,7.3c0,2.6,0.4,5.1,1.3,7.3c0.8,2.3,2.1,4.1,3.6,5.8s3.4,3,5.5,3.9c2.1,0.9,4.5,1.3,7.1,1.3
				c2.6,0,5.1-0.6,7.1-1.3c2.1-0.9,3.9-2.3,5.5-3.9c1.5-1.7,2.6-3.6,3.6-5.8c0.8-2.3,1.3-4.7,1.3-7.3
				C144.9,44.3,144.6,41.8,143.6,39.6"/>
			<polygon id="Fill-155" class="st0" points="173.3,62.5 173.3,64.6 153.4,64.6 153.4,29.2 155.6,29.2 155.6,62.5 			"/>
			<path id="Fill-157" class="st0" d="M206.8,29.2V51c0,4.3-1.1,7.9-3.4,10.3c-2.3,2.4-5.8,3.8-10.3,3.8c-2.3,0-4.3-0.4-6-0.9
				c-1.7-0.8-3.2-1.7-4.3-2.8c-1.1-1.1-2.1-2.6-2.6-4.3c-0.6-1.7-0.9-3.8-0.9-6V29.2h2.4V51c0,3.8,0.9,6.8,3,8.8
				c1.9,2.1,4.9,3.2,8.5,3.2c3.8,0,6.6-1.1,8.5-3.2c1.9-2.1,2.8-5.1,2.8-8.8V29.2H206.8z"/>
			<polygon id="Fill-159" class="st0" points="240.2,29.2 240.2,31.3 228.4,31.3 228.4,64.6 226,64.6 226,31.3 214.1,31.3 
				214.1,29.2 			"/>
			<polygon id="Fill-161" class="st0" points="247.6,64.6 249.8,64.6 249.8,29.2 247.6,29.2 			"/>
			<path id="Fill-163" class="st0" d="M289.3,53.3c-0.8,1.9-1.7,3.8-3,5.1c-1.3,1.5-2.8,2.6-4.7,3.4c-1.9,0.8-3.8,1.3-6,1.3
				c-2.3,0-4.3-0.4-6.2-1.3c-1.9-0.8-3.4-1.9-4.7-3.4c-1.3-1.5-2.3-3.2-3-5.1c-0.8-1.9-0.9-4.1-0.9-6.4s0.4-4.5,0.9-6.6
				c0.8-1.9,1.7-3.8,3-5.1c1.3-1.5,2.8-2.6,4.7-3.4c1.9-0.8,3.9-1.3,6.2-1.3c2.3,0,4.3,0.4,6,1.3c1.9,0.8,3.4,1.9,4.7,3.4
				c1.3,1.5,2.3,3.2,3,5.1c0.8,1.9,1.1,4.1,1.1,6.6C290.4,49.2,290.1,51.4,289.3,53.3 M291.8,39.6c-0.8-2.3-2.1-4.1-3.6-5.8
				c-1.5-1.7-3.4-3-5.5-3.9c-2.1-0.9-4.5-1.3-7.1-1.3s-5.1,0.4-7.1,1.3c-2.1,0.9-3.9,2.3-5.5,3.9c-1.5,1.7-2.6,3.6-3.6,5.8
				c-0.8,2.3-1.3,4.7-1.3,7.3s0.4,5.1,1.3,7.3c0.8,2.3,2.1,4.1,3.6,5.8s3.4,3,5.5,3.9c2.1,0.9,4.5,1.3,7.1,1.3s5.1-0.6,7.1-1.3
				c2.1-0.9,3.9-2.3,5.5-3.9c1.5-1.7,2.6-3.6,3.6-5.8c0.8-2.3,1.3-4.7,1.3-7.3C292.9,44.3,292.5,41.8,291.8,39.6"/>
			<polygon id="Fill-164" class="st0" points="329.7,29.2 329.7,64.6 327.3,64.6 304.3,33.7 303.8,32.8 303.8,64.6 301.3,64.6 
				301.3,29.2 304,29.2 326.7,59.7 327.3,60.6 327.3,29.2 			"/>
			<path id="Fill-165" class="st0" d="M363,55.4c0,1.1-0.2,2.3-0.6,3.4c-0.4,1.1-1.1,2.3-2.1,3.2c-0.9,0.9-2.3,1.7-3.9,2.4
				c-1.7,0.6-3.6,0.9-6,0.9c-3,0-5.6-0.6-7.7-1.5c-2.1-0.9-3.8-2.3-5.1-3.8l1.5-1.7c0.6,0.6,1.1,1.1,1.7,1.7
				c0.8,0.6,1.7,1.3,2.6,1.7c0.9,0.6,2.1,0.9,3.2,1.1c1.1,0.4,2.4,0.4,3.8,0.4c1.9,0,3.6-0.2,4.7-0.8c1.3-0.6,2.3-1.1,3-1.9
				s1.3-1.5,1.7-2.4c0.4-0.9,0.4-1.7,0.4-2.4c0-1.9-0.6-3.4-1.7-4.3c-1.1-0.9-2.4-1.9-4.1-2.4c-1.3-0.9-3.2-1.5-5.1-1.9
				c-1.9-0.4-3.6-0.9-5.3-1.7c-1.5-0.8-2.8-1.7-3.9-2.8c-0.9-1.1-1.5-2.6-1.5-4.7c0-1.5,0.4-2.6,0.9-3.8s1.5-2.1,2.4-2.8
				c1.1-0.8,2.3-1.5,3.8-1.9c1.3-0.4,3-0.6,4.5-0.6c2.6,0,5.1,0.4,7,1.3c1.9,0.8,3.6,1.9,4.9,3.4l-1.5,1.5c-1.3-1.5-2.8-2.6-4.5-3.2
				c-1.9-0.8-3.8-1.1-6-1.1c-1.3,0-2.4,0.2-3.4,0.6c-1.1,0.4-2.1,0.8-2.8,1.5c-0.8,0.6-1.5,1.3-1.9,2.3s-0.8,1.9-0.8,2.8
				c0,1.3,0.4,2.3,0.9,3.2c0.6,0.8,1.5,1.5,2.6,2.1c1.1,0.6,2.3,0.9,3.6,1.3c1.3,0.4,2.6,0.8,3.9,1.1s2.6,0.8,3.9,1.3
				c1.3,0.6,2.4,1.1,3.4,1.9c0.9,0.8,1.9,1.7,2.4,2.8C362.8,52.4,363,53.7,363,55.4"/>
		</g>
		<path id="The-Next-Level-of-Innovation" class="st0" d="M117.5,90.6v-1.3h7.9v1.3h-3.2v12.6h-1.5V90.6H117.5z M127.1,88.9h1.3v5.8
			c0.6-0.8,1.1-1.3,1.9-1.5c0.8-0.4,1.3-0.6,2.1-0.6s1.5,0.2,2.1,0.6s1.1,0.9,1.3,1.5c0.4,0.6,0.4,1.7,0.4,3v5.3h-1.3v-4.9
			c0-1.1,0-1.9-0.2-2.4c-0.2-0.8-0.6-1.1-0.9-1.5c-0.4-0.4-0.9-0.6-1.7-0.6s-1.5,0.2-2.3,0.8c-0.6,0.6-1.1,1.1-1.3,1.9
			c-0.2,0.6-0.2,1.5-0.2,2.8v3.8h-1.3V88.9H127.1z M148.1,99.6l1.1,0.6c-0.4,0.8-0.8,1.3-1.3,1.7c-0.6,0.4-1.1,0.8-1.7,0.9
			c-0.6,0.2-1.3,0.4-2.1,0.4c-1.7,0-3-0.6-3.9-1.7c-0.9-1.1-1.5-2.3-1.5-3.8c0-1.3,0.4-2.4,1.3-3.4c1.1-1.3,2.4-1.9,4.1-1.9
			c1.9,0,3.2,0.8,4.3,2.1c0.8,0.9,1.1,2.1,1.1,3.6h-9.4c0,1.1,0.4,2.3,1.1,3c0.8,0.8,1.7,1.1,2.8,1.1c0.6,0,1.1,0,1.5-0.2
			c0.6-0.2,0.9-0.4,1.3-0.8C147.4,100.7,147.8,100.3,148.1,99.6z M148.1,96.9c-0.2-0.8-0.4-1.3-0.8-1.7c-0.4-0.4-0.8-0.8-1.3-0.9
			c-0.6-0.2-1.1-0.4-1.9-0.4c-0.9,0-1.9,0.4-2.6,0.9c-0.6,0.6-0.9,1.1-1.3,2.1C140.2,96.9,148.1,96.9,148.1,96.9z M157.9,103V89.1
			h0.4l9.4,10.5V89.1h1.3V103h-0.4l-9.4-10.5V103H157.9z M181.2,99.6l1.1,0.6c-0.4,0.8-0.8,1.3-1.3,1.7c-0.6,0.4-1.1,0.8-1.7,0.9
			c-0.6,0.2-1.3,0.4-2.1,0.4c-1.7,0-3-0.6-3.9-1.7c-0.9-1.1-1.5-2.3-1.5-3.8c0-1.3,0.4-2.4,1.3-3.4c1.1-1.3,2.4-1.9,4.1-1.9
			c1.9,0,3.2,0.8,4.3,2.1c0.8,0.9,1.1,2.1,1.1,3.6h-9.4c0,1.1,0.4,2.3,1.1,3c0.8,0.8,1.7,1.1,2.8,1.1c0.6,0,1.1,0,1.5-0.2
			c0.6-0.2,0.9-0.4,1.3-0.8C180.5,100.9,180.8,100.3,181.2,99.6z M181.2,96.9c-0.2-0.8-0.4-1.3-0.8-1.7s-0.8-0.8-1.3-0.9
			c-0.6-0.2-1.1-0.4-1.9-0.4c-0.9,0-1.9,0.4-2.6,0.9c-0.6,0.6-0.9,1.1-1.3,2.1C173.3,96.9,181.2,96.9,181.2,96.9z M184,92.8h1.7
			l2.8,3.8l2.8-3.8h1.7l-3.6,4.9l4.1,5.5h-1.7l-3.2-4.3l-3.2,4.3h-1.7l3.9-5.5L184,92.8z M196.1,89.1h1.3v3.8h2.1v1.1h-2.1v9.2h-1.3
			v-9.2h-1.9v-1.1h1.9V89.1z M207.4,89.2h1.5v12.4h5.5v1.3h-7C207.4,103,207.4,89.2,207.4,89.2z M225.2,99.6l1.1,0.6
			c-0.4,0.8-0.8,1.3-1.3,1.7c-0.6,0.4-1.1,0.8-1.7,0.9c-0.6,0.2-1.3,0.4-2.1,0.4c-1.7,0-3-0.6-3.9-1.7c-0.9-1.1-1.5-2.3-1.5-3.8
			c0-1.3,0.4-2.4,1.3-3.4c1.1-1.3,2.4-1.9,4.1-1.9c1.9,0,3.2,0.8,4.3,2.1c0.8,0.9,1.1,2.1,1.1,3.6h-9.4c0,1.1,0.4,2.3,1.1,3
			c0.8,0.8,1.7,1.1,2.8,1.1c0.6,0,1.1,0,1.5-0.2c0.6-0.2,0.9-0.4,1.3-0.8C224.3,100.7,224.6,100.3,225.2,99.6z M225.2,96.9
			c-0.2-0.8-0.4-1.3-0.8-1.7c-0.4-0.4-0.8-0.8-1.3-0.9c-0.6-0.2-1.1-0.4-1.9-0.4c-0.9,0-1.9,0.4-2.6,0.9c-0.6,0.6-0.9,1.1-1.3,2.1
			C217.3,96.9,225.2,96.9,225.2,96.9z M228.2,92.8h1.5l3.6,7.5l3.6-7.5h1.5l-4.9,10.3h-0.2L228.2,92.8z M249.1,99.6l1.1,0.6
			c-0.4,0.8-0.8,1.3-1.3,1.7c-0.6,0.4-1.1,0.8-1.7,0.9c-0.6,0.2-1.3,0.4-2.1,0.4c-1.7,0-3-0.6-3.9-1.7c-0.9-1.1-1.5-2.3-1.5-3.8
			c0-1.3,0.4-2.4,1.3-3.4c1.1-1.3,2.4-1.9,4.1-1.9c1.9,0,3.2,0.8,4.3,2.1c0.8,0.9,1.1,2.1,1.1,3.6h-9.4c0,1.1,0.4,2.3,1.1,3
			c0.8,0.8,1.7,1.1,2.8,1.1c0.6,0,1.1,0,1.5-0.2c0.6-0.2,0.9-0.4,1.3-0.8C248.3,100.7,248.7,100.3,249.1,99.6z M249.1,96.9
			c-0.2-0.8-0.4-1.3-0.8-1.7c-0.4-0.4-0.8-0.8-1.3-0.9c-0.6-0.2-1.1-0.4-1.9-0.4c-0.9,0-1.9,0.4-2.6,0.9c-0.6,0.6-0.9,1.1-1.3,2.1
			C241.2,96.9,249.1,96.9,249.1,96.9z M252.8,88.9h1.3v14.3h-1.3V88.9z M267.5,92.4c1.7,0,3,0.6,3.9,1.7c0.9,1.1,1.5,2.3,1.5,3.8
			c0,1.5-0.6,2.6-1.5,3.8s-2.3,1.7-3.9,1.7c-1.7,0-3-0.6-3.9-1.7c-0.9-1.1-1.5-2.3-1.5-3.8c0-1.5,0.6-2.6,1.5-3.8
			C264.7,93,266,92.4,267.5,92.4z M267.5,93.8c-1.1,0-2.1,0.4-2.8,1.1c-0.8,0.8-1.1,1.9-1.1,3c0,0.8,0.2,1.5,0.6,2.1
			c0.4,0.6,0.9,1.1,1.5,1.5s1.3,0.6,2.1,0.6s1.5-0.2,2.1-0.6c0.6-0.4,1.1-0.8,1.5-1.5c0.4-0.6,0.6-1.3,0.6-2.1c0-1.1-0.4-2.1-1.1-3
			C269.8,94.1,268.6,93.8,267.5,93.8z M279.9,88.9v1.3c-0.6-0.2-0.9-0.4-1.3-0.4c-0.2,0-0.6,0-0.8,0.2c-0.2,0.2-0.4,0.2-0.4,0.4
			c0,0.2,0,0.6,0,1.1v1.3h2.3v1.1h-2.3v9.2h-1.3v-9.2h-1.3v-1.1h1.3v-1.7c0-0.8,0-1.3,0.2-1.5c0.2-0.2,0.4-0.6,0.8-0.8
			c0.4-0.2,0.8-0.4,1.1-0.4C278.8,88.5,279.4,88.7,279.9,88.9z M287.4,89.2h1.5v13.9h-1.5V89.2z M291.9,92.8h1.3v1.9
			c0.6-0.8,1.1-1.3,1.9-1.5c0.8-0.4,1.3-0.6,2.1-0.6s1.5,0.2,2.1,0.6c0.6,0.4,1.1,0.9,1.3,1.5c0.4,0.8,0.4,1.7,0.4,3v5.3h-1.3v-4.9
			c0-1.1,0-1.9-0.2-2.4c-0.2-0.8-0.4-1.1-0.9-1.5c-0.4-0.4-0.9-0.6-1.7-0.6c-0.8,0-1.5,0.2-2.3,0.8c-0.6,0.6-1.1,1.1-1.3,1.9
			c-0.2,0.6-0.2,1.5-0.2,2.8v3.8h-1.3v-10H291.9z M304,92.8h1.3v1.9c0.6-0.8,1.1-1.3,1.9-1.5c0.8-0.4,1.3-0.6,2.1-0.6
			c0.8,0,1.5,0.2,2.1,0.6s1.1,0.9,1.3,1.5c0.4,0.8,0.4,1.7,0.4,3v5.3h-1.3v-4.9c0-1.1,0-1.9-0.2-2.4c-0.2-0.8-0.4-1.1-0.9-1.5
			c-0.4-0.4-0.9-0.6-1.7-0.6s-1.5,0.2-2.3,0.8c-0.6,0.6-1.1,1.1-1.3,1.9c-0.2,0.6-0.2,1.5-0.2,2.8v3.8h-1.3v-10H304z M321.1,92.4
			c1.7,0,3,0.6,3.9,1.7c0.9,1.1,1.5,2.3,1.5,3.8c0,1.5-0.6,2.6-1.5,3.8s-2.3,1.7-3.9,1.7s-3-0.6-3.9-1.7s-1.5-2.3-1.5-3.8
			c0-1.5,0.6-2.6,1.5-3.8S319.6,92.4,321.1,92.4z M321.1,93.8c-1.1,0-2.1,0.4-2.8,1.1c-0.8,0.8-1.1,1.9-1.1,3c0,0.8,0.2,1.5,0.6,2.1
			c0.4,0.6,0.9,1.1,1.5,1.5s1.3,0.6,2.1,0.6s1.5-0.2,2.1-0.6s1.1-0.8,1.5-1.5c0.4-0.6,0.6-1.3,0.6-2.1c0-1.1-0.4-2.1-1.1-3
			C323.5,93.9,322.2,93.8,321.1,93.8z M328.2,92.8h1.5l3.6,7.5l3.6-7.5h1.5l-4.9,10.3h-0.2L328.2,92.8z M350.6,92.8v10.3h-1.3v-1.7
			c-0.6,0.8-1.1,1.1-1.9,1.5c-0.8,0.4-1.5,0.6-2.3,0.6c-1.5,0-2.8-0.6-3.8-1.5c-1.1-1.1-1.5-2.3-1.5-3.8c0-1.5,0.6-2.8,1.5-3.8
			c1.1-1.1,2.3-1.5,3.8-1.5c0.9,0,1.7,0.2,2.3,0.6c0.8,0.4,1.3,0.9,1.9,1.7v-1.9h1.3V92.8z M345.1,93.8c-0.8,0-1.5,0.2-2.1,0.6
			c-0.6,0.4-1.1,0.9-1.5,1.5c-0.4,0.6-0.6,1.3-0.6,2.1s0.2,1.5,0.6,2.1c0.4,0.8,0.9,1.1,1.5,1.5c0.6,0.4,1.3,0.6,2.1,0.6
			c0.8,0,1.5-0.2,2.1-0.6c0.8-0.4,1.1-0.9,1.5-1.5c0.4-0.6,0.6-1.3,0.6-2.1c0-1.1-0.4-2.3-1.1-3C347.4,94.1,346.5,93.8,345.1,93.8z
			 M354.9,89.1h1.3v3.8h2.1v1.1h-2.1v9.2h-1.3v-9.2H353v-1.1h1.9V89.1z M360.9,88.5c0.4,0,0.6,0.2,0.8,0.4c0.2,0.2,0.4,0.6,0.4,0.8
			c0,0.4-0.2,0.6-0.4,0.8c-0.2,0.2-0.6,0.4-0.8,0.4c-0.4,0-0.6-0.2-0.8-0.4c-0.2-0.2-0.4-0.4-0.4-0.8s0.2-0.6,0.4-0.8
			C360.4,88.7,360.6,88.5,360.9,88.5z M360.2,92.8h1.3v10.3h-1.3V92.8z M369.4,92.4c1.7,0,3,0.6,3.9,1.7c0.9,1.1,1.5,2.3,1.5,3.8
			c0,1.5-0.6,2.6-1.5,3.8s-2.3,1.7-3.9,1.7s-3-0.6-3.9-1.7c-0.9-1.1-1.5-2.3-1.5-3.8c0-1.5,0.6-2.6,1.5-3.8
			C366.6,93,367.9,92.4,369.4,92.4z M369.4,93.8c-1.1,0-2.1,0.4-2.8,1.1c-0.8,0.8-1.1,1.9-1.1,3c0,0.8,0.2,1.5,0.6,2.1
			c0.4,0.6,0.9,1.1,1.5,1.5s1.3,0.6,2.1,0.6s1.5-0.2,2.1-0.6c0.6-0.4,1.1-0.8,1.5-1.5c0.4-0.6,0.6-1.3,0.6-2.1c0-1.1-0.4-2.1-1.1-3
			C371.5,94.1,370.5,93.8,369.4,93.8z M377.5,92.8h1.3v1.9c0.6-0.8,1.1-1.3,1.9-1.5c0.8-0.4,1.3-0.6,2.1-0.6c0.8,0,1.5,0.2,2.1,0.6
			s1.1,0.9,1.3,1.5c0.4,0.8,0.4,1.7,0.4,3v5.3h-1.3v-4.9c0-1.1,0-1.9-0.2-2.4c-0.2-0.8-0.4-1.1-0.9-1.5c-0.4-0.4-0.9-0.6-1.7-0.6
			c-0.8,0-1.5,0.2-2.3,0.8c-0.6,0.6-1.1,1.1-1.3,1.9c-0.2,0.6-0.2,1.5-0.2,2.8v3.8h-1.3v-10H377.5z"/>
	</g>
</g>
</svg>
