<?xml version="1.0" encoding="UTF-8"?>
<svg width="553px" height="198px" viewBox="0 0 553 198" version="1.1" xmlns="http://www.w3.org/2000/svg" xmlns:xlink="http://www.w3.org/1999/xlink">
    <!-- Generator: Sketch 49.1 (51147) - http://www.bohemiancoding.com/sketch -->
    <title>UiPath logo</title>
    <desc>Created with Sketch.</desc>
    <defs></defs>
    <g id="Page-1" stroke="none" stroke-width="1" fill="none" fill-rule="evenodd">
        <g id="UiPath-logo">
            <path d="M167.142,160.944 L146.599,160.944 L146.599,72.822 L167.142,72.822 L167.142,160.944 Z M156.958,33.876 C164.283,33.876 169.642,38.722 169.642,45.722 C169.642,52.542 164.282,57.388 156.958,57.388 C149.635,57.388 144.276,52.542 144.276,45.722 C144.276,38.722 149.636,33.876 156.958,33.876 Z M30.848,41.414 L51.568,41.414 L51.568,108.895 C51.568,134.381 61.037,142.817 75.148,142.817 C89.436,142.817 99.441,134.382 99.441,108.895 L99.441,41.414 L119.268,41.414 L119.268,107.28 C119.268,145.867 102.298,160.944 75.148,160.944 C48.175,160.944 30.848,145.867 30.848,107.28 L30.848,41.414 Z" id="Shape"></path>
            <path d="M367.005,136.873 L367.005,117.273 C343.307,120.303 335.466,126.539 335.466,135.269 C335.466,143.109 340.634,146.494 347.938,146.494 C355.067,146.495 360.591,142.931 367.005,136.873 Z" id="Shape"></path>
            <path d="M552.306,160.393 L552.306,105.514 C552.306,83.42 545.565,69.559 524.805,69.559 C512.725,69.559 504.166,77.007 496.775,83.956 C490.841,90.319 484.102,97.513 476.76,107.579 L476.76,122.481 C482.21,116.289 490.205,107.156 497.495,99.278 C504.888,92.152 509.936,88.41 517.688,88.41 C527.425,88.41 531.571,93.755 531.571,108.189 L531.571,160.394 L552.306,160.394 L552.306,160.393 Z" id="Shape" fill="#2573B2" fill-rule="nonzero"></path>
            <path d="M497.059,77.288 L497.186,74.288 L497.496,67.028 L497.496,38.064 L476.76,38.064 L476.76,95.509 L476.76,98.92 C481.757,92.667 490.242,83.609 497.059,77.288 Z" id="Shape" fill="#2573B2" fill-rule="nonzero"></path>
            <path d="M476.76,160.393 L497.495,160.393 L497.495,105.689 C491.907,111.782 482.061,122.657 476.76,128.958 L476.76,160.393 Z" id="Shape" fill="#2573B2" fill-rule="nonzero"></path>
            <path d="M196.746,191.688 L196.746,6.702 C196.746,3.448 194.107,0.808 190.852,0.808 L6.277,0.808 C3.023,0.808 0.383,3.447 0.383,6.702 L0.383,191.688 C0.383,194.942 3.022,197.582 6.277,197.582 L190.852,197.582 C194.107,197.582 196.746,194.943 196.746,191.688 Z M188.912,189.902 L8.053,189.902 L8.053,8.741 L188.912,8.741 L188.912,189.902 Z" id="Shape" fill="#2573B2" fill-rule="nonzero"></path>
            <path d="M75.149,160.944 C102.299,160.944 119.269,145.867 119.269,107.28 L119.269,41.414 L99.442,41.414 L99.442,108.895 C99.442,134.381 89.438,142.817 75.149,142.817 C61.037,142.817 51.569,134.382 51.569,108.895 L51.569,41.414 L30.849,41.414 L30.849,107.28 C30.848,145.867 48.176,160.944 75.149,160.944 Z" id="Shape" fill="#2573B2" fill-rule="nonzero"></path>
            <path d="M156.958,57.388 C164.283,57.388 169.642,52.542 169.642,45.722 C169.642,38.721 164.282,33.876 156.958,33.876 C149.635,33.876 144.276,38.722 144.276,45.722 C144.276,52.542 149.636,57.388 156.958,57.388 Z" id="Shape" fill="#2573B2" fill-rule="nonzero"></path>
            <rect id="Rectangle-path" fill="#2573B2" fill-rule="nonzero" x="146.598" y="72.822" width="20.543" height="88.122"></rect>
            <path d="M240.041,42.574 L239.229,37.706 C239.229,37.706 239.229,37.706 222.325,38.026 L222.325,62.059 C228.898,53.804 235.009,46.569 240.041,42.574 Z" id="Shape" fill="#2573B2" fill-rule="nonzero"></path>
            <path d="M242.993,118.848 C260.615,135.84 298.964,129.838 302.357,87.203 C306.09,40.302 275.581,32.351 259.676,36.733 C253.913,38.321 248.257,42.21 242.993,47.119 C234.792,54.766 227.542,64.888 222.325,72.639 L222.325,88.127 C226.555,81.346 233.19,71.667 242.993,62.681 C244.914,60.92 246.957,59.187 249.128,57.506 C264.221,45.822 283.311,53.92 281.098,84.122 C278.996,112.817 258.404,117.537 242.994,103.492 C242.994,89.145 242.994,78.031 242.994,69.421 L222.326,97.423 L222.326,160.395 L242.994,160.395 L242.994,118.848 L242.993,118.848 Z" id="Shape" fill="#2573B2" fill-rule="nonzero"></path>
            <path d="M368.608,150.771 L369.144,150.771 L370.746,160.392 L387.495,160.392 L387.495,108.542 C387.495,84.131 376.805,70.769 354.888,70.769 C340.99,70.769 328.696,76.114 319.075,82.171 L326.558,95.89 C334.22,91.258 342.416,87.339 351.147,87.339 C362.907,87.339 366.826,95.178 367.005,104.444 C331.192,108.363 315.511,118.163 315.511,136.872 C315.511,152.195 326.203,162.53 341.526,162.53 C351.86,162.531 360.769,157.363 368.608,150.771 Z M335.467,135.269 C335.467,126.539 343.307,120.303 367.006,117.273 L367.006,136.873 C360.591,142.931 355.068,146.494 347.94,146.494 C340.635,146.495 335.467,143.11 335.467,135.269 Z" id="Shape" fill="#2573B2" fill-rule="nonzero"></path>
            <path d="M461.083,159.325 L457.519,144.18 C455.023,145.248 451.46,146.14 448.432,146.14 C440.057,146.14 436.138,141.151 436.138,130.816 L436.138,89.122 L458.409,89.122 L458.409,72.909 L436.138,72.909 L436.138,49.032 L419.032,49.032 L416.538,72.909 L402.997,73.799 L402.997,89.123 L415.469,89.123 L415.469,130.817 C415.469,149.705 422.952,162.532 443.263,162.532 C450.213,162.531 456.271,160.927 461.083,159.325 Z" id="Shape" fill="#2573B2" fill-rule="nonzero"></path>
        </g>
    </g>
</svg>