<svg xmlns="http://www.w3.org/2000/svg" width="145" height="125" viewBox="0 0 145 125">
    <defs>
        <linearGradient id="a" x1="9.465%" x2="85.059%" y1="36.146%" y2="22.976%">
            <stop offset="0%" stop-color="#5CC5EF"/>
            <stop offset="100%" stop-color="#344390"/>
        </linearGradient>
        <linearGradient id="b" x1="100%" x2="0%" y1="50%" y2="50%">
            <stop offset="0%" stop-color="#5CC5EF"/>
            <stop offset="100%" stop-color="#344390"/>
        </linearGradient>
        <radialGradient id="c" cx="55.802%" cy="44.75%" r="109.508%" fx="55.802%" fy="44.75%" gradientTransform="matrix(-.76529 .64031 -.63796 -.76811 1.27 .434)">
            <stop offset="0%" stop-color="#FF4900"/>
            <stop offset="100%" stop-color="#344390"/>
        </radialGradient>
        <radialGradient id="d" cx="55.802%" cy="44.75%" r="109.508%" fx="55.802%" fy="44.75%" gradientTransform="matrix(-.76529 .64031 -.63796 -.76811 1.27 .434)">
            <stop offset="0%" stop-color="#FF4900"/>
            <stop offset="100%" stop-color="#344390"/>
        </radialGradient>
        <radialGradient id="e" cx="55.802%" cy="44.75%" r="109.508%" fx="55.802%" fy="44.75%" gradientTransform="matrix(-.76529 .64031 -.63796 -.76811 1.27 .434)">
            <stop offset="0%" stop-color="#FF4900"/>
            <stop offset="100%" stop-color="#344390"/>
        </radialGradient>
        <radialGradient id="f" cx="55.802%" cy="44.75%" r="109.508%" fx="55.802%" fy="44.75%" gradientTransform="matrix(-.76529 .64031 -.63796 -.76811 1.27 .434)">
            <stop offset="0%" stop-color="#FF4900"/>
            <stop offset="100%" stop-color="#344390"/>
        </radialGradient>
    </defs>
    <g fill="none" fill-rule="evenodd">
        <path fill="#5CC5EF" d="M.665 84.407L29.1 99.372v25.019L.665 109.425z"/>
        <path fill="#344390" d="M57.534 84.407L29.1 99.372v25.019l28.434-14.966z"/>
        <path fill="#ABDFF8" d="M2.245 83.256L29.1 97.283 55.407 83.77 28.826 70.432z"/>
        <path fill="#5CC5EF" d="M82.63 42.434l29.114 15.322v58.677L82.63 101.11z"/>
        <path fill="#344390" d="M140.857 42.434l-29.113 15.322v58.677l29.113-15.323z"/>
        <path fill="#ABDFF8" d="M84.248 41.255l27.496 14.362 26.934-13.836-27.215-13.656z"/>
        <path fill="url(#a)" d="M0 30.525v.946l23.747 12.461a2 2 0 0 0 1.925-.036l16.576-9.516v-.9L0 30.525z" transform="translate(6.677 48.555)"/>
        <path fill="url(#b)" d="M18.545 20.15L0 30.548l23.76 12.395a2 2 0 0 0 1.904-.029l16.995-9.538-24.114-13.224z" transform="translate(6.677 48.555)"/>
        <path fill="#ABDFF8" d="M21.353 80.132l-3.176 1.78 4.234 2.47 3.073-1.725z"/>
        <path fill="#CCEFFF" stroke="#5CC5EF" d="M25.566 68.49l23.27 12.917V59.761a.5.5 0 0 0-.294-.455l-22.27-10.06a.5.5 0 0 0-.706.456V68.49z"/>
        <path stroke="#FFA400" d="M41.158 87.268h7.477v34.503H94.56v-78.75h13.28"/>
        <g fill="url(#c)" fill-rule="nonzero" transform="rotate(-19 83.63 -267.828)">
            <path d="M31.862 14.154c-.05-.448-.574-.784-1.027-.784-1.465 0-2.765-.857-3.31-2.182a3.537 3.537 0 0 1 .894-3.937.882.882 0 0 0 .097-1.2 15.784 15.784 0 0 0-2.531-2.548.892.892 0 0 0-1.215.098c-.953 1.05-2.664 1.442-3.986.892a3.536 3.536 0 0 1-2.159-3.457.884.884 0 0 0-.784-.93 16.014 16.014 0 0 0-3.595-.01.887.887 0 0 0-.791.912 3.542 3.542 0 0 1-2.189 3.397c-1.306.531-3.005.144-3.956-.898a.894.894 0 0 0-1.206-.1A15.845 15.845 0 0 0 3.52 5.952a.883.883 0 0 0 .095 1.21 3.52 3.52 0 0 1 .894 3.973c-.552 1.308-1.916 2.152-3.478 2.152a.868.868 0 0 0-.923.782A15.891 15.891 0 0 0 .1 17.69c.05.45.59.783 1.048.783 1.392-.035 2.728.823 3.289 2.182a3.531 3.531 0 0 1-.894 3.938.883.883 0 0 0-.097 1.2c.742.942 1.594 1.8 2.528 2.548a.891.891 0 0 0 1.216-.096c.956-1.054 2.667-1.444 3.984-.893a3.53 3.53 0 0 1 2.163 3.456.885.885 0 0 0 .784.93 15.943 15.943 0 0 0 3.595.01.887.887 0 0 0 .791-.913 3.538 3.538 0 0 1 2.187-3.395c1.315-.535 3.007-.143 3.958.897a.895.895 0 0 0 1.206.1 15.882 15.882 0 0 0 2.585-2.546.882.882 0 0 0-.095-1.21 3.52 3.52 0 0 1-.895-3.972c.543-1.291 1.856-2.158 3.269-2.158l.197.005a.889.889 0 0 0 .936-.781c.14-1.197.142-2.415.007-3.62zM16.007 26.598c-5.89 0-10.682-4.774-10.682-10.642 0-5.868 4.791-10.642 10.682-10.642 5.89 0 10.68 4.774 10.68 10.642 0 5.868-4.79 10.642-10.68 10.642z"/>
        </g>
        <g fill="#004DBB">
            <path d="M106.935 22.792l-.602-1.78a7.534 7.534 0 0 1-.142-.4c-.051-.153-.102-.318-.152-.497a7.023 7.023 0 0 1-.286.906l-.597 1.77h1.78zm2.396 2.484h-1.169a.51.51 0 0 1-.317-.091.58.58 0 0 1-.182-.234l-.384-1.133h-2.471l-.384 1.133a.542.542 0 0 1-.176.225.492.492 0 0 1-.315.1h-1.177l2.516-6.5h1.543l2.516 6.5zm2.806-3.31c.392 0 .675-.093.847-.28.173-.188.26-.45.26-.786 0-.148-.023-.284-.068-.406a.826.826 0 0 0-.203-.314.913.913 0 0 0-.343-.203 1.52 1.52 0 0 0-.493-.071h-.785v2.06h.785zm0-3.19c.458 0 .851.055 1.18.164.328.108.599.258.812.448.212.19.37.415.47.674.101.258.152.538.152.838 0 .324-.052.622-.156.892a1.79 1.79 0 0 1-.478.696 2.25 2.25 0 0 1-.814.453 3.732 3.732 0 0 1-1.166.163h-.785v2.172h-1.508v-6.5h2.293zm4.898 6.5h-1.517v-6.5h1.517v6.5zm4.037-3.613a.358.358 0 0 1-.114.12.298.298 0 0 1-.154.036.492.492 0 0 1-.196-.042l-.212-.092a2.309 2.309 0 0 0-.256-.091 1.145 1.145 0 0 0-.326-.042c-.175 0-.31.033-.404.1a.323.323 0 0 0-.14.279c0 .086.03.157.091.214a.84.84 0 0 0 .243.15c.101.042.216.083.344.122.128.039.259.082.392.13.134.047.265.103.393.167.128.064.242.142.343.236a1.055 1.055 0 0 1 .335.823c0 .23-.042.44-.125.634-.083.193-.207.36-.372.5-.165.139-.37.247-.612.325a2.753 2.753 0 0 1-.836.116c-.158 0-.315-.015-.473-.045-.157-.03-.31-.07-.457-.12a2.49 2.49 0 0 1-.408-.18 1.77 1.77 0 0 1-.321-.226l.32-.509a.411.411 0 0 1 .137-.14.396.396 0 0 1 .212-.052c.08 0 .152.018.216.054l.208.116c.074.042.16.08.26.116.1.036.226.053.377.053a.957.957 0 0 0 .273-.033.48.48 0 0 0 .178-.091.365.365 0 0 0 .13-.277.3.3 0 0 0-.094-.228.816.816 0 0 0-.246-.153 2.991 2.991 0 0 0-.345-.12 6.714 6.714 0 0 1-.395-.128 3.171 3.171 0 0 1-.395-.172 1.358 1.358 0 0 1-.346-.254 1.181 1.181 0 0 1-.245-.377 1.392 1.392 0 0 1-.094-.54c0-.196.038-.383.114-.56a1.3 1.3 0 0 1 .341-.466c.152-.134.342-.24.571-.319.23-.078.497-.118.803-.118a2.582 2.582 0 0 1 .924.17c.136.053.261.116.374.19a1.8 1.8 0 0 1 .3.238l-.313.486z"/>
        </g>
        <g fill="url(#d)" fill-rule="nonzero" transform="translate(79.09 19.555)">
            <path d="M13.442 5.971c-.022-.189-.243-.33-.434-.33a1.498 1.498 0 0 1-1.396-.92 1.492 1.492 0 0 1 .377-1.662.372.372 0 0 0 .041-.506 6.659 6.659 0 0 0-1.068-1.075.376.376 0 0 0-.512.041c-.402.444-1.124.608-1.682.376a1.492 1.492 0 0 1-.91-1.458.373.373 0 0 0-.331-.392A6.756 6.756 0 0 0 6.01.04a.374.374 0 0 0-.334.384 1.494 1.494 0 0 1-.923 1.433c-.551.225-1.268.061-1.67-.378a.377.377 0 0 0-.508-.043 6.685 6.685 0 0 0-1.09 1.074.373.373 0 0 0 .04.51c.469.424.62 1.098.377 1.677-.233.552-.809.908-1.467.908a.366.366 0 0 0-.39.33 6.704 6.704 0 0 0-.003 1.527c.022.19.25.33.442.33a1.479 1.479 0 0 1 1.388.921 1.49 1.49 0 0 1-.377 1.661.372.372 0 0 0-.041.506c.313.398.672.76 1.066 1.075.155.124.38.107.513-.04.404-.445 1.126-.61 1.681-.377.582.243.948.829.912 1.458a.373.373 0 0 0 .331.392 6.726 6.726 0 0 0 1.517.004.374.374 0 0 0 .334-.384 1.493 1.493 0 0 1 .922-1.433c.555-.226 1.269-.06 1.67.379a.378.378 0 0 0 .509.042 6.7 6.7 0 0 0 1.09-1.074.372.372 0 0 0-.04-.51 1.485 1.485 0 0 1-.377-1.676 1.51 1.51 0 0 1 1.379-.911l.083.002a.375.375 0 0 0 .395-.33c.06-.504.06-1.018.003-1.527zm-6.69 3a2.247 2.247 0 0 1-2.248-2.24 2.247 2.247 0 0 1 2.249-2.24 2.247 2.247 0 0 1 2.249 2.24 2.247 2.247 0 0 1-2.25 2.24z"/>
        </g>
        <g fill="url(#e)" fill-rule="nonzero" transform="translate(126.23 .555)">
            <path d="M18.425 8.185c-.03-.259-.332-.453-.594-.453a2.053 2.053 0 0 1-1.914-1.262 2.046 2.046 0 0 1 .517-2.277.51.51 0 0 0 .056-.694 9.128 9.128 0 0 0-1.464-1.473.516.516 0 0 0-.702.056c-.55.608-1.54.834-2.305.516A2.045 2.045 0 0 1 10.771.6a.511.511 0 0 0-.454-.538A9.26 9.26 0 0 0 8.238.056a.513.513 0 0 0-.458.527 2.048 2.048 0 0 1-1.265 1.964c-.755.308-1.738.084-2.288-.519a.517.517 0 0 0-.697-.058 9.163 9.163 0 0 0-1.495 1.472.51.51 0 0 0 .055.7c.643.58.85 1.504.517 2.298-.32.756-1.108 1.244-2.011 1.244a.502.502 0 0 0-.534.452 9.19 9.19 0 0 0-.004 2.094c.03.26.341.453.606.453.805-.02 1.577.476 1.902 1.262.323.784.115 1.7-.517 2.276a.51.51 0 0 0-.056.694 9.16 9.16 0 0 0 1.462 1.474c.211.17.52.146.703-.056.553-.609 1.542-.834 2.304-.516a2.041 2.041 0 0 1 1.25 1.998.512.512 0 0 0 .454.538 9.22 9.22 0 0 0 2.079.006.513.513 0 0 0 .457-.528 2.046 2.046 0 0 1 1.265-1.963c.76-.31 1.739-.083 2.289.519a.518.518 0 0 0 .697.058 9.184 9.184 0 0 0 1.495-1.473.51.51 0 0 0-.055-.7 2.035 2.035 0 0 1-.518-2.296 2.07 2.07 0 0 1 1.89-1.249l.115.003a.514.514 0 0 0 .541-.451 9.182 9.182 0 0 0 .004-2.094zm-9.169 4.113a3.08 3.08 0 0 1-3.082-3.071 3.08 3.08 0 0 1 3.082-3.071 3.08 3.08 0 0 1 3.083 3.07 3.08 3.08 0 0 1-3.083 3.072z"/>
        </g>
        <g fill="url(#f)" fill-rule="nonzero" transform="translate(107.59 39.058)">
            <path d="M8.239 3.66c-.013-.116-.149-.203-.266-.203a.918.918 0 0 1-.855-.564.915.915 0 0 1 .23-1.018c.09-.08.1-.216.026-.31a4.082 4.082 0 0 0-.655-.66.23.23 0 0 0-.314.026.955.955 0 0 1-1.03.23.914.914 0 0 1-.559-.893.229.229 0 0 0-.203-.24 4.141 4.141 0 0 0-.93-.003.23.23 0 0 0-.204.236.916.916 0 0 1-.566.878A.958.958 0 0 1 1.89.907.231.231 0 0 0 1.578.88a4.097 4.097 0 0 0-.668.658.228.228 0 0 0 .025.313.91.91 0 0 1 .23 1.028c-.142.338-.495.556-.899.556a.224.224 0 0 0-.238.202 4.11 4.11 0 0 0-.002.937c.013.116.153.202.27.202.36-.01.706.213.851.564.145.351.052.76-.23 1.018a.228.228 0 0 0-.026.31c.192.244.412.466.654.66a.23.23 0 0 0 .314-.025.953.953 0 0 1 1.03-.231.913.913 0 0 1 .56.893.229.229 0 0 0 .202.24 4.123 4.123 0 0 0 .93.003.23.23 0 0 0 .205-.235.915.915 0 0 1 .565-.878.956.956 0 0 1 1.024.232c.081.088.216.099.311.026.248-.194.473-.415.669-.659a.228.228 0 0 0-.025-.313.91.91 0 0 1-.231-1.027.925.925 0 0 1 .845-.558l.051.001a.23.23 0 0 0 .242-.202c.037-.31.037-.624.002-.936zm-4.1 1.84c-.76 0-1.378-.617-1.378-1.374 0-.757.618-1.373 1.378-1.373.76 0 1.378.616 1.378 1.373S4.9 5.499 4.14 5.499z"/>
        </g>
    </g>
</svg>
