<svg xmlns="http://www.w3.org/2000/svg" width="51" height="51" viewBox="0 0 51 51">
    <defs>
        <linearGradient id="a" x1="100%" x2="0%" y1="50%" y2="50%">
            <stop offset="0%" stop-color="#5CC5EF"/>
            <stop offset="100%" stop-color="#344390"/>
        </linearGradient>
    </defs>
    <g fill="url(#a)" fill-rule="nonzero" transform="translate(-44 -1082)">
        <path d="M69.377 1089.185a4.546 4.546 0 0 0-4.542 4.541 4.546 4.546 0 0 0 4.542 4.542 4.546 4.546 0 0 0 4.54-4.542 4.546 4.546 0 0 0-4.54-4.54zm0 6.813a2.275 2.275 0 0 1-2.272-2.272 2.275 2.275 0 0 1 2.272-2.271 2.275 2.275 0 0 1 2.271 2.271 2.275 2.275 0 0 1-2.271 2.272z"/>
        <path d="M93.209 1102.804c.627 0 1.134-.504 1.134-1.131v-4.539c0-.4-.21-.77-.555-.975l-22.197-13.182-.03-.018c-1.38-.764-2.936-.788-4.395.016l-22.196 13.184a1.133 1.133 0 0 0-.556.975v4.539c0 .627.508 1.131 1.135 1.131h3.404v20.427a4.543 4.543 0 0 0-4.539 4.538v3.404c0 .628.508 1.135 1.135 1.135h47.66c.627 0 1.134-.507 1.134-1.135v-3.404a4.543 4.543 0 0 0-4.539-4.538v-20.427h3.405zm-1.135 24.965v2.27h-45.39v-2.27a2.272 2.272 0 0 1 2.27-2.27h40.85a2.272 2.272 0 0 1 2.27 2.27zm-40.851-4.539v-20.426h4.539v20.426h-4.54zm6.808 0v-20.426h6.809v20.426H58.03zm9.078 0v-20.426h4.54v20.426h-4.54zm6.809 0v-20.426h6.808v20.426h-6.808zm9.078 0v-20.426h4.539v20.426h-4.54zm-36.312-22.695v-2.758l21.608-12.837c.707-.39 1.458-.388 2.156-.008l21.626 12.845v2.758h-45.39z"/>
    </g>
</svg>
