<svg xmlns="http://www.w3.org/2000/svg" width="1045" height="96" viewBox="0 0 1045 96">
    <g fill="none" fill-rule="evenodd" opacity=".4">
        <path fill="#FFF" d="M.083 20.966l51.163 23.762 69.75-7.61 30.275 17.239 186.38-16.696 20.207-16.695c59.88-3.232 109.954-4.848 150.223-4.848 40.268 0 100.556 1.616 180.863 4.848l12.47 16.695 188.054 16.696 30.324-17.238 66.9 7.61 58.13-23.763-81.45-13.13-26.277 13.13L744.072.023 721.727 10.62C626.82 5.438 555.604 2.809 508.081 2.733c-47.524-.076-110.751 2.337-189.683 7.24l-17.22-9.95-194.88 20.943L75.147 6.43.083 20.966z"/>
        <path stroke="#FFF" d="M37.565 69.187L85.376 94.77c191.102-26.942 336.687-40.412 436.755-40.412 100.068 0 250.923 13.47 452.567 40.412l46.192-25.582"/>
    </g>
</svg>
