<svg xmlns="http://www.w3.org/2000/svg" width="162" height="174" viewBox="0 0 162 174">
    <path fill="#979797" fill-rule="nonzero" d="M161.901 168.035l-8.276 5.724-1.268-8.91 9.544 3.186zM.555.589l1-.006c.004.668.009 1.334.016 1.998l-1 .01A462.15 462.15 0 0 1 .555.59zm.04 4.004l1-.015c.01.668.022 1.334.035 1.998l-1 .02C.617 5.93.606 5.262.596 4.592zm.078 4.013l1-.024c.016.667.033 1.332.052 1.995l-1 .029c-.019-.665-.036-1.331-.052-2zm.114 3.986l.999-.033c.022.666.046 1.33.07 1.991l-.998.038c-.026-.663-.05-1.328-.071-1.996zm.152 4.003l.999-.043c.029.67.059 1.339.091 2.005l-.999.048c-.032-.668-.062-1.338-.091-2.01zm.193 4.016l.998-.053c.036.668.073 1.333.111 1.996l-.998.058c-.039-.665-.076-1.332-.111-2.001zm.232 3.985l.998-.064c.042.664.086 1.326.132 1.985l-.998.07a370.13 370.13 0 0 1-.132-1.991zm.278 4.016l.997-.075c.05.666.1 1.33.154 1.99l-.997.08a355.84 355.84 0 0 1-.154-1.995zm.32 3.98l.996-.085c.057.667.116 1.331.177 1.993l-.996.092c-.06-.664-.12-1.33-.178-2zm.366 3.986l.995-.097c.066.667.133 1.331.202 1.993l-.995.104c-.069-.664-.136-1.33-.202-2zm.416 3.988l.994-.11c.073.667.149 1.33.226 1.99l-.993.117c-.078-.663-.154-1.328-.227-1.997zm.466 3.988l.993-.122c.082.664.165 1.325.251 1.984l-.991.129c-.086-.661-.17-1.325-.253-1.99zm.517 3.966l.99-.136c.091.66.184 1.319.278 1.975l-.99.142c-.094-.658-.187-1.318-.278-1.981zm.574 3.979l.989-.15c.1.662.202 1.322.307 1.978l-.988.157c-.105-.659-.207-1.32-.308-1.985zm.628 3.952l.986-.164c.11.657.221 1.31.334 1.962l-.985.172a265.3 265.3 0 0 1-.335-1.97zm.69 3.959l.984-.18c.12.656.24 1.31.365 1.96l-.983.186c-.124-.652-.246-1.308-.366-1.966zm.748 3.926l.98-.195c.13.654.262 1.304.397 1.952l-.98.203c-.134-.65-.267-1.303-.397-1.96zm.814 3.928l.978-.211c.141.654.285 1.305.43 1.953l-.975.22c-.146-.65-.29-1.305-.433-1.962zm.88 3.907l.974-.229c.152.65.307 1.296.464 1.938l-.972.237c-.157-.645-.312-1.294-.465-1.946zm.953 3.9l.97-.246c.164.647.33 1.29.5 1.931l-.967.255c-.17-.643-.338-1.29-.503-1.94zm1.024 3.874l.964-.265c.177.643.356 1.283.537 1.92l-.961.274c-.183-.64-.363-1.283-.54-1.93zm1.101 3.859l.959-.285c.19.642.383 1.28.578 1.916l-.955.294c-.197-.638-.39-1.28-.582-1.925zm1.182 3.84l.953-.304c.203.635.408 1.266.617 1.893l-.95.315c-.209-.63-.416-1.265-.62-1.904zm1.262 3.802l.945-.325c.217.63.437 1.256.66 1.879l-.943.336c-.223-.626-.444-1.256-.662-1.89zm1.354 3.792l.938-.348c.232.627.467 1.25.705 1.87l-.934.358c-.239-.623-.475-1.25-.71-1.88zm1.439 3.744l.929-.37c.246.618.496 1.233.748 1.843l-.924.382c-.254-.615-.505-1.233-.753-1.855zm1.539 3.724l.92-.394c.262.614.529 1.224.798 1.83l-.914.406c-.27-.61-.539-1.224-.804-1.842zm1.63 3.668l.908-.418c.28.605.561 1.206.846 1.802l-.902.431c-.287-.6-.571-1.206-.852-1.815zm1.717 3.596l.897-.444c.295.598.594 1.19.896 1.779l-.89.457a138.3 138.3 0 0 1-.903-1.792zm1.827 3.561l.883-.47c.314.59.631 1.176.951 1.756l-.875.483c-.323-.585-.643-1.174-.959-1.769zm1.942 3.52l.868-.496c.33.578.664 1.15 1 1.718l-.86.51c-.339-.572-.675-1.15-1.008-1.731zm2.053 3.462l.852-.524c.35.567.702 1.13 1.058 1.688l-.843.538c-.36-.562-.715-1.13-1.067-1.702zm2.16 3.384l.834-.552c.368.556.74 1.106 1.115 1.652l-.825.566c-.378-.55-.753-1.106-1.124-1.666zm2.279 3.315l.814-.58c.386.541.776 1.077 1.169 1.609l-.804.595c-.397-.536-.79-1.077-1.18-1.624zm2.4 3.242l.792-.61a108.4 108.4 0 0 0 1.227 1.565l-.781.624a109.38 109.38 0 0 1-1.238-1.58zm2.508 3.14l.77-.639c.424.513.853 1.02 1.286 1.521l-.758.653c-.436-.506-.87-1.018-1.298-1.535zm2.627 3.047l.744-.668c.444.496.892.986 1.343 1.47l-.731.682c-.456-.49-.908-.984-1.356-1.484zm2.748 2.95l.718-.697c.464.478.93.95 1.402 1.417l-.704.71c-.476-.471-.948-.948-1.416-1.43zm2.854 2.828l.69-.724c.481.458.966.911 1.455 1.358l-.674.738c-.495-.452-.985-.91-1.47-1.372zm2.98 2.725l.66-.752c.5.439 1.003.871 1.51 1.299l-.644.764a98.293 98.293 0 0 1-1.526-1.311zm3.078 2.59l.628-.777c.516.417 1.036.828 1.56 1.233l-.612.791c-.53-.41-1.055-.825-1.576-1.246zm3.186 2.466l.595-.803c.532.394 1.069.783 1.609 1.167l-.579.815a97.285 97.285 0 0 1-1.625-1.179zm3.295 2.338l.561-.827c.548.372 1.1.738 1.656 1.1l-.544.838a97.5 97.5 0 0 1-1.673-1.11zm3.382 2.195l.527-.85c.563.35 1.13.693 1.7 1.031l-.51.86a98.226 98.226 0 0 1-1.717-1.04zm3.467 2.054l.492-.871c.577.326 1.158.646 1.743.961l-.474.88a99.54 99.54 0 0 1-1.76-.97zm3.553 1.913l.456-.89c.59.302 1.183.599 1.78.89l-.438.9c-.603-.295-1.203-.595-1.798-.9zm3.623 1.768l.421-.908c.6.279 1.205.552 1.814.82l-.403.915c-.615-.27-1.225-.546-1.832-.827zm3.693 1.625l.385-.923c.611.256 1.226.506 1.845.75l-.367.93c-.625-.247-1.246-.5-1.863-.757zm3.614 1.432l.351-.936c.62.232 1.242.46 1.869.682l-.334.942c-.633-.224-1.261-.454-1.886-.688zm3.793 1.345l.317-.948c.628.21 1.26.414 1.895.614l-.3.954c-.641-.202-1.278-.408-1.912-.62zm3.842 1.209l.283-.96c.635.188 1.273.37 1.915.548l-.267.964c-.647-.18-1.291-.363-1.931-.552zm3.872 1.072l.25-.968c.641.166 1.285.327 1.933.483l-.235.972c-.653-.158-1.302-.32-1.948-.487zm3.914.944l.219-.975c.645.144 1.294.284 1.946.42l-.203.979c-.657-.137-1.311-.278-1.962-.424zm3.923.815l.188-.982c.65.125 1.304.245 1.96.36l-.173.985c-.661-.116-1.32-.237-1.975-.363zm3.958.696l.158-.987c.654.105 1.31.205 1.97.301l-.145.99a138.26 138.26 0 0 1-1.983-.304zm3.99.582l.13-.992a143.6 143.6 0 0 0 1.976.245l-.116.994c-.666-.078-1.33-.16-1.99-.247zm3.988.467l.103-.995c.658.068 1.32.132 1.984.192l-.09.996a151.69 151.69 0 0 1-1.997-.193zm3.998.36l.076-.998c.66.051 1.324.098 1.99.14l-.064.999c-.67-.043-1.338-.09-2.002-.142zm4.004.257l.052-.999c.66.034 1.325.065 1.991.091l-.04 1a166.75 166.75 0 0 1-2.003-.092zm4.007.16l.028-1a173.4 173.4 0 0 0 1.995.044l-.017 1c-.671-.011-1.34-.026-2.006-.045zm4.024.066l.005-1c.663.003 1.328.003 1.996 0l.005 1c-.671.003-1.34.003-2.006 0zm4.021-.023l-.016-1c.662-.01 1.326-.025 1.993-.043l.027 1c-.67.017-1.338.032-2.004.043zm3.998-.108l-.037-.999a200.35 200.35 0 0 0 1.993-.084l.047 1c-.67.03-1.338.059-2.003.083zm4.023-.189l-.057-.998a210.05 210.05 0 0 0 1.992-.123l.066.998c-.67.044-1.337.085-2.001.123zm3.993-.265l-.076-.997c.661-.05 1.324-.103 1.99-.16l.084.997c-.668.057-1.334.11-1.998.16zm4.014-.34l-.093-.996c.66-.062 1.321-.127 1.986-.195l.102.995c-.667.068-1.332.134-1.995.196zm3.978-.408l-.11-.994c.659-.073 1.32-.15 1.983-.228l.118.993c-.665.079-1.33.156-1.99.229z"/>
</svg>
