<svg xmlns="http://www.w3.org/2000/svg" width="42" height="51" viewBox="0 0 42 51">
    <defs>
        <linearGradient id="a" x1="100%" x2="0%" y1="50%" y2="50%">
            <stop offset="0%" stop-color="#5CC5EF"/>
            <stop offset="100%" stop-color="#344390"/>
        </linearGradient>
    </defs>
    <path fill="url(#a)" fill-rule="nonzero" d="M40.762 23.09a2.914 2.914 0 0 0-1.865-1.382V17.4C38.897 7.814 30.71 0 20.65 0 10.59 0 2.405 7.814 2.405 17.401v4.307a2.914 2.914 0 0 0-1.857 1.42 3.898 3.898 0 0 0-.436 1.911v9.476c-.018.661.132 1.316.436 1.903a3.183 3.183 0 0 0 3.035 1.568h1.439a1.856 1.856 0 0 0 1.856 1.745h1.633a1.856 1.856 0 0 0 1.857-1.856v-16.38a1.856 1.856 0 0 0-1.857-1.857h-1.68a1.856 1.856 0 0 0-1.856 1.856v.074h-.751v-4.167c0-8.575 7.35-15.545 16.39-15.545 9.039 0 16.39 6.97 16.39 15.545v4.167h-.752v-.074a1.856 1.856 0 0 0-1.857-1.856h-1.559a1.856 1.856 0 0 0-1.856 1.856V37.94c.022.929.728 1.698 1.652 1.8a6.032 6.032 0 0 1-1.503 3.165c-1.458 1.615-3.833 2.543-7.035 2.784v-.408a1.949 1.949 0 0 0-2.023-1.856h-3.982a1.949 1.949 0 0 0-2.023 1.856v2.784a1.949 1.949 0 0 0 2.023 1.856h4.019a1.949 1.949 0 0 0 2.023-1.856v-.52c3.759-.25 6.598-1.383 8.408-3.378a7.917 7.917 0 0 0 2.033-4.436 1.856 1.856 0 0 0 1.744-1.736h1.439a3.183 3.183 0 0 0 3.035-1.568 3.898 3.898 0 0 0 .436-1.903V25.04a3.898 3.898 0 0 0-.464-1.949zM6.878 36.204V23.387c.01-.108.01-.216 0-.324V21.53l1.56-.046v16.399h-1.56v-1.68zM5.022 23.341V36.13H3.583c-1.076 0-1.327-.455-1.41-.613a2.125 2.125 0 0 1-.205-1.011v-9.467c-.02-.35.047-.702.195-1.02.084-.149.334-.613 1.411-.613l1.448-.065zm17.29 23.295v1.271a.25.25 0 0 1-.204.13h-4.019c-.05.004-.099.004-.148 0v-2.71a.25.25 0 0 1 .185-.056h4.186v1.365zm12.12-23.249v14.497h-1.568v-16.39h1.596l-.028 1.893zm4.697 12.149c-.084.148-.335.612-1.411.612h-1.43V23.425h1.43c1.076 0 1.327.454 1.41.612.15.315.22.663.205 1.012v9.475c.016.35-.054.697-.204 1.012z" transform="translate(.274 .105)"/>
</svg>
