<svg xmlns="http://www.w3.org/2000/svg" width="97" height="126" viewBox="0 0 97 126">
    <g fill="none" fill-rule="evenodd" stroke="#FFF" stroke-width="2" opacity=".61">
        <path d="M46.08 79.71l16.217-17.504h26.838a6 6 0 0 1 6 6v50.45a6 6 0 0 1-6 6H52.08a6 6 0 0 1-6-6V79.711z"/>
        <path d="M50.115 80.509h7.953a6 6 0 0 0 6-6v-9.566"/>
        <path stroke-linecap="round" d="M58.192 103.152h25.694M58.192 108.222h25.694M58.192 113.292h19.26"/>
        <g>
            <path d="M1.524 74.996l9.141-9.867h15.51a3 3 0 0 1 3 3v29.2a3 3 0 0 1-3 3H4.525a3 3 0 0 1-3-3V74.997z"/>
            <path d="M3.799 75.446h1.865a6 6 0 0 0 6-6v-2.774"/>
            <path stroke-linecap="round" d="M8.352 88.209h14.482M8.352 91.067h14.482M8.352 93.924h10.855"/>
        </g>
        <g>
            <path d="M33.492 10.929l9.141-9.867h15.51a3 3 0 0 1 3 3v29.2a3 3 0 0 1-3 3h-21.65a3 3 0 0 1-3-3V10.93z"/>
            <path d="M35.767 11.379h1.865a6 6 0 0 0 6-6V2.605"/>
            <path stroke-linecap="round" d="M40.32 24.142h14.482M40.32 27h14.482M40.32 29.857h10.855"/>
        </g>
    </g>
</svg>
