<svg xmlns="http://www.w3.org/2000/svg" width="110" height="157" viewBox="0 0 110 157">
    <defs>
        <linearGradient id="a" x1="89.923%" x2="0%" y1="5.386%" y2="50%">
            <stop offset="0%" stop-color="#5CC5EF"/>
            <stop offset="100%" stop-color="#344390"/>
        </linearGradient>
        <linearGradient id="b" x1="100%" x2="-16.786%" y1="-18.027%" y2="171.563%">
            <stop offset="0%" stop-color="#16F2FE" stop-opacity="0"/>
            <stop offset="100%" stop-color="#00F2FF"/>
        </linearGradient>
        <linearGradient id="c" x1="70.942%" x2="-16.786%" y1="0%" y2="171.563%">
            <stop offset="0%" stop-color="#16F2FE" stop-opacity="0"/>
            <stop offset="100%" stop-color="#00F2FF"/>
        </linearGradient>
    </defs>
    <g fill="none" fill-rule="evenodd">
        <path fill="#344390" d="M26.074 87.87v-7.262h10.893v7.262M84.171 73.346h25.418v7.262H84.17z"/>
        <path fill="#ABDFF8" d="M105.957 80.608H87.802v67.175a9.078 9.078 0 0 0 18.155 0V80.608z"/>
        <path fill="url(#a)" d="M96.224 124.748a9.078 9.078 0 0 0 9.077-9.078V73.913H87.146v41.757a9.078 9.078 0 0 0 9.078 9.078z" transform="translate(.656 32.113)"/>
        <path fill="#ABDFF8" d="M62.188 149.598v-1.779a7.27 7.27 0 0 0-.885-3.477l-20.901-38.317V87.87H22.459v18.155L1.56 144.342a7.276 7.276 0 0 0-.886 3.477v1.78a7.263 7.263 0 0 0 7.262 7.262h46.99a7.263 7.263 0 0 0 7.262-7.263z"/>
        <path fill="url(#a)" d="M61.728 117.486v-1.78a7.27 7.27 0 0 0-.885-3.476L47.864 88.437h-2.788c-.962 0-1.886.383-2.567 1.064l-1.503 1.503a3.632 3.632 0 0 1-2.568 1.064h-.622a3.632 3.632 0 0 1-2.567-1.064l-1.504-1.503a3.639 3.639 0 0 0-2.569-1.064h-.622c-.963 0-1.887.383-2.567 1.064l-1.504 1.503a3.639 3.639 0 0 1-2.569 1.064h-.622a3.632 3.632 0 0 1-2.568-1.064l-1.503-1.503a3.639 3.639 0 0 0-2.57-1.064h-2.77L.905 112.23a7.276 7.276 0 0 0-.886 3.476v1.78a7.263 7.263 0 0 0 7.262 7.262h47.186a7.263 7.263 0 0 0 7.262-7.262z" transform="translate(.656 32.113)"/>
        <path fill="url(#b)" d="M29.049 110.224a3.631 3.631 0 1 1-7.263 0 3.631 3.631 0 0 1 7.263 0zM41.757 102.961a3.631 3.631 0 1 1-7.262 0 3.631 3.631 0 0 1 7.262 0zM14.524 113.855a3.631 3.631 0 1 1-7.262 0 3.631 3.631 0 0 1 7.262 0z" transform="translate(.656 32.113)"/>
        <path fill="#344390" d="M16.996 93.317h28.16v3.63h-28.16z"/>
        <path fill="url(#c)" d="M39.942 115.67h3.63v3.631h-3.63z" transform="translate(.656 32.113)"/>
        <path fill="url(#b)" d="M36.31 112.039h3.632v3.631H36.31zM32.68 115.67h3.63v3.631h-3.63zM18.155 99.33h3.631v3.631h-3.63z" transform="translate(.656 32.113)"/>
        <g fill="url(#b)" transform="translate(93.249 116.919)">
            <path d="M0 29.049h3.631v3.63H0zM3.631 21.786h3.631v3.632h-3.63zM0 14.524h3.631v3.631H0zM3.631 7.262h3.631v3.631h-3.63zM0 0h3.631v3.631H0z"/>
        </g>
        <path stroke="#FF4900" stroke-linecap="round" stroke-width="2" d="M30.628 77.43v-9.417a4 4 0 0 1 4-4h32.219a4 4 0 0 1 3.998 3.89l.786 28.33a4 4 0 0 1-3.999 4.11h-3.155a4 4 0 0 1-4-3.954l-.73-64.24"/>
        <path stroke="#FFA400" stroke-linecap="round" stroke-width="2" d="M96.986 70.068l-.155-11.82a4 4 0 0 0-4-3.947H56.549a4 4 0 0 0-4 4v13.172a4 4 0 0 1-4 4h-.3a4 4 0 0 1-4-4V49.615"/>
        <g>
            <path fill="#FFA400" fill-rule="nonzero" d="M32.937 44.982h11.29V15.63H26.825l-7.435 7.435v21.917H32.937zm-6.773-25.498v2.92h-2.92l2.92-2.92zm-4.516 5.177h6.774v-6.773h13.547v24.836H21.648V24.661z"/>
            <path fill="#344390" d="M26.794 33.933h.612v3.27c0 .441-.133.787-.398 1.036-.266.25-.62.374-1.06.374-.46 0-.817-.117-1.073-.352-.256-.234-.383-.563-.383-.986h.608c0 .264.073.47.218.618.144.148.354.222.63.222.25 0 .454-.079.61-.237.155-.159.234-.38.236-.666v-3.28zm2.587 2.559c-.522-.15-.902-.335-1.14-.554a1.057 1.057 0 0 1-.357-.81c0-.363.146-.664.436-.902.291-.238.669-.357 1.134-.357.317 0 .6.062.848.184.249.123.441.292.577.508.137.215.205.451.205.707h-.612c0-.28-.089-.499-.266-.658-.178-.16-.429-.24-.752-.24-.3 0-.534.066-.702.199a.66.66 0 0 0-.253.55c0 .188.08.347.24.477.16.13.431.249.815.357.384.108.684.226.9.357.217.13.378.281.482.455.105.173.157.377.157.612 0 .374-.145.673-.437.899-.292.225-.682.337-1.17.337a2.17 2.17 0 0 1-.888-.182 1.494 1.494 0 0 1-.636-.5 1.219 1.219 0 0 1-.224-.72h.612c0 .28.103.5.31.662.206.162.481.242.826.242.321 0 .567-.065.739-.196a.639.639 0 0 0 .256-.536c0-.226-.079-.401-.237-.525-.159-.124-.446-.246-.863-.366zm5.622-.102c0 .453-.076.848-.228 1.185a1.73 1.73 0 0 1-.647.772 1.78 1.78 0 0 1-.977.266c-.363 0-.686-.089-.967-.268a1.77 1.77 0 0 1-.655-.764 2.74 2.74 0 0 1-.24-1.15V36.1c0-.444.078-.836.232-1.177.155-.34.373-.6.655-.782.282-.18.605-.27.969-.27.37 0 .696.089.978.267.282.179.5.438.652.777.152.34.228.734.228 1.185v.291zm-.606-.298c0-.547-.11-.967-.33-1.26-.22-.293-.527-.44-.922-.44-.385 0-.688.147-.909.44-.22.293-.334.699-.34 1.22v.338c0 .531.11.948.334 1.251.223.304.53.455.921.455.393 0 .698-.143.913-.43.216-.286.327-.696.333-1.231v-.343zm4.646 2.458h-.612l-2.325-3.558v3.558h-.612v-4.617h.612l2.331 3.574v-3.574h.606v4.617z"/>
        </g>
        <g>
            <path fill="#FF4900" fill-rule="nonzero" d="M67.508 25.035h9.554V.193H62.335l-6.293 6.293v18.549h11.465zm-5.733-21.58v2.47h-2.471l2.47-2.47zm-3.822 4.382h5.733V2.104H75.15v21.02H57.953V7.837z"/>
            <path fill="#344390" d="M64.504 18.676c-.059.498-.242.882-.552 1.153-.31.27-.72.406-1.233.406-.557 0-1.002-.2-1.338-.599-.335-.398-.502-.932-.502-1.6v-.453c0-.438.078-.823.234-1.155.156-.332.378-.586.665-.764a1.85 1.85 0 0 1 .996-.267c.5 0 .9.14 1.203.419.301.279.477.665.527 1.159h-.624c-.054-.375-.171-.647-.351-.815-.18-.168-.432-.252-.755-.252-.397 0-.708.146-.933.44-.226.293-.338.71-.338 1.251v.456c0 .511.106.917.32 1.22.213.301.512.452.896.452.345 0 .61-.078.794-.235.184-.156.306-.428.367-.816h.624zm2.234-.605c-.532-.153-.92-.341-1.162-.564a1.078 1.078 0 0 1-.364-.826c0-.371.148-.678.445-.92.296-.243.681-.364 1.156-.364.323 0 .611.062.865.187.253.125.45.298.588.518.14.22.209.46.209.721h-.624c0-.285-.09-.508-.272-.671-.181-.163-.437-.244-.766-.244-.307 0-.545.067-.717.202a.674.674 0 0 0-.257.561c0 .192.082.354.244.487.163.132.44.254.831.363.392.11.698.232.919.364.22.133.385.288.491.464.107.177.16.385.16.624a1.1 1.1 0 0 1-.446.917c-.297.23-.695.345-1.193.345-.323 0-.625-.062-.906-.186a1.524 1.524 0 0 1-.648-.51 1.243 1.243 0 0 1-.228-.734h.624c0 .285.105.51.316.675.21.164.49.247.842.247.328 0 .579-.067.753-.2a.651.651 0 0 0 .262-.547c0-.23-.08-.41-.242-.535-.162-.126-.455-.25-.88-.374zm4.1 1.274l1.346-3.883h.679l-1.746 4.708h-.55l-1.743-4.708h.676l1.339 3.883z"/>
        </g>
    </g>
</svg>
