<svg xmlns="http://www.w3.org/2000/svg" width="53" height="91" viewBox="0 0 53 91">
    <defs>
        <linearGradient id="a" x1="100%" x2="0%" y1="50%" y2="50%">
            <stop offset="0%" stop-color="#5CC5EF"/>
            <stop offset="100%" stop-color="#344390"/>
        </linearGradient>
        <linearGradient id="b" x1="113.699%" x2="0%" y1="0%" y2="100%">
            <stop offset="0%" stop-color="#FF4900"/>
            <stop offset="100%" stop-color="#344390"/>
        </linearGradient>
    </defs>
    <g fill="none" fill-rule="evenodd">
        <g fill="url(#a)" transform="translate(-10.75 -4.828)">
            <path d="M58.365 25.793l.125 8.095a2 2 0 0 0 2 1.969h1.34a1.81 1.81 0 0 1 1.524 2.786l-6.523 10.181a2 2 0 0 1-3.356.02l-6.918-10.538a1.581 1.581 0 0 1 1.321-2.45h.918a2 2 0 0 0 2-2.011l-.048-8.005a2 2 0 0 1 1.998-2.012l3.617-.004a2 2 0 0 1 2.002 1.969zM42.976 42.597l.094 6.071a2 2 0 0 0 2 1.97h.784a1.506 1.506 0 0 1 1.268 2.318l-5.147 8.032a2 2 0 0 1-3.356.02l-5.47-8.333a1.315 1.315 0 0 1 1.099-2.037h.425a2 2 0 0 0 2-2.013l-.036-5.982a2 2 0 0 1 1.998-2.012l2.34-.003a2 2 0 0 1 2.001 1.969zM30.594 7.72l.234 15.03a2 2 0 0 0 2 1.97h4.807a2 2 0 0 1 1.684 3.079L27.236 46.656a2 2 0 0 1-3.356.018L11.5 27.817a2 2 0 0 1 1.671-3.097h3.519a2 2 0 0 0 2-2.012L18.6 7.773a2 2 0 0 1 1.997-2.012l7.995-.01a2 2 0 0 1 2.002 1.97z"/>
        </g>
        <path stroke="url(#b)" stroke-linecap="round" stroke-width="2" d="M31.224 79.829v9.305M38.625 73.793v20.81M46.027 76.128v8.353" transform="translate(-10.75 -4.828)"/>
    </g>
</svg>
