<svg xmlns="http://www.w3.org/2000/svg" width="55" height="81" viewBox="0 0 55 81">
    <defs>
        <linearGradient id="a" x1="54.47%" x2="8.89%" y1="36.586%" y2="39.846%">
            <stop offset="0%" stop-color="#3AB9F5"/>
            <stop offset="100%" stop-color="#1773CA"/>
        </linearGradient>
        <linearGradient id="b" x1="100%" x2="17.721%" y1="50%" y2="100%">
            <stop offset="0%" stop-color="#3F99ED"/>
            <stop offset="100%" stop-color="#005DB6"/>
        </linearGradient>
        <linearGradient id="c" x1="56.508%" y1="58.854%" y2="61.673%">
            <stop offset="0%" stop-color="#3F99ED"/>
            <stop offset="100%" stop-color="#005DB6"/>
        </linearGradient>
        <linearGradient id="d" x1="75.936%" x2="0%" y1="18.375%" y2="82.635%">
            <stop offset="0%" stop-color="#3AB9F5"/>
            <stop offset="100%" stop-color="#1773CA"/>
        </linearGradient>
    </defs>
    <g fill="none" fill-rule="evenodd">
        <path fill="url(#a)" d="M18.136 26.524c-.342-2.899-.342-5.14 0-6.723.513-2.375 2.705-4.057 5.083-4.349 2.379-.291 4.642.758 4.642 4.35 0 3.59-7.751 15.942-8.732 20.112-.982 4.169-.982 5.39 0 8.216.654 1.885 4.76 7.634 12.318 17.248l2.546-1.188-6.956-21.944 7.8-22.445-2.533-10.48-14.168-2.13L7.53 13.855l2.306 8.322 1.926 1.717 6.374 2.631z"/>
        <circle cx="44.385" cy="72.114" r="7.924" fill="url(#b)"/>
        <circle cx="46.274" cy="71.344" r="7.924" fill="url(#c)"/>
        <path fill="url(#c)" d="M14.534 24.58l-9.559 7.956C2.331 29.8.781 26.853.325 23.693-.359 18.954 3.041 9.308 11.972 3.391c8.93-5.917 21.352-2.37 26.938 2.621 5.587 4.992 5.619 17.902 1.849 22.783-3.77 4.882-6.82 8-6.82 12.995 0 3.33 2.815 8.48 8.445 15.45l-8.446 6.95c-6.791-7.768-10.903-13.755-12.335-17.96-2.148-6.31 8.691-18.34 9.713-23.5 1.023-5.16 1.023-6.338-.596-8.82-1.62-2.482-5.726-3.755-9.117-2.86-3.39.897-5.462 1.759-7.069 5.342-1.07 2.389-1.07 5.118 0 8.187z"/>
        <path fill="url(#d)" d="M4.91 32.26l2.573 2.097 10.653-7.612-3.565-2.183z"/>
    </g>
</svg>
