<svg xmlns="http://www.w3.org/2000/svg" width="13" height="15" viewBox="0 0 13 15">
    <g fill="none" fill-rule="evenodd">
        <path d="M-1.844-.102h16v16h-16z"/>
        <path fill="#FF7000" d="M12.406 14.898l-12.25-7 1.892-.48z"/>
        <path fill="#FF7000" d="M4.435 6.794l7.971 8.104-9.36-7.747z"/>
        <path fill="#FF4900" d="M.156 7.898l12.25-7-.421 1.537zM11.246 5.139L.156 7.899l11.549-4.434z"/>
        <path fill="#FFA400" d="M12.404.898l.002 14-1.355-1.377zM9.393 11.844L12.404.898 10.272 12.74z"/>
        <path fill="#000" fill-opacity=".33" d="M11.98 2.436l-.089.041.513-1.579-.424 1.538zm-.286 1.036l-.462 1.672-.225.056.543-1.672.144-.056zM11.046 13.521l.014-.117 1.344 1.494-1.358-1.377zm-.776-.786l-.877-.89.064-.222.843.937-.03.175zM2.064 7.43l.095.068-1.996.41 1.901-.479zm1.013-.256l1.389-.35.16.167-1.419.292-.13-.109z"/>
    </g>
</svg>
