<svg xmlns="http://www.w3.org/2000/svg" width="51" height="51" viewBox="0 0 51 51">
    <defs>
        <linearGradient id="a" x1="100%" x2="0%" y1="50%" y2="50%">
            <stop offset="0%" stop-color="#5CC5EF"/>
            <stop offset="100%" stop-color="#344390"/>
        </linearGradient>
    </defs>
    <g fill="url(#a)" fill-rule="evenodd" transform="translate(-183 -1083)">
        <path fill-rule="nonzero" d="M202.159 1094.118c0 5.922 4.817 10.74 10.739 10.74 5.921 0 10.739-4.818 10.739-10.74 0-5.922-4.818-10.74-10.74-10.74-5.92 0-10.738 4.818-10.738 10.74zm19.526 0c0 4.845-3.942 8.787-8.787 8.787-4.845 0-8.787-3.942-8.787-8.787 0-4.845 3.942-8.786 8.787-8.786 4.845 0 8.787 3.941 8.787 8.786zM195.05 1133.09a.976.976 0 0 0 1.377.008l4.734-4.663a2.95 2.95 0 0 0 .695-3.03l1.018-.981a2.911 2.911 0 0 1 2.033-.822h12.979a8.741 8.741 0 0 0 6.128-2.49c.068-.066-.515.621 8.855-10.577a3.91 3.91 0 0 0-.464-5.504 3.915 3.915 0 0 0-5.479.435l-5.761 5.922a3.924 3.924 0 0 0-3.035-1.454h-10.887a12.595 12.595 0 0 0-4.889-.976c-4.701 0-8.806 2.171-11.01 6.242a2.916 2.916 0 0 0-2.61.81l-4.645 4.658a.976.976 0 0 0-.001 1.377l10.962 11.045zm7.304-22.18c1.495 0 2.94.301 4.298.895a.975.975 0 0 0 .391.082h11.087c1.058 0 1.952.863 1.952 1.952a1.955 1.955 0 0 1-1.952 1.953h-7.966a.976.976 0 0 0 0 1.952h7.966a3.91 3.91 0 0 0 3.87-4.415c5.573-5.729 6.36-6.534 6.393-6.574a1.96 1.96 0 0 1 2.752-.232c.823.695.927 1.93.23 2.755l-8.757 10.469a6.798 6.798 0 0 1-4.732 1.903h-12.98a4.854 4.854 0 0 0-3.388 1.369l-.83.8-7.648-7.648c1.787-3.353 5.141-5.26 9.314-5.26zm-12.239 6.48a.974.974 0 0 1 1.21-.138c.168.103-.317-.339 8.455 8.421.39.39.37 1.012.006 1.376l-4.036 3.975-9.592-9.666 3.957-3.969z"/>
        <path d="M211.726 1088.26v1.145a2.933 2.933 0 0 0-1.952 2.76 2.932 2.932 0 0 0 2.929 2.93.977.977 0 0 1 0 1.952c-.417 0-.868-.262-1.268-.739a.977.977 0 0 0-1.495 1.257c.522.62 1.136 1.053 1.786 1.271v1.14a.976.976 0 1 0 1.953 0v-1.144a2.934 2.934 0 0 0 1.952-2.761 2.932 2.932 0 0 0-2.928-2.93.977.977 0 0 1 0-1.952c.345 0 .71.177 1.055.51a.977.977 0 0 0 1.358-1.403c-.495-.479-.991-.75-1.437-.898v-1.137a.976.976 0 1 0-1.953 0z"/>
    </g>
</svg>
