<svg xmlns="http://www.w3.org/2000/svg" width="139" height="140" viewBox="0 0 139 140">
    <g fill="none" fill-rule="evenodd">
        <path fill="#B5B5B5" d="M113.16 102.646L25.106 51.392l13.597-3.522z"/>
        <path fill="#B5B5B5" d="M55.862 43.304l57.297 59.342-67.285-56.724z"/>
        <path fill="#818181" d="M25.108 51.392L113.158.14l-3.03 11.25zM104.819 31.188L25.108 51.392l83.008-32.46z"/>
        <path fill="#EFEFEF" d="M113.145.139l.014 102.507-9.74-10.089z"/>
        <path fill="#EFEFEF" d="M91.5 80.28L113.145.14 97.817 86.836z"/>
        <path fill="#000" fill-opacity=".33" d="M110.094 11.394l-.635.306L113.145.139l-3.051 11.255zm-2.058 7.589L104.72 31.22l-1.616.412 3.902-12.24 1.031-.41zM103.382 92.557l.09-.777 9.673 10.866-9.763-10.09zm-5.573-5.76L91.5 80.279l.395-1.506 6.11 6.864-.196 1.162zM38.758 47.908l.747.552-14.352 3 13.605-3.552zm7.252-1.893l10.044-2.623 1.187 1.36-10.203 2.133-1.028-.87z"/>
        <g fill="#EFEFEF">
            <path d="M5.494 124.508H.497v-16.842h4.516c1.81 0 3.192.496 4.145 1.49.953.993 1.43 2.314 1.43 3.964v6.583c0 3.203-1.699 4.805-5.094 4.805zm3.363-4.565v-7.064c0-1.2-.348-2.094-1.045-2.678-.696-.585-1.55-.877-2.558-.877H2.226v13.622H5.11c1.778 0 2.916-.473 3.412-1.418.224-.416.336-.944.336-1.585zM26.25 112.35v7.713c0 1.618-.493 2.807-1.478 3.568-.985.76-2.166 1.14-3.544 1.14-1.377 0-2.566-.38-3.568-1.14-1-.761-1.501-1.95-1.501-3.568v-7.736c0-1.65.452-2.9 1.357-3.748.905-.849 2.15-1.273 3.736-1.273 1.586 0 2.815.448 3.688 1.345.873.897 1.31 2.13 1.31 3.7zm-1.73 7.52v-7.423c0-1.105-.285-1.946-.853-2.523-.569-.576-1.39-.865-2.463-.865-2.21 0-3.315 1.13-3.315 3.388v7.472c0 1.025.304 1.806.913 2.342.608.537 1.41.805 2.402.805.993 0 1.794-.268 2.403-.805.608-.536.913-1.333.913-2.39zM33.335 120.063c0 2.002 1.097 3.003 3.291 3.003h3.106v1.681h-3.346c-.256 0-.645-.023-1.165-.071-.52-.048-1.073-.228-1.658-.54-.585-.313-1.057-.81-1.418-1.49-.36-.681-.54-1.526-.54-2.535v-7.712c0-1.217.172-2.138.516-2.763.345-.625.87-1.153 1.574-1.586.72-.4 1.578-.6 2.57-.6.823 0 1.979.008 3.467.024v1.657h-2.866c-.672 0-1.237.069-1.693.205-.457.136-.877.448-1.262.937-.384.488-.576 1.125-.576 1.91v7.88zM51.736 124.508h-9.553l6.862-10.523c.56-.897.84-1.682.84-2.355 0-.785-.247-1.397-.744-1.838-.496-.44-1.045-.66-1.646-.66H44.18v-1.658c1.573-.016 2.722-.024 3.449-.024 1.089 0 2.018.344 2.786 1.033.833.753 1.25 1.674 1.25 2.763s-.353 2.226-1.057 3.411l-5.454 8.24h6.583v1.61zM61.272 124.508h-4.998v-16.842h4.517c1.81 0 3.192.496 4.145 1.49.953.993 1.429 2.314 1.429 3.964v6.583c0 3.203-1.698 4.805-5.093 4.805zm3.363-4.565v-7.064c0-1.2-.348-2.094-1.045-2.678-.697-.585-1.55-.877-2.559-.877h-3.027v13.622h2.883c1.778 0 2.915-.473 3.412-1.418.224-.416.336-.944.336-1.585zM75.276 124.508h-1.73v-15.184l-1.585-.048v-1.586h3.315zM90.746 124.508h-1.725l-.005-.745c-.768.657-1.825.985-3.17.985-1.346 0-2.512-.4-3.497-1.201-.985-.801-1.477-1.994-1.477-3.58v-7.544c0-2.05.697-3.5 2.09-4.349.72-.4 1.578-.6 2.57-.6h3.412v1.657h-2.979c-2.242 0-3.363 1.026-3.363 3.076v7.808c0 .977.304 1.726.913 2.246.608.52 1.393.781 2.354.781.961 0 1.734-.264 2.319-.793.584-.528.876-1.265.876-2.21v-1.057h-2.09V117.3h3.772v7.208zM99.249 124.508h-1.73v-15.184l-1.585-.048v-1.586h3.315zM108.905 124.508h-1.73v-15.184h-3.892v-1.634h9.658v1.634h-4.036zM125.384 124.508h-1.946l-1.658-5.43h-4.997l-1.586 5.43h-1.874l5.946-16.818 6.115 16.818zm-4.036-7.208l-2.09-5.384-2.018 5.384h4.108zM138.355 124.508h-8.673V107.69h1.73v15.256h6.943z"/>
        </g>
        <g fill="#EFEFEF">
            <path d="M100.185 131.974h.748v.695h.019c.204-.259.443-.46.714-.603.272-.143.57-.215.897-.215.351 0 .672.063.963.19.291.125.539.3.743.526.205.225.365.49.48.798.115.306.172.64.172 1.002 0 .361-.057.695-.172 1.002a2.497 2.497 0 0 1-.475.798c-.201.225-.44.4-.714.527a2.09 2.09 0 0 1-.882.189c-.403 0-.756-.094-1.06-.282a1.77 1.77 0 0 1-.666-.69h-.02v3.18h-.747v-7.117zm.748 2.393c0 .252.036.486.11.7.073.215.18.403.321.563.14.16.309.286.504.378.195.092.413.138.656.138.243 0 .462-.046.657-.138.195-.092.363-.218.503-.378.141-.16.248-.348.322-.563a2.15 2.15 0 0 0 .11-.7 2.15 2.15 0 0 0-.11-.7 1.655 1.655 0 0 0-.322-.563 1.533 1.533 0 0 0-.503-.379 1.52 1.52 0 0 0-.657-.138 1.52 1.52 0 0 0-.656.138 1.533 1.533 0 0 0-.504.379c-.14.16-.248.347-.321.562a2.15 2.15 0 0 0-.11.7zM107.141 133.109a9.21 9.21 0 0 0-.019-.614 7.863 7.863 0 0 1-.02-.521h.71c0 .13.004.259.01.388.006.13.01.263.01.4h.019c.05-.117.123-.23.215-.338.093-.11.203-.207.331-.292a1.716 1.716 0 0 1 .95-.281c.05 0 .102.003.153.01a.64.64 0 0 1 .153.041l-.048.808a1.313 1.313 0 0 0-.402-.061c-.46 0-.795.158-1.002.475-.208.317-.312.752-.312 1.304v2.332h-.748v-3.651zM111.144 134.367c0-.375.061-.716.183-1.023.121-.307.287-.57.498-.793.211-.221.464-.393.758-.516s.613-.184.958-.184c.346 0 .665.061.96.184.293.123.546.295.757.516.21.222.377.486.498.793.122.307.182.648.182 1.023 0 .375-.06.716-.182 1.023a2.435 2.435 0 0 1-.498.792c-.211.222-.464.394-.758.517a2.464 2.464 0 0 1-.959.184c-.345 0-.664-.062-.958-.184a2.204 2.204 0 0 1-.758-.517 2.435 2.435 0 0 1-.498-.792 2.757 2.757 0 0 1-.183-1.023zm.806 0c0 .252.037.486.11.7.074.215.18.403.321.563.14.16.309.286.504.378.195.092.414.138.656.138.243 0 .462-.046.657-.138.195-.092.363-.218.504-.378.14-.16.247-.348.32-.563a2.15 2.15 0 0 0 .111-.7 2.15 2.15 0 0 0-.11-.7 1.655 1.655 0 0 0-.321-.563 1.533 1.533 0 0 0-.504-.379 1.52 1.52 0 0 0-.657-.138 1.52 1.52 0 0 0-.656.138 1.533 1.533 0 0 0-.504.379c-.14.16-.247.347-.32.562a2.15 2.15 0 0 0-.111.7zM121.351 133.17a1.537 1.537 0 0 0-.518-.445 1.36 1.36 0 0 0-.613-.138c-.25 0-.47.046-.662.138-.192.092-.35.22-.474.384a1.751 1.751 0 0 0-.283.567 2.409 2.409 0 0 0-.096.69c0 .246.037.476.11.691.074.215.176.404.307.568.131.163.29.291.475.383.185.092.393.138.623.138.492 0 .872-.197 1.14-.593l.557.563c-.217.266-.473.46-.767.583a2.39 2.39 0 0 1-.93.184c-.345 0-.662-.062-.95-.184a2.05 2.05 0 0 1-.733-.522 2.43 2.43 0 0 1-.47-.798 2.936 2.936 0 0 1-.168-1.012c0-.362.056-.696.168-1.002.112-.307.27-.573.475-.798.204-.225.449-.4.733-.527.285-.126.6-.19.945-.19.332 0 .647.062.944.185.297.123.558.314.782.573l-.595.562zM127.847 135.89c-.268.369-.562.626-.882.773-.32.146-.69.22-1.112.22a2.145 2.145 0 0 1-1.664-.736 2.39 2.39 0 0 1-.45-.798 3 3 0 0 1-.158-.982c0-.368.057-.708.172-1.018.115-.31.275-.576.48-.798a2.15 2.15 0 0 1 .728-.516c.282-.123.588-.184.92-.184.314 0 .602.056.864.169.262.112.487.276.676.49.188.215.334.478.436.788.102.31.153.663.153 1.059v.255h-3.624a1.77 1.77 0 0 0 .45 1.08c.128.139.279.25.451.332.173.081.361.122.566.122.326 0 .6-.061.825-.184.223-.122.425-.303.604-.542l.565.47zm-.642-1.953c-.013-.409-.138-.736-.374-.982-.237-.245-.563-.368-.978-.368-.416 0-.751.123-1.007.368-.255.246-.409.573-.46.982h2.819zM130.326 135.502c.147.198.308.355.484.47.176.116.398.174.667.174.115 0 .231-.013.35-.04.118-.028.225-.072.32-.134a.732.732 0 0 0 .23-.23.615.615 0 0 0 .087-.332.563.563 0 0 0-.081-.317.732.732 0 0 0-.216-.21 1.175 1.175 0 0 0-.307-.138 5.458 5.458 0 0 0-.355-.092 7.184 7.184 0 0 1-.604-.163 1.91 1.91 0 0 1-.503-.24 1.104 1.104 0 0 1-.345-.384c-.087-.157-.13-.358-.13-.604a1.27 1.27 0 0 1 .528-1.053c.16-.116.338-.205.537-.266a2.062 2.062 0 0 1 1.5.112c.272.137.484.358.638.665l-.624.44a1.203 1.203 0 0 0-.378-.414.996.996 0 0 0-.57-.159c-.103 0-.207.014-.312.041a.94.94 0 0 0-.283.123.694.694 0 0 0-.206.21.53.53 0 0 0-.082.291c0 .102.03.19.091.26.061.072.144.136.25.19.105.055.226.102.364.143.137.041.28.075.427.102.198.041.386.094.565.159.18.065.336.152.47.26.134.11.24.246.316.41.077.164.116.365.116.603 0 .273-.052.505-.154.696-.102.19-.238.346-.407.465a1.73 1.73 0 0 1-.576.26 2.65 2.65 0 0 1-.656.083c-.384 0-.715-.063-.993-.19-.278-.126-.529-.36-.752-.7l.594-.491zM135.47 135.502c.147.198.309.355.484.47.176.116.398.174.667.174.115 0 .232-.013.35-.04.118-.028.225-.072.321-.134a.732.732 0 0 0 .23-.23.615.615 0 0 0 .086-.332.563.563 0 0 0-.081-.317.732.732 0 0 0-.216-.21 1.175 1.175 0 0 0-.307-.138 5.458 5.458 0 0 0-.354-.092 7.184 7.184 0 0 1-.604-.163 1.91 1.91 0 0 1-.504-.24 1.104 1.104 0 0 1-.345-.384c-.086-.157-.13-.358-.13-.604a1.27 1.27 0 0 1 .528-1.053c.16-.116.339-.205.537-.266a2.062 2.062 0 0 1 1.5.112c.272.137.485.358.638.665l-.623.44a1.203 1.203 0 0 0-.379-.414.996.996 0 0 0-.57-.159c-.103 0-.207.014-.312.041a.94.94 0 0 0-.283.123.694.694 0 0 0-.206.21.53.53 0 0 0-.082.291c0 .102.03.19.091.26.061.072.144.136.25.19.105.055.227.102.364.143.138.041.28.075.427.102.198.041.387.094.565.159.18.065.336.152.47.26.135.11.24.246.317.41.076.164.115.365.115.603 0 .273-.051.505-.154.696-.102.19-.238.346-.407.465a1.73 1.73 0 0 1-.575.26 2.65 2.65 0 0 1-.657.083c-.384 0-.715-.063-.993-.19-.278-.126-.528-.36-.752-.7l.594-.491zM3.948 133.16a1.537 1.537 0 0 0-.517-.445 1.36 1.36 0 0 0-.614-.138c-.25 0-.47.046-.662.138-.191.092-.35.22-.474.383a1.751 1.751 0 0 0-.283.568 2.409 2.409 0 0 0-.096.69c0 .246.037.476.11.69.074.215.176.404.307.568.131.164.29.292.475.384.185.092.393.138.623.138.492 0 .872-.198 1.14-.594l.557.563c-.217.266-.473.46-.767.583a2.39 2.39 0 0 1-.93.184c-.345 0-.662-.061-.95-.184a2.05 2.05 0 0 1-.733-.522 2.43 2.43 0 0 1-.47-.797 2.936 2.936 0 0 1-.167-1.013c0-.361.056-.695.167-1.002.112-.307.27-.573.475-.798.205-.225.45-.4.734-.527.284-.126.599-.189.944-.189.332 0 .647.062.944.184.298.123.558.314.782.573l-.595.563zM6.38 132.577c.23-.253.502-.438.819-.558.316-.12.637-.179.963-.179.665 0 1.145.167 1.439.501.294.334.44.842.44 1.524v2.056a6.014 6.014 0 0 0 .067.828H9.39c-.026-.109-.04-.23-.043-.363-.004-.133-.005-.25-.005-.353h-.02a1.811 1.811 0 0 1-.589.604c-.246.157-.542.235-.887.235-.23 0-.446-.03-.647-.092a1.577 1.577 0 0 1-.527-.271 1.32 1.32 0 0 1-.36-.445 1.344 1.344 0 0 1-.134-.614c0-.395.096-.705.287-.93.192-.225.43-.392.715-.501.284-.11.591-.178.92-.205.33-.027.631-.04.906-.04h.288v-.144c0-.348-.098-.61-.293-.787-.195-.178-.468-.266-.82-.266-.242 0-.48.042-.714.127-.233.086-.44.217-.618.394l-.47-.521zm2.166 1.871c-.48 0-.86.072-1.141.215-.281.143-.422.378-.422.706 0 .3.094.513.283.639.189.126.423.189.705.189.217 0 .407-.04.57-.118.163-.078.299-.182.408-.312.108-.13.191-.28.249-.455.058-.173.09-.36.096-.557v-.307h-.748zM12.434 131.963h.748v.695h.02c.204-.259.442-.46.714-.603.271-.143.57-.215.896-.215.352 0 .673.063.964.19.29.126.538.301.743.526.204.225.364.491.48.798.114.307.172.64.172 1.002 0 .361-.058.696-.173 1.002a2.497 2.497 0 0 1-.475.798c-.2.225-.439.4-.714.527a2.09 2.09 0 0 1-.882.189c-.403 0-.756-.094-1.06-.281a1.77 1.77 0 0 1-.666-.69h-.019v3.18h-.748v-7.118zm.748 2.393c0 .252.037.486.11.7.074.215.18.403.322.563.14.16.308.287.503.379.195.092.414.138.657.138.243 0 .461-.046.656-.138.195-.092.363-.219.504-.379.14-.16.248-.348.321-.562a2.15 2.15 0 0 0 .11-.7 2.15 2.15 0 0 0-.11-.701 1.655 1.655 0 0 0-.321-.563 1.533 1.533 0 0 0-.504-.378 1.52 1.52 0 0 0-.656-.138 1.52 1.52 0 0 0-.657.138 1.533 1.533 0 0 0-.503.378c-.141.16-.248.348-.322.563a2.15 2.15 0 0 0-.11.7zM21.845 132.638h-1.323v2.393c0 .157.003.302.01.435a.95.95 0 0 0 .076.348.539.539 0 0 0 .202.235c.09.058.217.087.383.087a1.453 1.453 0 0 0 .662-.164l.028.726c-.127.062-.27.106-.426.133-.157.027-.305.041-.446.041-.269 0-.483-.037-.642-.112a.885.885 0 0 1-.374-.318 1.23 1.23 0 0 1-.178-.506 4.756 4.756 0 0 1-.043-.67v-2.628h-.978v-.675h.978v-1.36h.748v1.36h1.323v.675zM27.737 135.614c0 .218.007.423.02.614.012.19.019.364.019.521h-.71c0-.13-.003-.259-.01-.388a8.096 8.096 0 0 1-.01-.4h-.018a1.389 1.389 0 0 1-.216.338c-.093.11-.203.207-.33.292a1.716 1.716 0 0 1-.95.281c-.294 0-.548-.048-.762-.143a1.435 1.435 0 0 1-.532-.399 1.651 1.651 0 0 1-.312-.619 2.959 2.959 0 0 1-.1-.792v-2.956h.747v2.874c0 .402.083.72.25.95.166.233.424.349.776.349.243 0 .452-.045.628-.133.176-.089.32-.215.432-.379.111-.163.194-.358.249-.583.054-.225.081-.474.081-.746v-2.332h.748v3.651zM30.216 133.098a9.21 9.21 0 0 0-.02-.613 7.863 7.863 0 0 1-.018-.522h.71c0 .13.002.26.009.389.006.13.01.262.01.398h.018c.052-.115.123-.228.216-.337.093-.11.203-.206.33-.292a1.716 1.716 0 0 1 .95-.28c.051 0 .102.003.154.01a.64.64 0 0 1 .153.04l-.048.808a1.313 1.313 0 0 0-.403-.061c-.46 0-.794.158-1.002.476-.207.317-.311.751-.311 1.303v2.332h-.748v-3.65zM38.658 135.88c-.268.368-.562.626-.882.772-.32.147-.69.22-1.112.22a2.145 2.145 0 0 1-1.664-.736 2.39 2.39 0 0 1-.45-.798 3 3 0 0 1-.158-.982c0-.368.057-.707.172-1.017.115-.31.275-.577.48-.798a2.15 2.15 0 0 1 .728-.517c.282-.122.588-.184.92-.184.314 0 .602.056.864.169.262.112.487.276.676.49.188.216.334.478.436.788.102.31.153.663.153 1.059v.256h-3.624a1.77 1.77 0 0 0 .45 1.079c.129.14.279.25.451.332.173.082.362.123.566.123.326 0 .601-.062.825-.184.223-.123.425-.304.604-.542l.565.47zm-.642-1.953c-.013-.41-.137-.737-.374-.982-.236-.246-.562-.368-.978-.368-.415 0-.751.122-1.007.368-.255.245-.409.573-.46.982h2.819zM41.544 133.785h1.092v1.165h-1.092zM43.728 133.785h1.092v1.165h-1.092zM93.963 133.785h1.092v1.165h-1.092zM96.147 133.785h1.092v1.165h-1.092zM46.718 135.491c.147.198.308.355.484.47.176.117.398.175.666.175.115 0 .232-.014.35-.041.118-.028.226-.072.321-.133a.732.732 0 0 0 .23-.23.615.615 0 0 0 .087-.333.563.563 0 0 0-.082-.317.732.732 0 0 0-.215-.21 1.175 1.175 0 0 0-.307-.137 5.458 5.458 0 0 0-.355-.093 7.184 7.184 0 0 1-.604-.163 1.91 1.91 0 0 1-.503-.24 1.104 1.104 0 0 1-.346-.384c-.086-.157-.129-.358-.129-.603a1.27 1.27 0 0 1 .527-1.054c.16-.116.34-.204.537-.266a2.062 2.062 0 0 1 1.5.113c.272.136.485.358.638.665l-.623.44a1.203 1.203 0 0 0-.379-.415.996.996 0 0 0-.57-.158c-.102 0-.206.013-.312.04a.94.94 0 0 0-.282.123.694.694 0 0 0-.207.21.53.53 0 0 0-.081.291c0 .103.03.19.091.261.06.072.144.135.25.19.105.054.226.102.364.143.137.04.28.075.426.102.198.04.387.094.566.158.179.065.336.152.47.261.134.11.24.246.316.41.077.163.115.364.115.603 0 .272-.05.504-.153.695-.102.191-.238.346-.408.465a1.73 1.73 0 0 1-.575.261 2.65 2.65 0 0 1-.657.082c-.383 0-.714-.063-.992-.19-.278-.125-.529-.359-.753-.7l.595-.49zM54.22 132.638h-1.323v2.393c0 .157.004.302.01.435a.95.95 0 0 0 .077.348.539.539 0 0 0 .201.235c.09.058.217.087.384.087a1.453 1.453 0 0 0 .661-.164l.029.726c-.128.062-.27.106-.427.133-.156.027-.305.041-.446.041-.268 0-.482-.037-.642-.112a.885.885 0 0 1-.374-.318 1.23 1.23 0 0 1-.177-.506 4.756 4.756 0 0 1-.043-.67v-2.628h-.978v-.675h.978v-1.36h.747v1.36h1.324v.675zM56.2 133.098a9.21 9.21 0 0 0-.018-.613 7.863 7.863 0 0 1-.02-.522h.71c0 .13.003.26.01.389.006.13.01.262.01.398h.018c.051-.115.123-.228.216-.337.093-.11.203-.206.33-.292a1.716 1.716 0 0 1 .95-.28c.051 0 .102.003.153.01a.64.64 0 0 1 .154.04l-.048.808a1.313 1.313 0 0 0-.403-.061c-.46 0-.794.158-1.002.476-.208.317-.311.751-.311 1.303v2.332H56.2v-3.65zM64.547 135.614c0 .218.007.423.02.614.012.19.019.364.019.521h-.71c0-.13-.003-.259-.01-.388a8.096 8.096 0 0 1-.009-.4h-.02a1.389 1.389 0 0 1-.215.338c-.093.11-.203.207-.33.292a1.716 1.716 0 0 1-.95.281c-.294 0-.548-.048-.762-.143a1.435 1.435 0 0 1-.532-.399 1.651 1.651 0 0 1-.312-.619 2.959 2.959 0 0 1-.1-.792v-2.956h.747v2.874c0 .402.083.72.25.95.166.233.425.349.776.349.243 0 .452-.045.628-.133.176-.089.32-.215.432-.379.112-.163.195-.358.249-.583.054-.225.081-.474.081-.746v-2.332h.748v3.651zM70.219 133.16a1.537 1.537 0 0 0-.518-.445 1.36 1.36 0 0 0-.613-.138c-.25 0-.47.046-.662.138-.192.092-.35.22-.475.383a1.751 1.751 0 0 0-.282.568 2.409 2.409 0 0 0-.096.69c0 .246.036.476.11.69.073.215.176.404.307.568.13.164.289.292.474.384.186.092.393.138.624.138.492 0 .872-.198 1.14-.594l.557.563c-.218.266-.473.46-.767.583a2.39 2.39 0 0 1-.93.184c-.346 0-.662-.061-.95-.184a2.05 2.05 0 0 1-.733-.522 2.43 2.43 0 0 1-.47-.797 2.936 2.936 0 0 1-.168-1.013c0-.361.056-.695.168-1.002.112-.307.27-.573.475-.798.204-.225.449-.4.733-.527.285-.126.6-.189.945-.189.332 0 .647.062.944.184.297.123.558.314.781.573l-.594.563zM75.162 132.638h-1.323v2.393c0 .157.003.302.01.435a.95.95 0 0 0 .076.348.539.539 0 0 0 .201.235c.09.058.218.087.384.087a1.453 1.453 0 0 0 .661-.164l.03.726c-.129.062-.27.106-.428.133-.156.027-.305.041-.445.041-.269 0-.483-.037-.643-.112a.885.885 0 0 1-.374-.318 1.23 1.23 0 0 1-.177-.506 4.756 4.756 0 0 1-.043-.67v-2.628h-.978v-.675h.978v-1.36h.748v1.36h1.323v.675zM81.054 135.614c0 .218.006.423.019.614.013.19.02.364.02.521h-.71c0-.13-.003-.259-.01-.388a8.096 8.096 0 0 1-.01-.4h-.019a1.389 1.389 0 0 1-.215.338c-.093.11-.203.207-.331.292a1.716 1.716 0 0 1-.95.281c-.293 0-.547-.048-.762-.143a1.435 1.435 0 0 1-.532-.399 1.651 1.651 0 0 1-.311-.619 2.959 2.959 0 0 1-.101-.792v-2.956h.748v2.874c0 .402.083.72.25.95.165.233.424.349.776.349.243 0 .452-.045.628-.133.176-.089.32-.215.431-.379.112-.163.195-.358.25-.583.054-.225.081-.474.081-.746v-2.332h.748v3.651zM83.533 133.098a9.21 9.21 0 0 0-.02-.613 7.863 7.863 0 0 1-.019-.522h.71c0 .13.003.26.01.389.006.13.009.262.009.398h.02c.05-.115.122-.228.215-.337.093-.11.203-.206.33-.292a1.716 1.716 0 0 1 .95-.28c.051 0 .102.003.153.01a.64.64 0 0 1 .154.04l-.048.808a1.313 1.313 0 0 0-.403-.061c-.46 0-.794.158-1.002.476-.208.317-.312.751-.312 1.303v2.332h-.747v-3.65zM91.975 135.88c-.268.368-.562.626-.882.772-.32.147-.69.22-1.112.22a2.145 2.145 0 0 1-1.664-.736 2.39 2.39 0 0 1-.45-.798 3 3 0 0 1-.159-.982c0-.368.058-.707.173-1.017.115-.31.275-.577.48-.798a2.15 2.15 0 0 1 .728-.517c.281-.122.588-.184.92-.184.314 0 .601.056.863.169.263.112.488.276.676.49.189.216.334.478.437.788.102.31.153.663.153 1.059v.256h-3.624a1.77 1.77 0 0 0 .45 1.079c.128.14.279.25.451.332.173.082.361.123.566.123.326 0 .6-.062.824-.184.224-.123.425-.304.604-.542l.566.47zm-.642-1.953c-.013-.41-.138-.737-.374-.982-.237-.246-.563-.368-.978-.368-.416 0-.751.122-1.007.368-.256.245-.409.573-.46.982h2.819z"/>
        </g>
    </g>
</svg>
