<svg xmlns="http://www.w3.org/2000/svg" width="50" height="51" viewBox="0 0 50 51">
    <defs>
        <linearGradient id="a" x1="100%" x2="0%" y1="50%" y2="50%">
            <stop offset="0%" stop-color="#5CC5EF"/>
            <stop offset="100%" stop-color="#344390"/>
        </linearGradient>
    </defs>
    <g fill="url(#a)" fill-rule="evenodd" transform="translate(-987 -1082)">
        <path fill-rule="nonzero" d="M1012.269 1082.413l-24.564 20.329 9.303 29.603h30.522l9.303-29.603-24.564-20.33zm16.778 21.663l-8.787-7.073 2.074-4.147 11.836 9.797-5.123 1.423zm-26.705 3.594l3.554 10.366-3.448 5.013-5.816-16.966 5.71 1.587zm9.927-6.989l8.244 6.871-3.473 10.13h-9.544l-3.473-10.13 8.246-6.87zm-5.274 18.63h10.547l3.36 4.888h-17.267l3.36-4.887zm11.647-1.275h-.001l3.554-10.366 5.71-1.585-5.816 16.966-3.447-5.015zm8.473-13.423l-5.688 1.58-4.066-3.389 2.154-4.309 7.6 6.118zm-11.04-2.88l-3.806-3.172-3.806 3.171-2.142-4.283 5.948-4.787 5.947 4.787-2.142 4.283zm-8.898 1.071l-4.067 3.389-5.688-1.58 7.6-6.118 2.155 4.31zm-11.687 1.272l-5.123-1.423 11.837-9.797 2.073 4.147-8.787 7.073zm-.763 1.48l6.572 19.165-3.417 4.971-8.01-25.486 4.855 1.35zm7.788 20.272h19.507l3.36 4.888h-26.227l3.36-4.888zm20.723-1.107l6.572-19.167 4.855-1.349-8.01 25.485-3.417-4.97zm-2.193-32.93l-2.084 4.167-6.692-5.388-6.694 5.388-2.084-4.167 8.778-7.263 8.776 7.263z"/>
        <path d="M1019.147 1102.813l1.001-1.287 2.793 2.173-1 1.287zM1000.763 1103.7l2.793-2.172 1 1.287-2.793 2.173zM1008.105 1097.447l.977 1.303 2.77-2.077 2.77 2.077.977-1.303-3.747-2.81zM1020.039 1118.205l3.258-9.775 1.545.514-3.258 9.775zM998.867 1108.966l1.53-.556 3.26 8.96-1.53.556zM1006.965 1120.907h9.775v1.629h-9.775z"/>
    </g>
</svg>
