<svg xmlns="http://www.w3.org/2000/svg" width="41" height="41" viewBox="0 0 41 41">
    <defs>
        <linearGradient id="a" x1="100%" x2="0%" y1="50%" y2="50%">
            <stop offset="0%" stop-color="#5CC5EF"/>
            <stop offset="100%" stop-color="#344390"/>
        </linearGradient>
    </defs>
    <g fill="url(#a)" fill-rule="evenodd" transform="translate(.83 .586)">
        <path fill-rule="nonzero" d="M20 0C8.972 0 0 8.972 0 20s8.972 20 20 20 20-8.972 20-20S31.027 0 20 0zm0 37.837a17.78 17.78 0 0 1-12.57-5.194 17.934 17.934 0 0 1-3.235-4.381A17.726 17.726 0 0 1 2.162 20c0-9.836 8.002-17.838 17.838-17.838a17.77 17.77 0 0 1 12.099 4.744 17.932 17.932 0 0 1 3.994 5.405A17.73 17.73 0 0 1 37.837 20c0 9.835-8.002 17.837-17.837 17.837z"/>
        <circle cx="13.468" cy="15.54" r="2.162"/>
        <circle cx="26.847" cy="15.54" r="2.162"/>
        <path d="M19.961 31.08c4.183 0 8.192-2.139 10.488-5.69l-1.817-1.174c-2.107 3.261-5.963 5.082-9.823 4.636-3.008-.347-5.79-2.08-7.442-4.636L9.55 25.389c1.999 3.094 5.367 5.19 9.01 5.611.468.054.935.08 1.4.08z"/>
    </g>
</svg>
