<svg xmlns="http://www.w3.org/2000/svg" width="51" height="37" viewBox="0 0 51 37">
    <defs>
        <linearGradient id="a" x1="100%" x2="0%" y1="50%" y2="50%">
            <stop offset="0%" stop-color="#5CC5EF"/>
            <stop offset="100%" stop-color="#344390"/>
        </linearGradient>
    </defs>
    <path fill="url(#a)" fill-rule="nonzero" d="M49.133 17.59h-4.228c1.758-3.991 1.568-7.222.903-9.407-1.14-3.896-4.989-8.124-10.69-8.124-1.52 0-3.04.285-4.607.855-2.708.998-4.513 2.09-5.321 2.66-.808-.57-2.565-1.662-5.32-2.66C18.301.344 16.733.06 15.26.06c-5.7 0-9.548 4.228-10.689 8.124-.665 2.328-.902 5.843 1.33 10.261H.773a.75.75 0 0 0-.76.76c0 .428.332.76.76.76h6.033c.238.428.523.855.855 1.283 4.941 7.126 15.677 14.87 17.625 15.344v.048s.048 0 .095-.048h.143v-.047c1.662-.808 11.971-7.458 17.387-15.344.522-.713.95-1.426 1.33-2.138h4.988a.75.75 0 0 0 .76-.76c0-.428-.427-.713-.855-.713zm-7.6 2.802c-5.037 7.363-14.3 13.302-16.295 14.584-2.043-1.282-11.26-7.268-16.343-14.584l-.285-.428h6.984c.285 0 .57-.142.712-.427l3.183-6.271 4.988 12.78c.095.284.428.474.713.474h.048c.332 0 .617-.237.712-.57l4.37-14.964 2.328 7.553a.774.774 0 0 0 .618.523c.285.047.57-.095.76-.333l1.853-2.708 1.568 2.66c.142.238.38.38.665.38h4.275c-.285.476-.57.903-.855 1.33zm1.71-2.803h-4.656l-1.948-3.325a.758.758 0 0 0-.665-.38c-.285 0-.523.095-.665.332l-1.615 2.375-2.613-8.503c-.095-.333-.428-.523-.76-.57a.813.813 0 0 0-.76.57l-4.418 15.25-4.799-12.257a.714.714 0 0 0-.665-.475c-.332 0-.57.142-.712.427l-3.753 7.364H7.66c-1.9-3.468-2.422-6.794-1.567-9.787.997-3.372 4.275-6.983 9.216-6.983 1.33 0 2.708.285 4.085.76 3.468 1.283 5.321 2.756 5.368 2.756a.722.722 0 0 0 .95 0s1.853-1.473 5.369-2.756a11.485 11.485 0 0 1 4.085-.76c4.893 0 8.219 3.61 9.216 6.983.808 2.756.38 5.796-1.14 8.98z" transform="translate(.37 .186)"/>
</svg>
