<svg xmlns="http://www.w3.org/2000/svg" width="209" height="90" viewBox="0 0 209 90">
    <g fill="none" fill-rule="evenodd">
        <path fill="#FF7000" d="M77.245 89.652L.473 44.965l11.855-3.071z"/>
        <path fill="#FF7000" d="M27.288 37.913l49.957 51.74L18.58 40.194z"/>
        <path fill="#FF4900" d="M.474 44.965L77.244.277l-2.642 9.81z"/>
        <path fill="#FF4900" d="M69.973 27.35L.474 44.964l72.373-28.303z"/>
        <path fill="#FFA400" d="M77.232.277l.013 89.375-8.493-8.796z"/>
        <path fill="#FFA400" d="M58.36 70.152L77.233.277l-13.364 75.59z"/>
        <path fill="#000" fill-opacity=".33" d="M74.572 10.091l-.554.266L77.232.277l-2.66 9.814zm-1.794 6.616l-2.893 10.67-1.408.36 3.402-10.672.9-.358zM68.719 80.863l.079-.674 8.434 9.463-8.513-8.79zm-4.86-5.017l-5.498-5.677.338-1.312 5.33 5.98-.17 1.009zM12.375 41.927l.651.481L.514 45.024l11.861-3.097zm6.323-1.65l8.758-2.287 1.035 1.185-8.896 1.86-.897-.759z"/>
        <g>
            <g fill="#344390">
                <path d="M93.06 45.744h-4.357V31.06h3.938c1.578 0 2.783.433 3.614 1.299.83.866 1.246 2.018 1.246 3.456v5.74c0 2.793-1.48 4.19-4.44 4.19zm2.933-3.98v-6.158c0-1.048-.304-1.826-.911-2.336-.608-.51-1.352-.764-2.231-.764h-2.64v11.877h2.514c1.55 0 2.542-.412 2.975-1.236.195-.363.293-.824.293-1.383zM111.157 35.145v6.724c0 1.41-.43 2.447-1.289 3.11-.858.664-1.888.996-3.09.996-1.2 0-2.237-.332-3.11-.995-.873-.664-1.31-1.7-1.31-3.11v-6.746c0-1.438.395-2.528 1.184-3.268.79-.74 1.875-1.11 3.258-1.11 1.382 0 2.454.391 3.215 1.173.761.782 1.142 1.857 1.142 3.226zm-1.509 6.557v-6.473c0-.964-.247-1.697-.743-2.2-.496-.502-1.212-.754-2.147-.754-1.927 0-2.891.985-2.891 2.954v6.514c0 .894.265 1.575.796 2.043.53.468 1.229.702 2.095.702.866 0 1.564-.234 2.094-.702.531-.468.796-1.163.796-2.084zM117.334 41.87c0 1.745.957 2.618 2.87 2.618h2.708v1.465h-2.917c-.224 0-.563-.02-1.016-.062-.454-.042-.936-.199-1.446-.471-.51-.273-.921-.706-1.236-1.3-.314-.593-.471-1.33-.471-2.209v-6.724c0-1.061.15-1.864.45-2.409.3-.545.758-1.005 1.372-1.383.629-.349 1.376-.523 2.242-.523.717 0 1.724.007 3.022.02v1.446h-2.499c-.586 0-1.078.06-1.476.178-.398.119-.765.391-1.1.817-.335.426-.503.981-.503 1.665v6.871zM133.378 45.744h-8.33l5.984-9.175c.489-.782.733-1.466.733-2.052 0-.685-.216-1.219-.65-1.603-.432-.384-.91-.576-1.434-.576h-2.892v-1.445a330.11 330.11 0 0 1 3.007-.021c.95 0 1.76.3 2.43.9.726.657 1.09 1.46 1.09 2.41 0 .95-.308 1.94-.923 2.974l-4.755 7.185h5.74v1.403zM141.692 45.744h-4.357V31.06h3.938c1.578 0 2.783.433 3.614 1.299.83.866 1.246 2.018 1.246 3.456v5.74c0 2.793-1.48 4.19-4.44 4.19zm2.933-3.98v-6.158c0-1.048-.304-1.826-.911-2.336-.608-.51-1.352-.764-2.231-.764h-2.64v11.877h2.514c1.55 0 2.542-.412 2.974-1.236.196-.363.294-.824.294-1.383zM153.902 45.744h-1.508V32.506l-1.382-.042V31.08h2.89zM167.39 45.744h-1.504l-.004-.649c-.67.573-1.592.859-2.765.859s-2.189-.35-3.047-1.048c-.86-.698-1.289-1.738-1.289-3.12v-6.578c0-1.788.608-3.051 1.823-3.792.628-.349 1.375-.523 2.241-.523h2.975v1.445h-2.598c-1.955 0-2.933.894-2.933 2.681v6.808c0 .852.266 1.505.796 1.959.531.454 1.215.68 2.053.68.838 0 1.512-.23 2.022-.69.51-.462.764-1.104.764-1.928v-.922h-1.822V39.46h3.289v6.284zM174.804 45.744h-1.508V32.506l-1.383-.042V31.08h2.891zM183.223 45.744h-1.508V32.506h-3.394V31.08h8.421v1.425h-3.52zM197.59 45.744h-1.696l-1.445-4.734h-4.357l-1.383 4.734h-1.634l5.184-14.663 5.332 14.663zm-3.518-6.284l-1.823-4.694-1.76 4.694h3.583zM208.9 45.744h-7.562V31.081h1.509v13.302h6.053z"/>
            </g>
            <g fill="#344390">
                <path d="M175.62 52.18h.652v.568h.017c.178-.212.386-.377.623-.494a1.74 1.74 0 0 1 .781-.175c.307 0 .587.051.84.154.254.104.47.247.648.431.179.184.318.401.418.652.1.25.15.524.15.82 0 .295-.05.568-.15.819-.1.25-.238.468-.414.652a1.925 1.925 0 0 1-1.392.585 1.81 1.81 0 0 1-.923-.23 1.492 1.492 0 0 1-.581-.564h-.017v2.6h-.652v-5.819zm.652 1.955c0 .207.032.397.096.573a1.334 1.334 0 0 0 .72.769c.17.075.36.113.572.113a1.333 1.333 0 0 0 1.292-.882c.063-.176.095-.366.095-.573 0-.206-.032-.397-.096-.572a1.334 1.334 0 0 0-.719-.77 1.4 1.4 0 0 0-.572-.112 1.333 1.333 0 0 0-1.292.882 1.658 1.658 0 0 0-.096.572zM181.685 53.107a7.06 7.06 0 0 0-.017-.501 6.028 6.028 0 0 1-.016-.427h.618c0 .106.003.212.009.318.005.106.008.214.008.326h.017c.044-.095.107-.187.188-.276.08-.09.177-.169.288-.238a1.542 1.542 0 0 1 .962-.222c.044.006.089.017.133.034l-.041.66a1.215 1.215 0 0 0-.352-.05c-.4 0-.692.13-.873.389-.181.259-.272.614-.272 1.065v1.906h-.652v-2.984zM185.175 54.135c0-.306.053-.585.16-.836.105-.25.25-.466.434-.648.184-.18.404-.321.66-.422.257-.1.535-.15.836-.15.301 0 .58.05.836.15.257.1.477.241.66.422.185.182.33.398.435.648.106.251.16.53.16.836 0 .307-.054.585-.16.836-.105.251-.25.467-.434.648a1.932 1.932 0 0 1-.66.422c-.257.1-.536.15-.837.15-.3 0-.58-.05-.836-.15a1.932 1.932 0 0 1-.66-.422 1.977 1.977 0 0 1-.435-.648 2.129 2.129 0 0 1-.159-.836zm.703 0c0 .207.032.397.096.573a1.334 1.334 0 0 0 .719.769c.17.075.36.113.572.113a1.333 1.333 0 0 0 1.292-.882c.064-.176.096-.366.096-.573 0-.206-.032-.397-.096-.572a1.334 1.334 0 0 0-.719-.77 1.4 1.4 0 0 0-.573-.112 1.333 1.333 0 0 0-1.292.882 1.658 1.658 0 0 0-.095.572zM194.075 53.157a1.321 1.321 0 0 0-.452-.363 1.252 1.252 0 0 0-.535-.113c-.217 0-.41.037-.577.113a1.11 1.11 0 0 0-.413.313c-.11.134-.191.288-.247.464a1.855 1.855 0 0 0-.084.564c0 .201.032.389.096.565.065.175.154.33.268.464.114.133.252.238.414.313.161.075.342.113.543.113.43 0 .76-.162.995-.485l.485.46a1.7 1.7 0 0 1-.669.476c-.256.1-.527.15-.81.15-.302 0-.578-.05-.828-.15a1.79 1.79 0 0 1-.64-.426 1.963 1.963 0 0 1-.41-.652 2.265 2.265 0 0 1-.146-.828c0-.295.049-.568.146-.819a1.89 1.89 0 0 1 1.053-1.083c.249-.103.523-.154.824-.154.29 0 .564.05.824.15.259.1.486.257.68.468l-.517.46zM199.738 55.38c-.234.302-.49.512-.769.632-.278.12-.602.18-.97.18-.306 0-.582-.055-.827-.163a1.865 1.865 0 0 1-.623-.44c-.17-.183-.3-.4-.393-.651a2.313 2.313 0 0 1-.138-.803c0-.3.05-.578.15-.831a1.879 1.879 0 0 1 1.053-1.074 2.1 2.1 0 0 1 .804-.151c.273 0 .524.046.752.138.229.092.425.225.59.401.164.176.29.39.38.644a2.6 2.6 0 0 1 .134.865v.209h-3.16a1.396 1.396 0 0 0 .393.882 1.2 1.2 0 0 0 .886.372c.284 0 .524-.05.719-.15.195-.1.37-.249.526-.444l.493.385zm-.56-1.596c-.01-.334-.12-.602-.326-.802-.206-.2-.49-.301-.852-.301-.363 0-.655.1-.878.3-.223.201-.357.469-.401.803h2.457zM201.9 55.063c.128.162.269.29.422.385.153.095.347.142.58.142.101 0 .203-.011.306-.034a.916.916 0 0 0 .28-.108.62.62 0 0 0 .2-.188.478.478 0 0 0 .076-.272.438.438 0 0 0-.071-.26.622.622 0 0 0-.188-.17 1.059 1.059 0 0 0-.268-.113 5.018 5.018 0 0 0-.31-.076 6.597 6.597 0 0 1-.526-.133 1.716 1.716 0 0 1-.439-.197.925.925 0 0 1-.3-.313.964.964 0 0 1-.113-.494c0-.189.041-.356.125-.501.084-.145.195-.265.334-.36.14-.094.296-.167.468-.217a1.91 1.91 0 0 1 1.309.092c.237.111.422.293.556.543l-.544.36a.912.912 0 0 0-.828-.468c-.088 0-.179.01-.271.033a.848.848 0 0 0-.247.1.586.586 0 0 0-.18.172.414.414 0 0 0-.07.238c0 .084.026.155.079.213.053.059.125.11.217.155a1.9 1.9 0 0 0 .318.117c.12.033.244.061.372.084.173.033.337.076.493.13.156.052.293.123.41.212.117.09.209.201.276.335.067.133.1.298.1.493 0 .223-.045.412-.134.568-.089.156-.207.283-.355.38a1.559 1.559 0 0 1-.502.214 2.457 2.457 0 0 1-.572.067c-.335 0-.623-.052-.865-.155-.243-.103-.462-.294-.657-.572l.519-.402zM206.385 55.063c.128.162.269.29.422.385.153.095.347.142.581.142.1 0 .202-.011.305-.034a.916.916 0 0 0 .28-.108.62.62 0 0 0 .2-.188.478.478 0 0 0 .076-.272.438.438 0 0 0-.071-.26.622.622 0 0 0-.188-.17 1.059 1.059 0 0 0-.268-.113 5.018 5.018 0 0 0-.309-.076 6.597 6.597 0 0 1-.527-.133 1.716 1.716 0 0 1-.438-.197.925.925 0 0 1-.301-.313.964.964 0 0 1-.113-.494c0-.189.042-.356.125-.501.084-.145.195-.265.334-.36.14-.094.296-.167.469-.217a1.91 1.91 0 0 1 1.308.092c.237.111.422.293.556.543l-.544.36a.912.912 0 0 0-.828-.468c-.088 0-.179.01-.27.033a.848.848 0 0 0-.247.1.586.586 0 0 0-.18.172.414.414 0 0 0-.071.238c0 .084.026.155.08.213.052.059.125.11.217.155a1.9 1.9 0 0 0 .317.117c.12.033.244.061.372.084.173.033.337.076.493.13.156.052.293.123.41.212.117.09.209.201.276.335.067.133.1.298.1.493 0 .223-.044.412-.134.568-.089.156-.207.283-.355.38a1.559 1.559 0 0 1-.501.214 2.457 2.457 0 0 1-.573.067c-.334 0-.623-.052-.865-.155-.243-.103-.461-.294-.656-.572l.518-.402zM91.713 53.149a1.321 1.321 0 0 0-.452-.364 1.252 1.252 0 0 0-.535-.113c-.217 0-.41.038-.577.113a1.11 1.11 0 0 0-.413.313c-.11.134-.191.289-.247.464a1.855 1.855 0 0 0-.084.565c0 .2.032.388.096.564.065.175.154.33.268.464.114.134.252.238.414.313.161.076.343.113.543.113.43 0 .76-.161.995-.485l.485.46a1.7 1.7 0 0 1-.669.477c-.256.1-.527.15-.81.15-.302 0-.578-.05-.828-.15a1.79 1.79 0 0 1-.64-.427 1.963 1.963 0 0 1-.41-.652 2.265 2.265 0 0 1-.146-.827c0-.296.049-.569.146-.82a1.89 1.89 0 0 1 1.053-1.083c.249-.102.523-.154.824-.154.29 0 .564.05.824.15.259.1.486.257.68.469l-.517.46zM93.832 52.672c.2-.206.439-.358.715-.456.276-.097.556-.146.84-.146.58 0 .997.137 1.254.41.256.273.384.688.384 1.245v1.68a4.622 4.622 0 0 0 .059.677h-.627a1.37 1.37 0 0 1-.038-.296 11.398 11.398 0 0 1-.004-.288h-.017c-.128.2-.3.365-.514.493a1.48 1.48 0 0 1-.773.192c-.2 0-.389-.025-.564-.075a1.41 1.41 0 0 1-.46-.222 1.042 1.042 0 0 1-.43-.865c0-.323.083-.577.25-.76.167-.185.375-.321.623-.41.248-.09.516-.145.803-.167.287-.023.55-.034.79-.034h.25v-.117c0-.284-.085-.499-.255-.644-.17-.145-.408-.217-.714-.217-.212 0-.42.035-.623.105-.204.07-.383.176-.54.321l-.409-.426zm1.89 1.53c-.419 0-.75.058-.996.175a.596.596 0 0 0-.367.577c0 .245.082.42.246.523.165.103.37.154.615.154a1.2 1.2 0 0 0 .497-.096 1.046 1.046 0 0 0 .573-.627c.05-.142.078-.294.083-.455v-.251h-.652zM99.111 52.17h.652v.569h.017c.178-.212.386-.376.623-.493a1.74 1.74 0 0 1 .782-.176c.306 0 .586.052.84.155.253.103.47.246.648.43.178.184.317.402.418.652.1.251.15.524.15.82 0 .295-.05.568-.15.819-.1.25-.239.468-.414.652a1.925 1.925 0 0 1-1.392.585 1.81 1.81 0 0 1-.924-.23 1.492 1.492 0 0 1-.58-.564h-.018v2.6h-.652V52.17zm.652 1.957c0 .206.032.397.097.572a1.334 1.334 0 0 0 .718.77c.17.075.361.112.573.112a1.333 1.333 0 0 0 1.292-.882c.064-.175.096-.366.096-.572 0-.207-.032-.397-.096-.573a1.334 1.334 0 0 0-.72-.77 1.4 1.4 0 0 0-.572-.112 1.333 1.333 0 0 0-1.292.882 1.658 1.658 0 0 0-.096.573zM107.317 52.722h-1.154v1.956c0 .129.003.247.008.356a.735.735 0 0 0 .067.284.45.45 0 0 0 .176.192c.078.047.19.071.334.071a1.347 1.347 0 0 0 .577-.134l.025.594c-.111.05-.235.086-.372.109a2.416 2.416 0 0 1-.389.033c-.234 0-.42-.03-.56-.092a.76.76 0 0 1-.326-.259.965.965 0 0 1-.155-.414 3.648 3.648 0 0 1-.037-.547v-2.149h-.853v-.552h.853V51.06h.652v1.111h1.154v.552zM112.454 55.155c0 .178.005.345.017.501.01.156.016.299.016.427h-.618c0-.106-.003-.212-.009-.318a6.205 6.205 0 0 1-.008-.326h-.017a1.128 1.128 0 0 1-.188.276c-.08.09-.177.169-.288.238a1.542 1.542 0 0 1-.828.23c-.256 0-.478-.039-.665-.117a1.248 1.248 0 0 1-.463-.326 1.32 1.32 0 0 1-.272-.506 2.276 2.276 0 0 1-.088-.648V52.17h.652v2.35c0 .328.073.587.217.777.145.19.371.284.678.284.211 0 .394-.036.547-.109a.97.97 0 0 0 .376-.309c.098-.134.17-.292.218-.476.047-.184.07-.388.07-.61V52.17h.653v2.985zM114.615 53.098a7.06 7.06 0 0 0-.017-.501 6.028 6.028 0 0 1-.016-.427h.618c0 .106.003.212.009.318.005.106.008.215.008.326h.017c.044-.095.107-.187.188-.276.08-.089.177-.168.288-.238a1.542 1.542 0 0 1 .961-.222c.045.006.09.017.134.034l-.042.66a1.215 1.215 0 0 0-.35-.05c-.402 0-.693.13-.874.389-.181.259-.272.614-.272 1.066v1.906h-.652v-2.985zM121.976 55.372c-.234.301-.49.512-.77.631-.278.12-.601.18-.969.18-.306 0-.582-.054-.828-.163a1.865 1.865 0 0 1-.622-.439c-.17-.184-.301-.401-.393-.652a2.313 2.313 0 0 1-.138-.802c0-.301.05-.579.15-.832a1.879 1.879 0 0 1 1.053-1.074 2.1 2.1 0 0 1 .803-.15c.273 0 .524.045.753.137.228.092.424.226.589.401.164.176.291.39.38.644a2.6 2.6 0 0 1 .134.865v.21h-3.16a1.396 1.396 0 0 0 .393.882c.111.113.242.204.393.27.15.068.315.101.493.101.284 0 .524-.05.719-.15.195-.1.37-.248.527-.443l.493.384zm-.56-1.597c-.011-.334-.12-.601-.326-.802-.206-.2-.49-.301-.853-.301-.362 0-.655.1-.878.301-.223.2-.356.468-.401.802h2.458zM124.492 53.723h1v1.016h-1zM126.396 53.723h1v1.016h-1zM170.195 53.723h1v1.016h-1zM172.099 53.723h1v1.016h-1zM129.003 55.055c.128.161.269.29.422.384.153.095.347.142.58.142.101 0 .203-.011.306-.033a.916.916 0 0 0 .28-.109.62.62 0 0 0 .2-.188.478.478 0 0 0 .076-.272.438.438 0 0 0-.071-.259.622.622 0 0 0-.188-.171 1.059 1.059 0 0 0-.268-.113 5.018 5.018 0 0 0-.31-.075 6.598 6.598 0 0 1-.526-.134 1.716 1.716 0 0 1-.439-.197.925.925 0 0 1-.3-.313.964.964 0 0 1-.113-.493c0-.19.041-.357.125-.502.084-.145.195-.265.334-.36.14-.094.296-.166.468-.217a1.91 1.91 0 0 1 1.309.092c.237.112.422.293.556.544l-.544.36a.912.912 0 0 0-.828-.468c-.088-.001-.179.01-.271.032a.848.848 0 0 0-.247.1.586.586 0 0 0-.18.172.414.414 0 0 0-.07.238c0 .084.026.155.079.214.053.058.125.11.217.154a1.9 1.9 0 0 0 .318.117c.12.034.244.062.372.084.173.033.337.076.493.13.156.052.293.123.41.213.117.089.209.2.276.334.067.134.1.298.1.493 0 .223-.045.413-.134.569-.089.156-.207.282-.355.38a1.559 1.559 0 0 1-.502.213 2.457 2.457 0 0 1-.572.067c-.335 0-.623-.051-.865-.155-.243-.103-.462-.294-.657-.572l.519-.401zM135.544 52.722h-1.153v1.956c0 .129.002.247.008.356a.735.735 0 0 0 .067.284.45.45 0 0 0 .175.192c.078.047.19.071.335.071a1.347 1.347 0 0 0 .577-.134l.025.594c-.112.05-.236.086-.372.109a2.416 2.416 0 0 1-.389.033c-.234 0-.42-.03-.56-.092a.76.76 0 0 1-.326-.259.965.965 0 0 1-.155-.414 3.648 3.648 0 0 1-.037-.547v-2.149h-.853v-.552h.853V51.06h.652v1.111h1.153v.552zM137.27 53.098a7.06 7.06 0 0 0-.016-.501 6.028 6.028 0 0 1-.017-.427h.619c0 .106.003.212.008.318.006.106.009.215.009.326h.016c.045-.095.108-.187.189-.276.08-.089.176-.168.288-.238a1.542 1.542 0 0 1 .961-.222c.045.006.09.017.134.034l-.042.66a1.215 1.215 0 0 0-.35-.05c-.402 0-.693.13-.874.389-.182.259-.272.614-.272 1.066v1.906h-.652v-2.985zM144.548 55.155c0 .178.006.345.017.501.011.156.017.299.017.427h-.62c0-.106-.002-.212-.007-.318a6.205 6.205 0 0 1-.009-.326h-.017a1.129 1.129 0 0 1-.188.276c-.08.09-.177.169-.288.238a1.542 1.542 0 0 1-.828.23c-.256 0-.478-.039-.664-.117a1.248 1.248 0 0 1-.464-.326 1.32 1.32 0 0 1-.272-.506 2.276 2.276 0 0 1-.088-.648V52.17h.652v2.35c0 .328.073.587.218.777.145.19.37.284.677.284.212 0 .394-.036.547-.109a.97.97 0 0 0 .377-.309c.097-.134.17-.292.217-.476.047-.184.071-.388.071-.61V52.17h.652v2.985zM149.493 53.149a1.321 1.321 0 0 0-.451-.364 1.252 1.252 0 0 0-.535-.113c-.218 0-.41.038-.577.113a1.11 1.11 0 0 0-.414.313c-.109.134-.19.289-.247.464a1.855 1.855 0 0 0-.083.565c0 .2.032.388.096.564.064.175.153.33.267.464.115.134.253.238.414.313.162.076.343.113.544.113.429 0 .76-.161.994-.485l.485.46a1.7 1.7 0 0 1-.668.477c-.257.1-.527.15-.811.15-.301 0-.577-.05-.828-.15a1.79 1.79 0 0 1-.64-.427 1.963 1.963 0 0 1-.41-.652 2.265 2.265 0 0 1-.145-.827c0-.296.048-.569.146-.82a1.89 1.89 0 0 1 1.053-1.083c.248-.102.523-.154.824-.154.29 0 .564.05.823.15.26.1.486.257.681.469l-.518.46zM153.803 52.722h-1.154v1.956c0 .129.003.247.008.356a.735.735 0 0 0 .067.284.45.45 0 0 0 .176.192c.078.047.19.071.334.071a1.347 1.347 0 0 0 .577-.134l.025.594c-.111.05-.235.086-.372.109a2.416 2.416 0 0 1-.389.033c-.234 0-.42-.03-.56-.092a.76.76 0 0 1-.326-.259.965.965 0 0 1-.154-.414 3.648 3.648 0 0 1-.038-.547v-2.149h-.853v-.552h.853V51.06h.652v1.111h1.154v.552zM158.94 55.155c0 .178.005.345.017.501.01.156.016.299.016.427h-.618c0-.106-.003-.212-.009-.318a6.205 6.205 0 0 1-.008-.326h-.017a1.128 1.128 0 0 1-.188.276c-.08.09-.177.169-.288.238a1.542 1.542 0 0 1-.828.23c-.256 0-.478-.039-.664-.117a1.248 1.248 0 0 1-.464-.326 1.32 1.32 0 0 1-.272-.506 2.276 2.276 0 0 1-.088-.648V52.17h.652v2.35c0 .328.073.587.218.777.144.19.37.284.677.284.211 0 .394-.036.547-.109a.97.97 0 0 0 .376-.309c.098-.134.17-.292.218-.476.047-.184.07-.388.07-.61V52.17h.653v2.985zM161.101 53.098a7.06 7.06 0 0 0-.017-.501 6.028 6.028 0 0 1-.016-.427h.618c0 .106.003.212.009.318.005.106.008.215.008.326h.017c.044-.095.107-.187.188-.276.08-.089.177-.168.288-.238a1.542 1.542 0 0 1 .962-.222c.044.006.089.017.133.034l-.041.66a1.215 1.215 0 0 0-.352-.05c-.4 0-.692.13-.873.389-.181.259-.272.614-.272 1.066v1.906h-.652v-2.985zM168.462 55.372c-.234.301-.49.512-.77.631-.278.12-.601.18-.969.18-.306 0-.582-.054-.827-.163a1.865 1.865 0 0 1-.623-.439c-.17-.184-.301-.401-.393-.652a2.313 2.313 0 0 1-.138-.802c0-.301.05-.579.15-.832a1.879 1.879 0 0 1 1.053-1.074 2.1 2.1 0 0 1 .803-.15c.273 0 .524.045.753.137.228.092.425.226.589.401.164.176.291.39.38.644a2.6 2.6 0 0 1 .134.865v.21h-3.16a1.396 1.396 0 0 0 .393.882c.112.113.243.204.393.27.15.068.315.101.493.101.284 0 .524-.05.72-.15.194-.1.37-.248.526-.443l.493.384zm-.56-1.597c-.011-.334-.12-.601-.326-.802-.206-.2-.49-.301-.853-.301-.362 0-.655.1-.878.301-.222.2-.356.468-.4.802h2.457z"/>
            </g>
            <g fill="#5CC5EF">
                <path d="M175.62 52.18h.652v.568h.017c.178-.212.386-.377.623-.494a1.74 1.74 0 0 1 .781-.175c.307 0 .587.051.84.154.254.104.47.247.648.431.179.184.318.401.418.652.1.25.15.524.15.82 0 .295-.05.568-.15.819-.1.25-.238.468-.414.652a1.925 1.925 0 0 1-1.392.585 1.81 1.81 0 0 1-.923-.23 1.492 1.492 0 0 1-.581-.564h-.017v2.6h-.652v-5.819zm.652 1.955c0 .207.032.397.096.573a1.334 1.334 0 0 0 .72.769c.17.075.36.113.572.113a1.333 1.333 0 0 0 1.292-.882c.063-.176.095-.366.095-.573 0-.206-.032-.397-.096-.572a1.334 1.334 0 0 0-.719-.77 1.4 1.4 0 0 0-.572-.112 1.333 1.333 0 0 0-1.292.882 1.658 1.658 0 0 0-.096.572zM181.685 53.107a7.06 7.06 0 0 0-.017-.501 6.028 6.028 0 0 1-.016-.427h.618c0 .106.003.212.009.318.005.106.008.214.008.326h.017c.044-.095.107-.187.188-.276.08-.09.177-.169.288-.238a1.542 1.542 0 0 1 .962-.222c.044.006.089.017.133.034l-.041.66a1.215 1.215 0 0 0-.352-.05c-.4 0-.692.13-.873.389-.181.259-.272.614-.272 1.065v1.906h-.652v-2.984zM185.175 54.135c0-.306.053-.585.16-.836.105-.25.25-.466.434-.648.184-.18.404-.321.66-.422.257-.1.535-.15.836-.15.301 0 .58.05.836.15.257.1.477.241.66.422.185.182.33.398.435.648.106.251.16.53.16.836 0 .307-.054.585-.16.836-.105.251-.25.467-.434.648a1.932 1.932 0 0 1-.66.422c-.257.1-.536.15-.837.15-.3 0-.58-.05-.836-.15a1.932 1.932 0 0 1-.66-.422 1.977 1.977 0 0 1-.435-.648 2.129 2.129 0 0 1-.159-.836zm.703 0c0 .207.032.397.096.573a1.334 1.334 0 0 0 .719.769c.17.075.36.113.572.113a1.333 1.333 0 0 0 1.292-.882c.064-.176.096-.366.096-.573 0-.206-.032-.397-.096-.572a1.334 1.334 0 0 0-.719-.77 1.4 1.4 0 0 0-.573-.112 1.333 1.333 0 0 0-1.292.882 1.658 1.658 0 0 0-.095.572zM194.075 53.157a1.321 1.321 0 0 0-.452-.363 1.252 1.252 0 0 0-.535-.113c-.217 0-.41.037-.577.113a1.11 1.11 0 0 0-.413.313c-.11.134-.191.288-.247.464a1.855 1.855 0 0 0-.084.564c0 .201.032.389.096.565.065.175.154.33.268.464.114.133.252.238.414.313.161.075.342.113.543.113.43 0 .76-.162.995-.485l.485.46a1.7 1.7 0 0 1-.669.476c-.256.1-.527.15-.81.15-.302 0-.578-.05-.828-.15a1.79 1.79 0 0 1-.64-.426 1.963 1.963 0 0 1-.41-.652 2.265 2.265 0 0 1-.146-.828c0-.295.049-.568.146-.819a1.89 1.89 0 0 1 1.053-1.083c.249-.103.523-.154.824-.154.29 0 .564.05.824.15.259.1.486.257.68.468l-.517.46zM199.738 55.38c-.234.302-.49.512-.769.632-.278.12-.602.18-.97.18-.306 0-.582-.055-.827-.163a1.865 1.865 0 0 1-.623-.44c-.17-.183-.3-.4-.393-.651a2.313 2.313 0 0 1-.138-.803c0-.3.05-.578.15-.831a1.879 1.879 0 0 1 1.053-1.074 2.1 2.1 0 0 1 .804-.151c.273 0 .524.046.752.138.229.092.425.225.59.401.164.176.29.39.38.644a2.6 2.6 0 0 1 .134.865v.209h-3.16a1.396 1.396 0 0 0 .393.882 1.2 1.2 0 0 0 .886.372c.284 0 .524-.05.719-.15.195-.1.37-.249.526-.444l.493.385zm-.56-1.596c-.01-.334-.12-.602-.326-.802-.206-.2-.49-.301-.852-.301-.363 0-.655.1-.878.3-.223.201-.357.469-.401.803h2.457zM201.9 55.063c.128.162.269.29.422.385.153.095.347.142.58.142.101 0 .203-.011.306-.034a.916.916 0 0 0 .28-.108.62.62 0 0 0 .2-.188.478.478 0 0 0 .076-.272.438.438 0 0 0-.071-.26.622.622 0 0 0-.188-.17 1.059 1.059 0 0 0-.268-.113 5.018 5.018 0 0 0-.31-.076 6.597 6.597 0 0 1-.526-.133 1.716 1.716 0 0 1-.439-.197.925.925 0 0 1-.3-.313.964.964 0 0 1-.113-.494c0-.189.041-.356.125-.501.084-.145.195-.265.334-.36.14-.094.296-.167.468-.217a1.91 1.91 0 0 1 1.309.092c.237.111.422.293.556.543l-.544.36a.912.912 0 0 0-.828-.468c-.088 0-.179.01-.271.033a.848.848 0 0 0-.247.1.586.586 0 0 0-.18.172.414.414 0 0 0-.07.238c0 .084.026.155.079.213.053.059.125.11.217.155a1.9 1.9 0 0 0 .318.117c.12.033.244.061.372.084.173.033.337.076.493.13.156.052.293.123.41.212.117.09.209.201.276.335.067.133.1.298.1.493 0 .223-.045.412-.134.568-.089.156-.207.283-.355.38a1.559 1.559 0 0 1-.502.214 2.457 2.457 0 0 1-.572.067c-.335 0-.623-.052-.865-.155-.243-.103-.462-.294-.657-.572l.519-.402zM206.385 55.063c.128.162.269.29.422.385.153.095.347.142.581.142.1 0 .202-.011.305-.034a.916.916 0 0 0 .28-.108.62.62 0 0 0 .2-.188.478.478 0 0 0 .076-.272.438.438 0 0 0-.071-.26.622.622 0 0 0-.188-.17 1.059 1.059 0 0 0-.268-.113 5.018 5.018 0 0 0-.309-.076 6.597 6.597 0 0 1-.527-.133 1.716 1.716 0 0 1-.438-.197.925.925 0 0 1-.301-.313.964.964 0 0 1-.113-.494c0-.189.042-.356.125-.501.084-.145.195-.265.334-.36.14-.094.296-.167.469-.217a1.91 1.91 0 0 1 1.308.092c.237.111.422.293.556.543l-.544.36a.912.912 0 0 0-.828-.468c-.088 0-.179.01-.27.033a.848.848 0 0 0-.247.1.586.586 0 0 0-.18.172.414.414 0 0 0-.071.238c0 .084.026.155.08.213.052.059.125.11.217.155a1.9 1.9 0 0 0 .317.117c.12.033.244.061.372.084.173.033.337.076.493.13.156.052.293.123.41.212.117.09.209.201.276.335.067.133.1.298.1.493 0 .223-.044.412-.134.568-.089.156-.207.283-.355.38a1.559 1.559 0 0 1-.501.214 2.457 2.457 0 0 1-.573.067c-.334 0-.623-.052-.865-.155-.243-.103-.461-.294-.656-.572l.518-.402zM91.713 53.149a1.321 1.321 0 0 0-.452-.364 1.252 1.252 0 0 0-.535-.113c-.217 0-.41.038-.577.113a1.11 1.11 0 0 0-.413.313c-.11.134-.191.289-.247.464a1.855 1.855 0 0 0-.084.565c0 .2.032.388.096.564.065.175.154.33.268.464.114.134.252.238.414.313.161.076.343.113.543.113.43 0 .76-.161.995-.485l.485.46a1.7 1.7 0 0 1-.669.477c-.256.1-.527.15-.81.15-.302 0-.578-.05-.828-.15a1.79 1.79 0 0 1-.64-.427 1.963 1.963 0 0 1-.41-.652 2.265 2.265 0 0 1-.146-.827c0-.296.049-.569.146-.82a1.89 1.89 0 0 1 1.053-1.083c.249-.102.523-.154.824-.154.29 0 .564.05.824.15.259.1.486.257.68.469l-.517.46zM93.832 52.672c.2-.206.439-.358.715-.456.276-.097.556-.146.84-.146.58 0 .997.137 1.254.41.256.273.384.688.384 1.245v1.68a4.622 4.622 0 0 0 .059.677h-.627a1.37 1.37 0 0 1-.038-.296 11.398 11.398 0 0 1-.004-.288h-.017c-.128.2-.3.365-.514.493a1.48 1.48 0 0 1-.773.192c-.2 0-.389-.025-.564-.075a1.41 1.41 0 0 1-.46-.222 1.042 1.042 0 0 1-.43-.865c0-.323.083-.577.25-.76.167-.185.375-.321.623-.41.248-.09.516-.145.803-.167.287-.023.55-.034.79-.034h.25v-.117c0-.284-.085-.499-.255-.644-.17-.145-.408-.217-.714-.217-.212 0-.42.035-.623.105-.204.07-.383.176-.54.321l-.409-.426zm1.89 1.53c-.419 0-.75.058-.996.175a.596.596 0 0 0-.367.577c0 .245.082.42.246.523.165.103.37.154.615.154a1.2 1.2 0 0 0 .497-.096 1.046 1.046 0 0 0 .573-.627c.05-.142.078-.294.083-.455v-.251h-.652zM99.111 52.17h.652v.569h.017c.178-.212.386-.376.623-.493a1.74 1.74 0 0 1 .782-.176c.306 0 .586.052.84.155.253.103.47.246.648.43.178.184.317.402.418.652.1.251.15.524.15.82 0 .295-.05.568-.15.819-.1.25-.239.468-.414.652a1.925 1.925 0 0 1-1.392.585 1.81 1.81 0 0 1-.924-.23 1.492 1.492 0 0 1-.58-.564h-.018v2.6h-.652V52.17zm.652 1.957c0 .206.032.397.097.572a1.334 1.334 0 0 0 .718.77c.17.075.361.112.573.112a1.333 1.333 0 0 0 1.292-.882c.064-.175.096-.366.096-.572 0-.207-.032-.397-.096-.573a1.334 1.334 0 0 0-.72-.77 1.4 1.4 0 0 0-.572-.112 1.333 1.333 0 0 0-1.292.882 1.658 1.658 0 0 0-.096.573zM107.317 52.722h-1.154v1.956c0 .129.003.247.008.356a.735.735 0 0 0 .067.284.45.45 0 0 0 .176.192c.078.047.19.071.334.071a1.347 1.347 0 0 0 .577-.134l.025.594c-.111.05-.235.086-.372.109a2.416 2.416 0 0 1-.389.033c-.234 0-.42-.03-.56-.092a.76.76 0 0 1-.326-.259.965.965 0 0 1-.155-.414 3.648 3.648 0 0 1-.037-.547v-2.149h-.853v-.552h.853V51.06h.652v1.111h1.154v.552zM112.454 55.155c0 .178.005.345.017.501.01.156.016.299.016.427h-.618c0-.106-.003-.212-.009-.318a6.205 6.205 0 0 1-.008-.326h-.017a1.128 1.128 0 0 1-.188.276c-.08.09-.177.169-.288.238a1.542 1.542 0 0 1-.828.23c-.256 0-.478-.039-.665-.117a1.248 1.248 0 0 1-.463-.326 1.32 1.32 0 0 1-.272-.506 2.276 2.276 0 0 1-.088-.648V52.17h.652v2.35c0 .328.073.587.217.777.145.19.371.284.678.284.211 0 .394-.036.547-.109a.97.97 0 0 0 .376-.309c.098-.134.17-.292.218-.476.047-.184.07-.388.07-.61V52.17h.653v2.985zM114.615 53.098a7.06 7.06 0 0 0-.017-.501 6.028 6.028 0 0 1-.016-.427h.618c0 .106.003.212.009.318.005.106.008.215.008.326h.017c.044-.095.107-.187.188-.276.08-.089.177-.168.288-.238a1.542 1.542 0 0 1 .961-.222c.045.006.09.017.134.034l-.042.66a1.215 1.215 0 0 0-.35-.05c-.402 0-.693.13-.874.389-.181.259-.272.614-.272 1.066v1.906h-.652v-2.985zM121.976 55.372c-.234.301-.49.512-.77.631-.278.12-.601.18-.969.18-.306 0-.582-.054-.828-.163a1.865 1.865 0 0 1-.622-.439c-.17-.184-.301-.401-.393-.652a2.313 2.313 0 0 1-.138-.802c0-.301.05-.579.15-.832a1.879 1.879 0 0 1 1.053-1.074 2.1 2.1 0 0 1 .803-.15c.273 0 .524.045.753.137.228.092.424.226.589.401.164.176.291.39.38.644a2.6 2.6 0 0 1 .134.865v.21h-3.16a1.396 1.396 0 0 0 .393.882c.111.113.242.204.393.27.15.068.315.101.493.101.284 0 .524-.05.719-.15.195-.1.37-.248.527-.443l.493.384zm-.56-1.597c-.011-.334-.12-.601-.326-.802-.206-.2-.49-.301-.853-.301-.362 0-.655.1-.878.301-.223.2-.356.468-.401.802h2.458zM124.492 53.723h1v1.016h-1zM126.396 53.723h1v1.016h-1zM170.195 53.723h1v1.016h-1zM172.099 53.723h1v1.016h-1zM129.003 55.055c.128.161.269.29.422.384.153.095.347.142.58.142.101 0 .203-.011.306-.033a.916.916 0 0 0 .28-.109.62.62 0 0 0 .2-.188.478.478 0 0 0 .076-.272.438.438 0 0 0-.071-.259.622.622 0 0 0-.188-.171 1.059 1.059 0 0 0-.268-.113 5.018 5.018 0 0 0-.31-.075 6.598 6.598 0 0 1-.526-.134 1.716 1.716 0 0 1-.439-.197.925.925 0 0 1-.3-.313.964.964 0 0 1-.113-.493c0-.19.041-.357.125-.502.084-.145.195-.265.334-.36.14-.094.296-.166.468-.217a1.91 1.91 0 0 1 1.309.092c.237.112.422.293.556.544l-.544.36a.912.912 0 0 0-.828-.468c-.088-.001-.179.01-.271.032a.848.848 0 0 0-.247.1.586.586 0 0 0-.18.172.414.414 0 0 0-.07.238c0 .084.026.155.079.214.053.058.125.11.217.154a1.9 1.9 0 0 0 .318.117c.12.034.244.062.372.084.173.033.337.076.493.13.156.052.293.123.41.213.117.089.209.2.276.334.067.134.1.298.1.493 0 .223-.045.413-.134.569-.089.156-.207.282-.355.38a1.559 1.559 0 0 1-.502.213 2.457 2.457 0 0 1-.572.067c-.335 0-.623-.051-.865-.155-.243-.103-.462-.294-.657-.572l.519-.401zM135.544 52.722h-1.153v1.956c0 .129.002.247.008.356a.735.735 0 0 0 .067.284.45.45 0 0 0 .175.192c.078.047.19.071.335.071a1.347 1.347 0 0 0 .577-.134l.025.594c-.112.05-.236.086-.372.109a2.416 2.416 0 0 1-.389.033c-.234 0-.42-.03-.56-.092a.76.76 0 0 1-.326-.259.965.965 0 0 1-.155-.414 3.648 3.648 0 0 1-.037-.547v-2.149h-.853v-.552h.853V51.06h.652v1.111h1.153v.552zM137.27 53.098a7.06 7.06 0 0 0-.016-.501 6.028 6.028 0 0 1-.017-.427h.619c0 .106.003.212.008.318.006.106.009.215.009.326h.016c.045-.095.108-.187.189-.276.08-.089.176-.168.288-.238a1.542 1.542 0 0 1 .961-.222c.045.006.09.017.134.034l-.042.66a1.215 1.215 0 0 0-.35-.05c-.402 0-.693.13-.874.389-.182.259-.272.614-.272 1.066v1.906h-.652v-2.985zM144.548 55.155c0 .178.006.345.017.501.011.156.017.299.017.427h-.62c0-.106-.002-.212-.007-.318a6.205 6.205 0 0 1-.009-.326h-.017a1.129 1.129 0 0 1-.188.276c-.08.09-.177.169-.288.238a1.542 1.542 0 0 1-.828.23c-.256 0-.478-.039-.664-.117a1.248 1.248 0 0 1-.464-.326 1.32 1.32 0 0 1-.272-.506 2.276 2.276 0 0 1-.088-.648V52.17h.652v2.35c0 .328.073.587.218.777.145.19.37.284.677.284.212 0 .394-.036.547-.109a.97.97 0 0 0 .377-.309c.097-.134.17-.292.217-.476.047-.184.071-.388.071-.61V52.17h.652v2.985zM149.493 53.149a1.321 1.321 0 0 0-.451-.364 1.252 1.252 0 0 0-.535-.113c-.218 0-.41.038-.577.113a1.11 1.11 0 0 0-.414.313c-.109.134-.19.289-.247.464a1.855 1.855 0 0 0-.083.565c0 .2.032.388.096.564.064.175.153.33.267.464.115.134.253.238.414.313.162.076.343.113.544.113.429 0 .76-.161.994-.485l.485.46a1.7 1.7 0 0 1-.668.477c-.257.1-.527.15-.811.15-.301 0-.577-.05-.828-.15a1.79 1.79 0 0 1-.64-.427 1.963 1.963 0 0 1-.41-.652 2.265 2.265 0 0 1-.145-.827c0-.296.048-.569.146-.82a1.89 1.89 0 0 1 1.053-1.083c.248-.102.523-.154.824-.154.29 0 .564.05.823.15.26.1.486.257.681.469l-.518.46zM153.803 52.722h-1.154v1.956c0 .129.003.247.008.356a.735.735 0 0 0 .067.284.45.45 0 0 0 .176.192c.078.047.19.071.334.071a1.347 1.347 0 0 0 .577-.134l.025.594c-.111.05-.235.086-.372.109a2.416 2.416 0 0 1-.389.033c-.234 0-.42-.03-.56-.092a.76.76 0 0 1-.326-.259.965.965 0 0 1-.154-.414 3.648 3.648 0 0 1-.038-.547v-2.149h-.853v-.552h.853V51.06h.652v1.111h1.154v.552zM158.94 55.155c0 .178.005.345.017.501.01.156.016.299.016.427h-.618c0-.106-.003-.212-.009-.318a6.205 6.205 0 0 1-.008-.326h-.017a1.128 1.128 0 0 1-.188.276c-.08.09-.177.169-.288.238a1.542 1.542 0 0 1-.828.23c-.256 0-.478-.039-.664-.117a1.248 1.248 0 0 1-.464-.326 1.32 1.32 0 0 1-.272-.506 2.276 2.276 0 0 1-.088-.648V52.17h.652v2.35c0 .328.073.587.218.777.144.19.37.284.677.284.211 0 .394-.036.547-.109a.97.97 0 0 0 .376-.309c.098-.134.17-.292.218-.476.047-.184.07-.388.07-.61V52.17h.653v2.985zM161.101 53.098a7.06 7.06 0 0 0-.017-.501 6.028 6.028 0 0 1-.016-.427h.618c0 .106.003.212.009.318.005.106.008.215.008.326h.017c.044-.095.107-.187.188-.276.08-.089.177-.168.288-.238a1.542 1.542 0 0 1 .962-.222c.044.006.089.017.133.034l-.041.66a1.215 1.215 0 0 0-.352-.05c-.4 0-.692.13-.873.389-.181.259-.272.614-.272 1.066v1.906h-.652v-2.985zM168.462 55.372c-.234.301-.49.512-.77.631-.278.12-.601.18-.969.18-.306 0-.582-.054-.827-.163a1.865 1.865 0 0 1-.623-.439c-.17-.184-.301-.401-.393-.652a2.313 2.313 0 0 1-.138-.802c0-.301.05-.579.15-.832a1.879 1.879 0 0 1 1.053-1.074 2.1 2.1 0 0 1 .803-.15c.273 0 .524.045.753.137.228.092.425.226.589.401.164.176.291.39.38.644a2.6 2.6 0 0 1 .134.865v.21h-3.16a1.396 1.396 0 0 0 .393.882c.112.113.243.204.393.27.15.068.315.101.493.101.284 0 .524-.05.72-.15.194-.1.37-.248.526-.443l.493.384zm-.56-1.597c-.011-.334-.12-.601-.326-.802-.206-.2-.49-.301-.853-.301-.362 0-.655.1-.878.301-.222.2-.356.468-.4.802h2.457z"/>
            </g>
        </g>
    </g>
</svg>
