<svg xmlns="http://www.w3.org/2000/svg" width="55" height="51" viewBox="0 0 55 51">
    <defs>
        <linearGradient id="a" x1="100%" x2="0%" y1="50%" y2="50%">
            <stop offset="0%" stop-color="#5CC5EF"/>
            <stop offset="100%" stop-color="#344390"/>
        </linearGradient>
    </defs>
    <g fill="url(#a)" fill-rule="evenodd" transform="translate(-456 -1083)">
        <path fill-rule="nonzero" d="M502.838 1084.682a.905.905 0 0 0-.182.018 7.412 7.412 0 0 1-5.297-.923l-.398-.24a.816.816 0 0 0-.077-.034.9.9 0 0 0-.784 0 .83.83 0 0 0-.077.033l-.398.24a7.407 7.407 0 0 1-5.304.924.907.907 0 0 0-1.089.889v9.134c0 1.286.348 2.549 1.007 3.654a7.04 7.04 0 0 0 3.284 2.877l2.61 1.125a.901.901 0 0 0 .713 0l2.611-1.125a7.04 7.04 0 0 0 3.28-2.877 7.134 7.134 0 0 0 1.008-3.654v-9.134a.907.907 0 0 0-.907-.907zm-7.257 15.484l-1.345-.58a5.238 5.238 0 0 1-2.44-2.14 5.322 5.322 0 0 1-.75-2.72v-8.095a9.193 9.193 0 0 0 4.535-.795v14.33zm6.35-5.444c-.001.958-.26 1.898-.75 2.721a5.238 5.238 0 0 1-2.44 2.141l-1.346.583v-14.331c1.42.645 2.98.919 4.536.795v8.091z"/>
        <path d="M508.134 1101.183a.907.907 0 1 0-1.661.726 21.633 21.633 0 0 1 1.807 8.707.907.907 0 0 0 1.814 0 23.414 23.414 0 0 0-1.96-9.433zM483.79 1087.034a23.566 23.566 0 0 0-17.919 8.254.907.907 0 1 0 1.379 1.179 21.75 21.75 0 0 1 16.54-7.62.907.907 0 0 0 0-1.813z"/>
        <path fill-rule="nonzero" d="M510.172 1118.244l-6.037-6.04a5.492 5.492 0 0 0-1.117-.854 4.535 4.535 0 1 0-5.653.118 5.375 5.375 0 0 0-.9.72l-1.65 1.565a1.451 1.451 0 0 1-2.045-.04l-6.04-6.04a5.4 5.4 0 0 0-.84-.685 5.442 5.442 0 1 0-6.007 0c-.302.2-.584.43-.84.686l-4.621 4.625-4.072-2.924a5.436 5.436 0 0 0-.757-.601 5.51 5.51 0 0 0 1.003-.879h2.31a.907.907 0 0 0 .812-1.312l-2.02-4.04a5.309 5.309 0 0 0-.697-1.405.885.885 0 0 0-.2-.258 5.4 5.4 0 0 0-8.55.09c-.036.04-.069.082-.098.127a5.418 5.418 0 0 0-.726 1.44l-2.023 4.044a.907.907 0 0 0 .804 1.314h2.317c.296.33.631.622.998.87a5.422 5.422 0 0 0-.81.664l-5.3 5.36a2.83 2.83 0 0 0 3.836 4.156l-1.918 7.71a.907.907 0 0 0 .877 1.133h1.814v2.72a2.714 2.714 0 0 0 4.535 2.014 2.714 2.714 0 0 0 4.535-2.013v-2.721h1.814a.907.907 0 0 0 .88-1.127l-2.237-9 1.252.646a3.58 3.58 0 0 0 1.75.409.992.992 0 0 0 .175-.005c.04 0 .081.006.104.006a2.85 2.85 0 0 0 2.003-.83l1.515-1.515v14.137a2.711 2.711 0 0 0 4.535 2.013 2.714 2.714 0 0 0 4.535-2.013v-14.137l2.903 2.902a4.794 4.794 0 0 0 5.26 1.098v10.137a2.711 2.711 0 0 0 4.535 2.013 2.714 2.714 0 0 0 4.536-2.013v-9.69l1.515 1.429a2.832 2.832 0 0 0 4.005-4.004zm-10.056-13.07a2.721 2.721 0 1 1 0 5.442 2.721 2.721 0 0 1 0-5.442zm-20.86-2.721a3.628 3.628 0 1 1 7.255 0 3.628 3.628 0 0 1-7.256 0zm-16.305 3.628h-1.27l1.393-2.79a.97.97 0 0 0 .053-.127 3.63 3.63 0 0 1 .5-1.011l.05-.06a3.588 3.588 0 0 1 5.768 0c.015.02.03.039.047.058.22.309.39.65.503 1.013a.97.97 0 0 0 .052.127l1.395 2.79h-1.27a.907.907 0 0 0-.725.363 3.584 3.584 0 0 1-2.618 1.42c-.186-.01-.369-.012-.555 0a3.586 3.586 0 0 1-2.598-1.42.907.907 0 0 0-.725-.363zm45.94 14.883a1.017 1.017 0 0 1-1.457-.017l-3.064-2.893a.907.907 0 0 0-1.533.663v11.792a.907.907 0 0 1-1.814 0v-6.787a.907.907 0 0 0-1.814 0v6.787a.907.907 0 0 1-1.814 0v-11.792a.907.907 0 0 0-1.529-.66 2.984 2.984 0 0 1-4.263-.07l-4.444-4.445a.907.907 0 0 0-1.555.64v16.327a.907.907 0 0 1-1.814 0v-10.885a.907.907 0 0 0-1.814 0v10.885a.907.907 0 0 1-1.814 0v-16.327a.907.907 0 0 0-1.548-.64l-3.061 3.06a1.02 1.02 0 0 1-.657.3c-.024 0-.09-.01-.118-.012-.027-.002-.047 0-.07 0a.848.848 0 0 0-.217.013c-.296 0-.588-.07-.851-.206l-3.032-1.569a.907.907 0 0 0-1.297 1.024l2.441 9.822h-1.567c-.5 0-.907.406-.907.907v3.628a.907.907 0 0 1-1.814 0v-3.628a.907.907 0 0 0-1.814 0v3.628a.907.907 0 0 1-1.814 0v-3.628c0-.501-.406-.907-.907-.907h-1.557l2.441-9.825a.907.907 0 0 0-1.53-.85l-2.15 2.21a1.017 1.017 0 0 1-1.739-.715 1.01 1.01 0 0 1 .301-.726l5.304-5.361a3.59 3.59 0 0 1 2.155-1.02c.136.01.273.021.407.021.134 0 .272-.012.406-.022a3.59 3.59 0 0 1 2.155 1.02.874.874 0 0 0 .113.097l4.754 3.414a.907.907 0 0 0 1.17-.096l5.17-5.17a3.628 3.628 0 0 1 5.123 0l6.048 6.058a3.25 3.25 0 0 0 4.563.06l1.665-1.582a3.709 3.709 0 0 1 5.123 0l6.04 6.04c.396.396.397 1.04 0 1.437z"/>
    </g>
</svg>
