<svg xmlns="http://www.w3.org/2000/svg" width="329" height="267" viewBox="0 0 329 267">
    <g fill="none" fill-rule="nonzero" stroke="#D1D1D1">
        <path stroke-width="2" d="M266.431 118.623c-.42-3.72-4.773-6.516-8.537-6.516-12.17 0-22.97-7.12-27.5-18.13-4.627-11.278-1.644-24.43 7.427-32.72a7.329 7.329 0 0 0 .807-9.977c-6.229-7.88-13.309-15-21.04-21.17-3.026-2.42-7.467-2.083-10.092.813-7.916 8.735-22.136 11.98-33.123 7.413-11.435-4.792-18.645-16.335-17.94-28.727.233-3.892-2.622-7.276-6.517-7.728a133.08 133.08 0 0 0-29.877-.079c-3.85.424-6.706 3.728-6.576 7.57.432 12.27-6.865 23.612-18.186 28.232-10.856 4.418-24.975 1.199-32.875-7.458-2.611-2.851-6.98-3.202-10.022-.84A131.678 131.678 0 0 0 30.894 50.47a7.341 7.341 0 0 0 .793 10.056c9.243 8.34 12.228 21.607 7.426 33.015-4.585 10.876-15.92 17.885-28.897 17.885-4.211-.135-7.21 2.681-7.671 6.495a132.059 132.059 0 0 0-.057 30.091c.417 3.736 4.902 6.507 8.708 6.507 11.565-.295 22.668 6.839 27.326 18.131 4.643 11.278 1.658 24.422-7.426 32.719a7.334 7.334 0 0 0-.807 9.97 131.642 131.642 0 0 0 21.01 21.177c3.042 2.443 7.47 2.098 10.107-.798 7.946-8.756 22.164-11.996 33.108-7.42 11.463 4.778 18.674 16.32 17.968 28.719-.23 3.894 2.639 7.284 6.518 7.729a132.49 132.49 0 0 0 29.878.08 7.372 7.372 0 0 0 6.575-7.578c-.445-12.262 6.865-23.604 18.17-28.216 10.93-4.448 24.99-1.192 32.891 7.455 2.626 2.846 6.965 3.19 10.023.835a131.983 131.983 0 0 0 21.485-21.163 7.327 7.327 0 0 0-.793-10.056c-9.243-8.34-12.243-21.608-7.44-33.008 4.514-10.731 15.428-17.936 27.168-17.936l1.642.042c3.808.308 7.312-2.614 7.773-6.487 1.17-9.95 1.184-20.07.06-30.09zM134.671 222.03c-48.95 0-88.766-39.669-88.766-88.436 0-48.766 39.816-88.437 88.765-88.437 48.948 0 88.764 39.67 88.764 88.437 0 48.767-39.816 88.436-88.764 88.436z"/>
        <path d="M327.384 76.842c-.092-.814-1.044-1.425-1.867-1.425-2.662 0-5.025-1.558-6.015-3.966-1.012-2.467-.36-5.344 1.624-7.157.625-.569.7-1.52.177-2.182a28.69 28.69 0 0 0-4.602-4.63 1.62 1.62 0 0 0-2.208.177c-1.731 1.91-4.842 2.62-7.245 1.622a6.427 6.427 0 0 1-3.924-6.284 1.607 1.607 0 0 0-1.425-1.69 29.109 29.109 0 0 0-6.536-.017 1.613 1.613 0 0 0-1.438 1.655c.095 2.684-1.501 5.165-3.978 6.175-2.374.967-5.463.263-7.19-1.63a1.624 1.624 0 0 0-2.193-.184 28.802 28.802 0 0 0-4.7 4.628 1.606 1.606 0 0 0 .174 2.2 6.397 6.397 0 0 1 1.624 7.221c-1.002 2.38-3.482 3.913-6.32 3.913-.921-.03-1.577.586-1.678 1.42a28.885 28.885 0 0 0-.013 6.582c.092.817 1.073 1.423 1.905 1.423 2.53-.064 4.958 1.496 5.977 3.966 1.016 2.467.363 5.342-1.624 7.157-.622.569-.7 1.52-.177 2.18a28.794 28.794 0 0 0 4.596 4.633 1.62 1.62 0 0 0 2.21-.175c1.739-1.915 4.849-2.624 7.243-1.623a6.416 6.416 0 0 1 3.93 6.282 1.61 1.61 0 0 0 1.425 1.69 28.98 28.98 0 0 0 6.536.018 1.613 1.613 0 0 0 1.438-1.658 6.431 6.431 0 0 1 3.974-6.171c2.39-.973 5.466-.261 7.194 1.63a1.628 1.628 0 0 0 2.193.183 28.869 28.869 0 0 0 4.7-4.629 1.603 1.603 0 0 0-.174-2.2c-2.022-1.824-2.678-4.726-1.628-7.22.988-2.347 3.375-3.923 5.943-3.923l.36.01c.832.067 1.598-.572 1.7-1.42.255-2.176.258-4.39.012-6.581zm-28.82 22.619c-10.707 0-19.416-8.677-19.416-19.344 0-10.667 8.71-19.344 19.416-19.344s19.415 8.677 19.415 19.344c0 10.667-8.709 19.344-19.415 19.344z"/>
    </g>
</svg>
