<svg xmlns="http://www.w3.org/2000/svg" width="156" height="160" viewBox="0 0 156 160">
    <defs>
        <linearGradient id="a" x1="100%" x2="0%" y1="50%" y2="50%">
            <stop offset="0%" stop-color="#5CC5EF"/>
            <stop offset="100%" stop-color="#344390"/>
        </linearGradient>
        <linearGradient id="b" x1="70.942%" x2="-16.786%" y1="0%" y2="171.563%">
            <stop offset="0%" stop-color="#16F2FE" stop-opacity="0"/>
            <stop offset="100%" stop-color="#00F2FF"/>
        </linearGradient>
        <linearGradient id="c" x1="113.699%" x2="0%" y1="0%" y2="100%">
            <stop offset="0%" stop-color="#FF4900"/>
            <stop offset="100%" stop-color="#344390"/>
        </linearGradient>
    </defs>
    <g fill="none" fill-rule="evenodd">
        <path fill="url(#a)" d="M.017 126.087l36.466 20.095a15 15 0 0 0 14.297.098l22.811-12.163v14.767L50.75 160.675a15 15 0 0 1-14.171-.22L.017 140.121v-14.034z" transform="translate(.117 -2.445)"/>
        <path fill="url(#a)" d="M.017 110.992l36.466 20.095a15 15 0 0 0 14.297.099l22.811-12.163v14.767L50.75 145.58a15 15 0 0 1-14.171-.22L.017 125.028v-14.035z" transform="translate(.117 -2.445)"/>
        <path fill="url(#a)" d="M.017 95.776l36.466 20.095a15 15 0 0 0 14.297.098l22.811-12.163v14.767l-22.841 11.79a15 15 0 0 1-14.171-.219L.017 109.81V95.776z" transform="translate(.117 -2.445)"/>
        <path fill="#344390" d="M2.094 92.553l36.776 19.242a8 8 0 0 0 7.045.183l24.678-11.323a1 1 0 0 0 .032-1.802L36.517 81.736a12 12 0 0 0-9.69-.475L2.197 90.734a1 1 0 0 0-.104 1.82z"/>
        <path fill="url(#a)" d="M14.492 77.196l20.032 10.657a8 8 0 0 0 7.181.168l12.17-5.761a1 1 0 0 0 .572-.904v-1.49l-40.485-4.95v1.397a1 1 0 0 0 .53.883z" transform="translate(.117 -2.445)"/>
        <path fill="#5CC5EF" d="M14.3 73.353l20.132 10.533a8 8 0 0 0 7.045.183l12.795-5.87a1 1 0 0 0 .032-1.803l-18.057-9.062a12 12 0 0 0-9.69-.475l-12.153 4.674a1 1 0 0 0-.104 1.82z"/>
        <path fill="#FFF" d="M25.8 74.768l6.739 3.526a8 8 0 0 0 7.045.183l3.233-1.484a1 1 0 0 0 .032-1.803l-5.512-2.766a11.063 11.063 0 0 0-8.934-.437l-2.5.961a1 1 0 0 0-.104 1.82z"/>
        <path fill="#FFA400" d="M32.66 74.908l-1.707 1.217.17-3.233 4.114.216-1.29.69 3.695 2.11-1.369 1.388z"/>
        <path fill="url(#b)" d="M34.205 74.916c5.82-24.133 18.841-41.143 39.066-51.03C93.495 14 113.937 6.104 134.596.197l25.234 23.69c-13.425 15.467-25.423 23.2-35.994 23.2-8.108 0-38.34-2.452-57.552 4.66-18.356 6.796-25.869 23.17-27.235 23.17h-4.844z" transform="translate(.117 -2.445)"/>
        <path fill="#004DBB" d="M58.868 40.949h4.078v1.02h-4.078zM58.868 42.988h4.078v1.02h-4.078zM55.81 45.089h7.136v1.02h-7.137z"/>
        <path fill="url(#c)" fill-rule="nonzero" d="M6.175 13.467h5.098V.213H3.415L.058 3.571V13.467h6.118zM3.116 1.954v1.318H1.798l1.318-1.318zM1.077 4.292h3.059V1.233h6.117v11.215H1.077V4.292z" transform="translate(53.313 34.802)"/>
        <g>
            <path fill="#004DBB" d="M91.777 39.728h1.942v.485h-1.942zM91.777 40.7h1.942v.485h-1.942zM90.32 41.7h3.4v.486h-3.4z"/>
            <path fill="url(#c)" fill-rule="nonzero" d="M2.942 6.415H5.37V.102H1.627L.027 1.7v4.714h2.915zM1.485.931v.628H.857L1.485.93zM.513 2.044H1.97V.587h2.914V5.93H.514V2.044z" transform="translate(89.13 36.8)"/>
        </g>
        <g>
            <path fill="#004DBB" d="M79.878 28.706h2.65v.662h-2.65zM79.878 30.03h2.65v.663h-2.65zM77.89 31.68h4.638v.663H77.89z"/>
            <path fill="url(#c)" fill-rule="nonzero" d="M4.012 8.75h3.313V.14H2.219L.038 2.32v6.431H4.012zM2.025 1.27v.856h-.857l.857-.856zM.7 2.789h1.987V.8h3.975v7.287H.7v-5.3z" transform="translate(76.528 25.277)"/>
        </g>
    </g>
</svg>
