<svg xmlns="http://www.w3.org/2000/svg" width="33" height="50" viewBox="0 0 33 50">
    <defs>
        <linearGradient id="a" x1="100%" x2="0%" y1="50%" y2="50%">
            <stop offset="0%" stop-color="#5CC5EF"/>
            <stop offset="100%" stop-color="#344390"/>
        </linearGradient>
    </defs>
    <g fill="url(#a)" fill-rule="evenodd" transform="translate(-631 -1083)">
        <path fill-rule="nonzero" d="M661.395 1128.054h-2.592l-7.69-29.221a5.608 5.608 0 0 0 2.255-4.49 5.625 5.625 0 0 0-5.618-5.619 5.625 5.625 0 0 0-5.619 5.619c0 1.835.89 3.464 2.256 4.49l-7.69 29.221h-2.592a.802.802 0 0 0-.803.803v3.21c0 .443.358.803.803.803h27.29c.444 0 .803-.36.803-.802v-3.211a.802.802 0 0 0-.803-.803zm-18.96-15.5l.454-1.723 4.86-3.646 4.862 3.646.453 1.722-5.314 3.357-5.315-3.357zm3.811 4.306l-5.929 3.745 1.69-6.422 4.24 2.677zm-2.7-8.528l.945-3.59 1.921 1.44-2.866 2.15zm5.54-2.15l1.923-1.44.944 3.59-2.866-2.15zm4.407 8l1.69 6.422-5.93-3.745 4.24-2.677zm-9.757-19.84c0-2.212 1.8-4.013 4.014-4.013 2.212 0 4.013 1.8 4.013 4.014 0 2.212-1.8 4.013-4.013 4.013a4.018 4.018 0 0 1-4.014-4.013zm4.014 5.62c.671 0 1.313-.125 1.91-.342l.908 3.445-2.818 2.114-2.817-2.114.906-3.445a5.564 5.564 0 0 0 1.91.341zm-8.032 22.92l8.032-5.073 8.032 5.073 1.361 5.172h-18.787l1.362-5.172zm20.874 8.383h-25.685v-1.605h25.685v1.605z"/>
        <path fill-rule="nonzero" d="M647.75 1096.75a2.411 2.411 0 0 0 2.408-2.407 2.411 2.411 0 0 0-2.408-2.408 2.411 2.411 0 0 0-2.408 2.408 2.411 2.411 0 0 0 2.408 2.408zm0-3.21a.804.804 0 0 1 0 1.605.804.804 0 0 1 0-1.605z"/>
        <path d="M655.776 1091.935h1.606a2.411 2.411 0 0 0-2.408-2.408v1.605c.442 0 .802.36.802.803zM658.987 1091.935h1.605a5.625 5.625 0 0 0-5.618-5.619v1.605c2.212 0 4.013 1.8 4.013 4.014z"/>
        <path d="M654.974 1083.105v1.606c3.983 0 7.224 3.241 7.224 7.224h1.605c0-4.868-3.961-8.83-8.83-8.83zM639.723 1091.935c0-.442.36-.803.803-.803v-1.605a2.411 2.411 0 0 0-2.408 2.408h1.605zM640.526 1086.316a5.625 5.625 0 0 0-5.619 5.619h1.605c0-2.213 1.801-4.014 4.014-4.014v-1.605z"/>
        <path d="M640.526 1084.71v-1.605c-4.868 0-8.83 3.962-8.83 8.83h1.606c0-3.983 3.24-7.224 7.224-7.224z"/>
    </g>
</svg>
