<svg xmlns="http://www.w3.org/2000/svg" width="105" height="92" viewBox="0 0 105 92">
    <path fill="#979797" fill-rule="nonzero" d="M99.217 91.323l-3.606-9.394 8.958.873-5.352 8.521zM.664 1.165l-.008-1C1.328.16 1.997.157 2.663.157v1c-.663 0-1.33.003-1.999.008zm3.995-.003l.006-1c.672.005 1.34.011 2.005.02l-.014 1c-.662-.009-1.328-.016-1.997-.02zm3.993.056l.022-1c.67.015 1.338.032 2.002.052l-.03 1a248.68 248.68 0 0 0-1.994-.052zm3.99.12l.037-1c.671.026 1.339.054 2.003.085l-.047.999c-.66-.031-1.326-.06-1.994-.085zm3.985.186l.056-.999c.671.037 1.339.078 2.002.12l-.065.998a218.06 218.06 0 0 0-1.993-.12zm3.984.258l.074-.998c.67.05 1.336.103 1.998.159l-.084.996c-.658-.055-1.321-.108-1.988-.157zm3.985.335l.094-.995c.67.063 1.336.13 1.997.199l-.105.994c-.657-.069-1.32-.135-1.986-.198zm3.957.416l.116-.993c.667.077 1.33.158 1.99.242l-.127.992c-.655-.084-1.315-.164-1.979-.241zm3.962.505l.138-.99c.666.093 1.328.19 1.984.289l-.15.989c-.653-.1-1.31-.195-1.972-.288zm3.946.6l.163-.986c.663.11 1.322.222 1.976.339l-.176.984c-.65-.116-1.304-.228-1.963-.337zm3.927.702l.189-.982c.662.127 1.318.258 1.97.394l-.204.979c-.646-.134-1.298-.265-1.955-.391zm3.913.812l.218-.976c.657.147 1.309.298 1.955.452l-.233.973a128.92 128.92 0 0 0-1.94-.449zm3.86.925l.249-.969c.653.168 1.3.34 1.942.515l-.265.965c-.636-.175-1.278-.345-1.926-.511zm3.84 1.054l.282-.96c.647.19 1.288.384 1.923.583l-.299.954c-.629-.197-1.264-.39-1.906-.577zm3.803 1.191l.317-.948c.64.214 1.273.432 1.9.656l-.337.942c-.62-.222-1.247-.438-1.88-.65zm3.756 1.34l.355-.935c.631.24 1.255.485 1.872.735l-.375.927c-.61-.247-1.228-.49-1.852-.727zm3.69 1.496l.397-.918c.62.267 1.233.54 1.838.818l-.418.909a84.67 84.67 0 0 0-1.816-.81zm3.622 1.665l.44-.898c.606.297 1.205.6 1.796.909l-.463.886a77.956 77.956 0 0 0-1.773-.897zm3.535 1.846l.486-.874a73.1 73.1 0 0 1 1.746 1.003l-.51.86a72.105 72.105 0 0 0-1.722-.989zm3.426 2.033l.534-.845c.571.361 1.134.729 1.687 1.102l-.56.829c-.545-.368-1.099-.73-1.661-1.086zm3.255 2.196l.583-.812c.549.394 1.088.795 1.618 1.203l-.609.792a62.841 62.841 0 0 0-1.592-1.183zm3.147 2.42l.637-.771c.52.43 1.03.869 1.53 1.318l-.668.744c-.49-.44-.99-.87-1.5-1.291zm2.946 2.646l.699-.716c.482.471.954.951 1.416 1.441l-.728.686c-.452-.48-.915-.95-1.387-1.411zm2.72 2.887l.755-.655c.44.509.871 1.027 1.291 1.555l-.782.623A47.581 47.581 0 0 0 85.9 26.85zm2.477 3.116l.808-.59a49.91 49.91 0 0 1 1.158 1.657l-.83.557a48.91 48.91 0 0 0-1.136-1.624zm2.196 3.279l.852-.524c.351.572.692 1.152 1.023 1.742l-.872.49a51.216 51.216 0 0 0-1.003-1.708zm1.948 3.467l.89-.456c.305.595.601 1.2.888 1.812l-.906.424a54.503 54.503 0 0 0-.872-1.78zm1.69 3.613l.92-.391c.262.615.514 1.238.758 1.87l-.933.36a58.786 58.786 0 0 0-.745-1.839zm1.415 3.661l.944-.33c.22.63.432 1.267.636 1.913l-.954.3c-.2-.635-.409-1.263-.626-1.883zm1.197 3.793l.962-.272c.182.641.355 1.29.521 1.946l-.97.245a70.033 70.033 0 0 0-.513-1.919zm.976 3.863l.976-.218c.146.65.284 1.307.414 1.97l-.98.194a77.034 77.034 0 0 0-.41-1.946zm.77 3.91l.986-.17c.112.656.218 1.318.316 1.987l-.99.146a84.877 84.877 0 0 0-.312-1.963zm.582 3.947l.993-.123c.082.66.157 1.326.226 1.998l-.994.103a93.577 93.577 0 0 0-.225-1.978zm.41 3.976l.996-.082c.055.663.103 1.331.145 2.005l-.998.063c-.042-.668-.09-1.33-.144-1.986zm.25 3.986l1-.044c.029.663.052 1.333.07 2.007l-1 .027c-.017-.669-.04-1.332-.07-1.99zm.107 4l1-.01c.007.665.008 1.334.003 2.008l-1-.006c.005-.669.003-1.333-.003-1.992zm-.025 3.999l1 .021c-.014.664-.034 1.333-.058 2.007l-1-.036c.025-.67.044-1.333.058-1.992zm-.14 3.89l1 .05c-.034.664-.071 1.332-.114 2.004l-.998-.063c.042-.668.08-1.331.113-1.99z"/>
</svg>
