<svg xmlns="http://www.w3.org/2000/svg" width="218" height="39" viewBox="0 0 218 39">
    <g fill="none" fill-rule="evenodd">
        <path fill="#F15A24" d="M8.302 6.886h13.126V20.012l5.08 5.08a7.06 7.06 0 0 0 1.577-4.446V.23L20.983.227H7.668c-1.68 0-3.228.593-4.447 1.578l5.081 5.08z"/>
        <path fill="#2D81AF" d="M20.246 21.09H12.29l-5.193-.084.128-6.368V8.067L2.097 2.942A7.058 7.058 0 0 0 .567 7.33v13.315c0 3.906 3.195 7.102 7.101 7.102h13.316a7.058 7.058 0 0 0 4.389-1.532l-5.127-5.126zM54.533 5.086l-7.045 18.648H41.73L34.712 5.086h4.853l4.684 13.739.358 1.055.361-1.051L49.68 5.086zM70.038 20.359v3.375H56.375v-3.12a275.991 275.991 0 0 0 4.688-3.448c1.245-.94 2.227-1.743 2.912-2.383.715-.67 1.19-1.221 1.454-1.693.27-.487.403-.997.403-1.523 0-.768-.323-1.377-.932-1.769-.568-.358-1.233-.54-1.983-.54-1.081 0-2.051.194-2.888.57a8.318 8.318 0 0 0-1.983 1.275l-2.147-2.577c.411-.41.852-.772 1.324-1.08a9.192 9.192 0 0 1 1.79-.913c.623-.24 1.27-.42 1.914-.533.646-.115 1.29-.172 1.906-.172 1.04 0 2.006.14 2.874.423.863.277 1.617.673 2.237 1.172a5.29 5.29 0 0 1 1.443 1.804c.339.696.51 1.484.51 2.34 0 .651-.118 1.295-.357 1.918-.244.632-.629 1.276-1.142 1.911-.526.651-1.2 1.336-2.01 2.037a35.174 35.174 0 0 1-2.916 2.233l-1 .693h7.566z"/>
        <path fill="#F15A24" d="M85.446 17.16a4.476 4.476 0 0 0-1.203-1.416 6.847 6.847 0 0 0-1.732-.952 29.828 29.828 0 0 0-2.012-.67c-.69-.202-1.36-.4-2.014-.594a11.593 11.593 0 0 1-1.796-.684c-.545-.271-.99-.613-1.317-1.017-.339-.419-.51-.951-.51-1.583 0-.525.117-1.016.35-1.454.236-.437.556-.818.963-1.138.399-.315.879-.563 1.424-.735a5.81 5.81 0 0 1 1.754-.254c1.066 0 2.074.19 2.995.564.864.353 1.629.909 2.276 1.655l.787-.872a7.136 7.136 0 0 0-2.439-1.743c-1-.438-2.193-.659-3.535-.659a7.7 7.7 0 0 0-2.288.336 6.149 6.149 0 0 0-1.88.95c-.529.404-.951.903-1.256 1.482-.3.574-.453 1.232-.453 1.951 0 1.013.255 1.82.765 2.399a5.735 5.735 0 0 0 1.975 1.427c.803.362 1.687.658 2.627.883.962.231 1.864.51 2.686.821.837.32 1.546.743 2.101 1.253.583.533.875 1.283.875 2.234 0 .407-.076.84-.231 1.29-.157.46-.439.883-.834 1.263-.392.373-.92.69-1.565.937-.646.243-1.457.369-2.412.369a7.361 7.361 0 0 1-1.884-.228 7.849 7.849 0 0 1-1.61-.606 7.056 7.056 0 0 1-1.344-.879 7.732 7.732 0 0 1-.898-.86l-.772.895c.662.783 1.53 1.434 2.577 1.937 1.099.53 2.413.795 3.9.795 1.203 0 2.223-.16 3.037-.471.807-.309 1.47-.712 1.972-1.2.494-.483.849-1.023 1.054-1.606.21-.593.312-1.179.312-1.746 0-.827-.148-1.527-.445-2.075M105.015 18.21a8.111 8.111 0 0 1-1.507 2.626 6.885 6.885 0 0 1-2.352 1.743c-.91.414-1.94.624-3.063.624-1.142 0-2.185-.21-3.095-.624-.909-.411-1.7-1.001-2.348-1.743a7.89 7.89 0 0 1-1.495-2.63c-.347-.997-.522-2.097-.522-3.273 0-1.191.175-2.302.522-3.303.346-1.001.849-1.88 1.495-2.616a6.89 6.89 0 0 1 2.348-1.727c.914-.414 1.953-.624 3.095-.624 1.122 0 2.153.21 3.063.624.91.411 1.701.993 2.349 1.727a7.836 7.836 0 0 1 1.51 2.616c.354 1 .533 2.112.533 3.303 0 1.176-.179 2.276-.533 3.277m1.21-6.961a8.795 8.795 0 0 0-1.769-2.957 8.133 8.133 0 0 0-2.767-1.968c-1.077-.476-2.287-.715-3.596-.715-1.328 0-2.547.239-3.612.715a8.142 8.142 0 0 0-2.752 1.968c-.764.833-1.358 1.827-1.774 2.957-.41 1.13-.623 2.37-.623 3.684 0 1.313.213 2.554.623 3.684.416 1.13 1.01 2.124 1.774 2.957a8.2 8.2 0 0 0 2.752 1.968c1.069.475 2.284.715 3.612.715 1.309 0 2.519-.24 3.596-.715a8.181 8.181 0 0 0 2.767-1.968 8.83 8.83 0 0 0 1.77-2.957c.415-1.13.624-2.37.624-3.684 0-1.313-.21-2.554-.625-3.684M121.19 22.872v1.055h-10.097V5.913h1.192v16.959zM138.126 5.913v11.144c0 2.218-.59 3.996-1.754 5.278-1.161 1.275-2.912 1.923-5.214 1.923-1.142 0-2.162-.172-3.026-.511-.86-.338-1.591-.818-2.177-1.43-.582-.61-1.028-1.367-1.317-2.246-.296-.887-.445-1.9-.445-3.014V5.913h1.191V17.03c0 1.914.495 3.437 1.473 4.525.982 1.093 2.428 1.648 4.301 1.648 1.891 0 3.346-.555 4.32-1.648.966-1.088 1.457-2.61 1.457-4.525V5.913h1.191zM155.001 5.913v1.05h-6.009v16.963H147.8V6.963h-6.012v-1.05zM158.666 23.926h1.191V5.914h-1.19zM179.808 18.21a8.111 8.111 0 0 1-1.508 2.626 6.877 6.877 0 0 1-2.351 1.743c-.91.414-1.941.624-3.064.624-1.142 0-2.185-.21-3.095-.624-.909-.411-1.7-1.001-2.348-1.743a7.89 7.89 0 0 1-1.495-2.63c-.347-.997-.521-2.097-.521-3.273 0-1.191.174-2.302.52-3.303.347-1.001.85-1.885 1.496-2.616a6.89 6.89 0 0 1 2.348-1.727c.914-.414 1.953-.624 3.095-.624 1.123 0 2.155.21 3.064.624.91.411 1.7.993 2.348 1.727.647.731 1.153 1.61 1.51 2.616.354 1 .533 2.112.533 3.303 0 1.176-.179 2.276-.532 3.277m1.21-6.961a8.795 8.795 0 0 0-1.77-2.957 8.183 8.183 0 0 0-2.767-1.968c-1.077-.476-2.287-.715-3.596-.715-1.328 0-2.546.239-3.612.715a8.142 8.142 0 0 0-2.752 1.968c-.764.833-1.358 1.827-1.773 2.957-.415 1.13-.624 2.37-.624 3.684 0 1.313.21 2.554.624 3.684.415 1.13 1.009 2.124 1.773 2.957a8.2 8.2 0 0 0 2.752 1.968c1.07.475 2.284.715 3.612.715 1.31 0 2.52-.24 3.596-.715a8.181 8.181 0 0 0 2.768-1.968 8.83 8.83 0 0 0 1.769-2.957c.415-1.13.624-2.37.624-3.684 0-1.313-.209-2.554-.624-3.684M200.203 5.913v18.013h-1.256L187.42 8.2l-.343-.468v16.194h-1.191V5.913h1.313l11.47 15.506.343.463V5.913zM217.052 19.234c0 .563-.103 1.152-.312 1.747-.202.582-.56 1.126-1.055 1.605-.502.488-1.164.891-1.972 1.2-.81.311-1.833.471-3.032.471-1.492 0-2.806-.266-3.905-.795-1.047-.502-1.91-1.153-2.577-1.938l.773-.894c.266.297.567.586.898.86.396.332.849.628 1.343.88.5.254 1.04.456 1.61.604a7.341 7.341 0 0 0 1.884.229c.96 0 1.77-.126 2.413-.37.643-.247 1.173-.562 1.564-.936.4-.38.681-.803.838-1.263.151-.449.228-.883.228-1.29 0-.951-.293-1.705-.876-2.234-.555-.51-1.263-.933-2.1-1.252a22.35 22.35 0 0 0-2.683-.823c-.94-.224-1.823-.52-2.63-.882a5.767 5.767 0 0 1-1.976-1.428c-.505-.578-.764-1.385-.764-2.397 0-.719.152-1.378.452-1.953a4.465 4.465 0 0 1 1.257-1.48 6.15 6.15 0 0 1 1.88-.951 7.722 7.722 0 0 1 2.287-.335c1.347 0 2.535.22 3.536.658.947.415 1.77 1.001 2.443 1.743l-.788.872a6.051 6.051 0 0 0-2.28-1.656 7.915 7.915 0 0 0-2.995-.563c-.62 0-1.21.083-1.75.255a4.465 4.465 0 0 0-1.428.735c-.403.319-.726.7-.959 1.138a3.035 3.035 0 0 0-.353 1.453c0 .632.17 1.165.51 1.583.33.404.772.747 1.32 1.017.529.259 1.134.49 1.792.684.655.195 1.325.393 2.014.595.684.201 1.363.425 2.017.67.64.242 1.221.562 1.727.95.5.389.907.864 1.203 1.416.297.552.446 1.25.446 2.075"/>
        <path fill="#9D9EA2" d="M58.106 31.697V31h3.94v.698h-1.602v6.485h-.732v-6.485h-1.606zm4.87-.878h.684v3.002c.277-.364.582-.637.914-.817.332-.181.691-.271 1.079-.271.397 0 .75.1 1.057.302.307.202.534.473.681.813.146.34.22.874.22 1.6v2.734h-.684v-2.534c0-.612-.024-1.02-.073-1.226-.085-.352-.239-.616-.462-.793-.223-.178-.515-.267-.876-.267-.413 0-.784.137-1.11.41a1.922 1.922 0 0 0-.648 1.016c-.065.26-.098.742-.098 1.446v1.948h-.683v-7.363zm10.585 5.6l.576.303c-.189.371-.407.67-.654.898a2.598 2.598 0 0 1-.835.52 2.91 2.91 0 0 1-1.05.179c-.866 0-1.543-.284-2.031-.853-.488-.568-.732-1.21-.732-1.926 0-.674.206-1.274.62-1.802.524-.67 1.225-1.005 2.104-1.005.905 0 1.628.343 2.168 1.03.384.485.58 1.09.586 1.816h-4.775c.013.619.21 1.126.59 1.521.381.396.852.594 1.412.594.27 0 .533-.048.788-.142.256-.094.473-.22.652-.376.179-.156.373-.409.581-.757zm0-1.43c-.091-.365-.224-.656-.398-.875a1.883 1.883 0 0 0-.69-.527 2.114 2.114 0 0 0-.904-.2c-.521 0-.969.168-1.343.503-.273.244-.48.61-.62 1.098h3.955zm4.938 3.193v-7.183h.156l4.776 5.498V31h.708v7.183h-.162l-4.736-5.43v5.43H78.5zm11.766-1.763l.576.303c-.189.371-.407.67-.654.898a2.598 2.598 0 0 1-.835.52 2.91 2.91 0 0 1-1.05.179c-.866 0-1.543-.284-2.031-.853-.489-.568-.733-1.21-.733-1.926 0-.674.207-1.274.62-1.802.524-.67 1.226-1.005 2.105-1.005.905 0 1.627.343 2.168 1.03.384.485.58 1.09.586 1.816H86.24c.013.619.21 1.126.591 1.521.381.396.851.594 1.411.594.27 0 .533-.048.789-.142.255-.094.473-.22.652-.376.179-.156.372-.409.58-.757zm0-1.43c-.091-.365-.224-.656-.398-.875a1.883 1.883 0 0 0-.691-.527 2.114 2.114 0 0 0-.903-.2c-.521 0-.969.168-1.343.503-.274.244-.48.61-.62 1.098h3.955zm1.434-2.12h.82l1.406 1.968 1.406-1.968h.82l-1.816 2.525 2.046 2.788h-.83l-1.626-2.232-1.601 2.232h-.816l2.012-2.788-1.821-2.525zm6.013-1.972h.689v1.972h1.084v.586H98.4v4.727h-.689v-4.727h-.932v-.586h.932v-1.972zm5.7.102h.723v6.49h2.758v.693h-3.481v-7.183zm8.992 5.42l.577.303c-.19.371-.407.67-.655.898a2.598 2.598 0 0 1-.835.52 2.91 2.91 0 0 1-1.05.179c-.865 0-1.543-.284-2.03-.853-.49-.568-.733-1.21-.733-1.926 0-.674.206-1.274.62-1.802.524-.67 1.225-1.005 2.104-1.005.905 0 1.628.343 2.168 1.03.384.485.58 1.09.586 1.816h-4.775c.013.619.21 1.126.59 1.521.382.396.852.594 1.412.594.27 0 .533-.048.788-.142.256-.094.473-.22.652-.376.18-.156.373-.409.581-.757zm0-1.43c-.09-.365-.223-.656-.398-.875a1.883 1.883 0 0 0-.69-.527 2.114 2.114 0 0 0-.904-.2c-.52 0-.968.168-1.343.503-.273.244-.48.61-.62 1.098h3.955zm1.537-2.12h.727l1.778 3.868 1.762-3.868h.733l-2.432 5.313h-.122l-2.446-5.313zm10.53 3.55l.576.303c-.189.371-.407.67-.654.898a2.598 2.598 0 0 1-.835.52 2.91 2.91 0 0 1-1.05.179c-.866 0-1.543-.284-2.031-.853-.488-.568-.732-1.21-.732-1.926 0-.674.206-1.274.62-1.802.524-.67 1.225-1.005 2.104-1.005.905 0 1.628.343 2.168 1.03.384.485.58 1.09.586 1.816h-4.775c.013.619.21 1.126.59 1.521.381.396.852.594 1.412.594.27 0 .533-.048.788-.142.256-.094.473-.22.652-.376.18-.156.373-.409.581-.757zm0-1.43c-.091-.365-.224-.656-.398-.875a1.883 1.883 0 0 0-.69-.527 2.114 2.114 0 0 0-.904-.2c-.52 0-.969.168-1.343.503-.273.244-.48.61-.62 1.098h3.955zm1.937-4.17h.683v7.363h-.683v-7.363zm7.413 1.914c.817 0 1.494.296 2.032.888.488.54.732 1.18.732 1.92 0 .741-.258 1.39-.774 1.945-.516.555-1.18.833-1.99.833-.814 0-1.478-.278-1.994-.833a2.767 2.767 0 0 1-.774-1.946c0-.735.244-1.373.732-1.914.537-.596 1.216-.893 2.036-.893zm0 .669c-.566 0-1.053.21-1.46.63a2.11 2.11 0 0 0-.61 1.523c0 .384.093.742.278 1.074.186.332.436.588.752.77.316.18.663.27 1.04.27.378 0 .725-.09 1.04-.27.316-.182.567-.438.752-.77.186-.332.279-.69.279-1.074 0-.596-.205-1.104-.613-1.524-.409-.42-.895-.63-1.458-.63zm6.234-2.583v.668c-.25-.107-.466-.16-.645-.16a.627.627 0 0 0-.332.08.356.356 0 0 0-.166.185c-.023.07-.034.257-.034.56v.717h1.108v.586h-1.113v4.727h-.683v-4.727h-.699v-.586h.699v-.83c0-.38.035-.652.105-.815a.837.837 0 0 1 .356-.393c.168-.1.37-.15.608-.15.221 0 .487.046.796.138zm3.756.18h.718v7.183h-.718v-7.183zm2.264 1.87h.684v.952c.273-.364.576-.637.908-.817.332-.181.693-.271 1.084-.271.397 0 .75.1 1.057.302.307.202.535.474.681.816.146.342.22.874.22 1.596v2.735h-.679v-2.534c0-.612-.026-1.02-.078-1.226-.081-.352-.234-.616-.46-.793-.224-.178-.517-.267-.878-.267-.413 0-.784.137-1.11.41a1.922 1.922 0 0 0-.648 1.016c-.065.264-.097.746-.097 1.446v1.948h-.684v-5.313zm6.111 0h.684v.952c.273-.364.576-.637.908-.817.332-.181.694-.271 1.084-.271.397 0 .75.1 1.057.302.308.202.535.474.682.816.146.342.22.874.22 1.596v2.735h-.68v-2.534c0-.612-.026-1.02-.078-1.226-.081-.352-.234-.616-.459-.793-.224-.178-.517-.267-.878-.267-.414 0-.784.137-1.111.41a1.922 1.922 0 0 0-.647 1.016c-.065.264-.098.746-.098 1.446v1.948h-.684v-5.313zm8.627-.136c.817 0 1.494.296 2.03.888.49.54.733 1.18.733 1.92 0 .741-.258 1.39-.774 1.945-.516.555-1.179.833-1.99.833-.813 0-1.478-.278-1.994-.833a2.767 2.767 0 0 1-.774-1.946c0-.735.244-1.373.732-1.914.538-.596 1.216-.893 2.037-.893zm0 .669c-.567 0-1.053.21-1.46.63a2.11 2.11 0 0 0-.61 1.523c0 .384.092.742.278 1.074.185.332.436.588.752.77.315.18.662.27 1.04.27.377 0 .724-.09 1.04-.27.315-.182.566-.438.752-.77.185-.332.278-.69.278-1.074 0-.596-.204-1.104-.613-1.524-.408-.42-.894-.63-1.457-.63zm3.543-.533h.727l1.778 3.868 1.762-3.868h.733l-2.432 5.313h-.122l-2.446-5.313zm11.35 0v5.313h-.673v-.913a2.93 2.93 0 0 1-.965.786 2.608 2.608 0 0 1-1.17.264 2.594 2.594 0 0 1-1.925-.818c-.533-.546-.799-1.209-.799-1.99 0-.765.269-1.42.806-1.963a2.627 2.627 0 0 1 1.938-.815c.437 0 .831.092 1.185.278.353.185.663.464.93.835v-.977h.674zm-2.734.523a2.063 2.063 0 0 0-1.824 1.07 2.158 2.158 0 0 0 .003 2.148c.192.341.45.607.774.798.324.19.671.286 1.042.286.375 0 .73-.095 1.065-.284a1.98 1.98 0 0 0 .774-.766c.18-.323.27-.685.27-1.09 0-.614-.202-1.129-.607-1.542a2.014 2.014 0 0 0-1.497-.62zm4.881-2.495h.689v1.972h1.084v.586h-1.084v4.727h-.689v-4.727h-.932v-.586h.932v-1.972zm3.045-.215c.157 0 .29.055.4.166.111.11.167.244.167.4a.54.54 0 0 1-.166.396.546.546 0 0 1-.4.166.54.54 0 0 1-.396-.166.54.54 0 0 1-.166-.396c0-.156.055-.29.166-.4a.54.54 0 0 1 .395-.166zm-.341 2.187h.688v5.313h-.688v-5.313zm4.632-.136c.817 0 1.494.296 2.03.888.49.54.733 1.18.733 1.92 0 .741-.258 1.39-.774 1.945-.516.555-1.179.833-1.99.833-.813 0-1.478-.278-1.994-.833a2.767 2.767 0 0 1-.774-1.946c0-.735.244-1.373.732-1.914.537-.596 1.216-.893 2.037-.893zm0 .669c-.567 0-1.054.21-1.46.63a2.11 2.11 0 0 0-.61 1.523c0 .384.092.742.278 1.074.185.332.436.588.751.77.316.18.663.27 1.04.27.378 0 .725-.09 1.04-.27.316-.182.567-.438.753-.77.185-.332.278-.69.278-1.074 0-.596-.204-1.104-.613-1.524-.408-.42-.894-.63-1.457-.63zm4.046-.533h.683v.952c.274-.364.576-.637.908-.817.332-.181.694-.271 1.084-.271.398 0 .75.1 1.058.302.307.202.534.474.68.816.147.342.22.874.22 1.596v2.735h-.678v-2.534c0-.612-.026-1.02-.078-1.226-.082-.352-.235-.616-.46-.793-.224-.178-.517-.267-.878-.267-.414 0-.784.137-1.111.41a1.922 1.922 0 0 0-.647 1.016c-.065.264-.098.746-.098 1.446v1.948h-.683v-5.313z"/>
    </g>
</svg>
